<svg width="21" height="19" viewBox="0 0 21 19" fill="none" xmlns="http://www.w3.org/2000/svg">
<path d="M10.6667 18.325C10.4333 18.325 10.1958 18.2834 9.95416 18.2C9.71249 18.1167 9.49999 17.9834 9.31666 17.8L7.59166 16.225C5.82499 14.6084 4.22916 13.0042 2.80416 11.4125C1.37916 9.82086 0.666656 8.06669 0.666656 6.15002C0.666656 4.58336 1.19166 3.27502 2.24166 2.22502C3.29166 1.17502 4.59999 0.650024 6.16666 0.650024C7.04999 0.650024 7.88332 0.837524 8.66666 1.21252C9.44999 1.58752 10.1167 2.10002 10.6667 2.75002C11.2167 2.10002 11.8833 1.58752 12.6667 1.21252C13.45 0.837524 14.2833 0.650024 15.1667 0.650024C16.7333 0.650024 18.0417 1.17502 19.0917 2.22502C20.1417 3.27502 20.6667 4.58336 20.6667 6.15002C20.6667 8.06669 19.9583 9.82503 18.5417 11.425C17.125 13.025 15.5167 14.6334 13.7167 16.25L12.0167 17.8C11.8333 17.9834 11.6208 18.1167 11.3792 18.2C11.1375 18.2834 10.9 18.325 10.6667 18.325ZM9.71666 4.75002C9.23332 4.06669 8.71666 3.54586 8.16666 3.18752C7.61666 2.82919 6.94999 2.65002 6.16666 2.65002C5.16666 2.65002 4.33332 2.98336 3.66666 3.65002C2.99999 4.31669 2.66666 5.15002 2.66666 6.15002C2.66666 7.01669 2.97499 7.93753 3.59166 8.91253C4.20832 9.88753 4.94582 10.8334 5.80416 11.75C6.66249 12.6667 7.54582 13.525 8.45416 14.325C9.36249 15.125 10.1 15.7834 10.6667 16.3C11.2333 15.7834 11.9708 15.125 12.8792 14.325C13.7875 13.525 14.6708 12.6667 15.5292 11.75C16.3875 10.8334 17.125 9.88753 17.7417 8.91253C18.3583 7.93753 18.6667 7.01669 18.6667 6.15002C18.6667 5.15002 18.3333 4.31669 17.6667 3.65002C17 2.98336 16.1667 2.65002 15.1667 2.65002C14.3833 2.65002 13.7167 2.82919 13.1667 3.18752C12.6167 3.54586 12.1 4.06669 11.6167 4.75002C11.5 4.91669 11.3583 5.04169 11.1917 5.12502C11.025 5.20836 10.85 5.25002 10.6667 5.25002C10.4833 5.25002 10.3083 5.20836 10.1417 5.12502C9.97499 5.04169 9.83332 4.91669 9.71666 4.75002Z" fill="#283583"/>
</svg>
