<svg width="18" height="17" viewBox="0 0 18 17" fill="none" xmlns="http://www.w3.org/2000/svg">
<path d="M6.18334 13.825L9.33334 11.925L12.4833 13.85L11.6583 10.25L14.4333 7.84995L10.7833 7.52495L9.33334 4.12495L7.88334 7.49995L4.23334 7.82495L7.00834 10.25L6.18334 13.825ZM9.33334 14.275L5.18334 16.775C5 16.8916 4.80834 16.9416 4.60834 16.9249C4.40834 16.9083 4.23334 16.8416 4.08334 16.725C3.93334 16.6083 3.81667 16.4625 3.73334 16.2874C3.65 16.1125 3.63334 15.9166 3.68334 15.7L4.78334 10.975L1.10834 7.79995C0.941669 7.64995 0.837502 7.47912 0.795836 7.28745C0.754169 7.09578 0.766669 6.90828 0.833336 6.72495C0.900002 6.54162 1 6.39162 1.13334 6.27495C1.26667 6.15828 1.45 6.08328 1.68334 6.04995L6.53334 5.62495L8.40834 1.17495C8.49167 0.974951 8.62084 0.824951 8.79584 0.724951C8.97084 0.624951 9.15 0.574951 9.33334 0.574951C9.51667 0.574951 9.69584 0.624951 9.87084 0.724951C10.0458 0.824951 10.175 0.974951 10.2583 1.17495L12.1333 5.62495L16.9833 6.04995C17.2167 6.08328 17.4 6.15828 17.5333 6.27495C17.6667 6.39162 17.7667 6.54162 17.8333 6.72495C17.9 6.90828 17.9125 7.09578 17.8708 7.28745C17.8292 7.47912 17.725 7.64995 17.5583 7.79995L13.8833 10.975L14.9833 15.7C15.0333 15.9166 15.0167 16.1125 14.9333 16.2874C14.85 16.4625 14.7333 16.6083 14.5833 16.725C14.4333 16.8416 14.2583 16.9083 14.0583 16.9249C13.8583 16.9416 13.6667 16.8916 13.4833 16.775L9.33334 14.275Z" fill="#283583"/>
</svg>
