<svg width="18" height="20" viewBox="0 0 18 20" fill="none" xmlns="http://www.w3.org/2000/svg">
<path d="M11.5 16C10.8 16 10.2083 15.7583 9.72499 15.275C9.24165 14.7917 8.99998 14.2 8.99998 13.5C8.99998 12.8 9.24165 12.2083 9.72499 11.725C10.2083 11.2417 10.8 11 11.5 11C12.2 11 12.7917 11.2417 13.275 11.725C13.7583 12.2083 14 12.8 14 13.5C14 14.2 13.7583 14.7917 13.275 15.275C12.7917 15.7583 12.2 16 11.5 16ZM1.99998 20C1.44998 20 0.979151 19.8042 0.587485 19.4125C0.195818 19.0208 -1.52588e-05 18.55 -1.52588e-05 18V4C-1.52588e-05 3.45 0.195818 2.97917 0.587485 2.5875C0.979151 2.19583 1.44998 2 1.99998 2H2.99998V1C2.99998 0.716667 3.09582 0.479167 3.28748 0.2875C3.47915 0.0958333 3.71665 0 3.99998 0C4.28332 0 4.52082 0.0958333 4.71248 0.2875C4.90415 0.479167 4.99998 0.716667 4.99998 1V2H13V1C13 0.716667 13.0958 0.479167 13.2875 0.2875C13.4792 0.0958333 13.7167 0 14 0C14.2833 0 14.5208 0.0958333 14.7125 0.2875C14.9042 0.479167 15 0.716667 15 1V2H16C16.55 2 17.0208 2.19583 17.4125 2.5875C17.8042 2.97917 18 3.45 18 4V18C18 18.55 17.8042 19.0208 17.4125 19.4125C17.0208 19.8042 16.55 20 16 20H1.99998ZM1.99998 18H16V8H1.99998V18ZM1.99998 6H16V4H1.99998V6Z" fill="#283583"/>
</svg>
