<svg width="22" height="12" viewBox="0 0 22 12" fill="none" xmlns="http://www.w3.org/2000/svg">
<path d="M1.99999 12C1.58332 12 1.28332 11.8167 1.09999 11.45C0.916655 11.0833 0.949989 10.7333 1.19999 10.4L5.19999 5.07499C5.29999 4.94165 5.42082 4.84165 5.56249 4.77499C5.70416 4.70832 5.84999 4.67499 5.99999 4.67499C6.14999 4.67499 6.29582 4.70832 6.43749 4.77499C6.57916 4.84165 6.69999 4.94165 6.79999 5.07499L10.5 9.99999H18L13 3.34999L11.3 5.59999C11.1 5.86665 10.8667 6.00415 10.6 6.01249C10.3333 6.02082 10.1 5.94999 9.89999 5.79999C9.69999 5.64999 9.56666 5.44582 9.49999 5.18749C9.43332 4.92915 9.49999 4.66665 9.69999 4.39999L12.2 1.07499C12.3 0.941654 12.4208 0.841654 12.5625 0.774988C12.7042 0.708321 12.85 0.674988 13 0.674988C13.15 0.674988 13.2958 0.708321 13.4375 0.774988C13.5792 0.841654 13.7 0.941654 13.8 1.07499L20.8 10.4C21.05 10.7333 21.0833 11.0833 20.9 11.45C20.7167 11.8167 20.4167 12 20 12H1.99999ZM10.5 9.99999H18H10.2H11.9125H10.5ZM3.99999 9.99999H7.99999L5.99999 7.32499L3.99999 9.99999Z" fill="#283583"/>
</svg>
