<?xml version="1.0" standalone="no"?>
<!DOCTYPE svg PUBLIC "-//W3C//DTD SVG 20010904//EN"
 "http://www.w3.org/TR/2001/REC-SVG-20010904/DTD/svg10.dtd">
<svg version="1.0" xmlns="http://www.w3.org/2000/svg"
 width="500.000000pt" height="500.000000pt" viewBox="0 0 500.000000 500.000000"
 preserveAspectRatio="xMidYMid meet">

<g transform="translate(0.000000,500.000000) scale(0.100000,-0.100000)"
fill="#000000" stroke="none">
<path d="M0 2500 l0 -2500 2500 0 2500 0 0 2500 0 2500 -2500 0 -2500 0 0
-2500z m1150 495 l0 -165 135 0 135 0 0 165 0 165 120 0 120 0 0 -440 0 -440
-120 0 -120 0 0 180 0 180 -135 0 -135 0 0 -180 0 -180 -120 0 -120 0 0 440 0
440 120 0 120 0 0 -165z m1220 70 l0 -95 -140 0 -140 0 0 -70 0 -70 130 0 130
0 0 -95 0 -95 -130 0 -130 0 0 -85 0 -85 140 0 140 0 0 -95 0 -95 -260 0 -260
0 0 440 0 440 260 0 260 0 0 -95z m400 -345 l0 -440 -120 0 -120 0 0 440 0
440 120 0 120 0 0 -440z m621 426 c109 -23 187 -69 239 -142 121 -169 92 -482
-58 -615 -98 -87 -187 -109 -439 -109 l-173 0 0 440 0 440 183 0 c118 0 205
-5 248 -14z m709 -426 l0 -440 -120 0 -120 0 0 433 c0 239 3 437 7 440 3 4 57
7 120 7 l113 0 0 -440z m-200 -965 c0 -140 -2 -165 -15 -165 -13 0 -15 25 -15
165 0 140 2 165 15 165 13 0 15 -25 15 -165z m-2193 139 c8 -21 -13 -42 -28
-27 -13 13 -5 43 11 43 6 0 13 -7 17 -16z m1340 0 c8 -21 -13 -42 -28 -27 -13
13 -5 43 11 43 6 0 13 -7 17 -16z m350 0 c8 -21 -13 -42 -28 -27 -13 13 -5 43
11 43 6 0 13 -7 17 -16z m-2247 -59 l0 -65 80 0 80 0 0 65 c0 58 2 65 20 65
19 0 20 -7 20 -155 0 -148 -1 -155 -20 -155 -18 0 -20 7 -20 75 l0 75 -80 0
-80 0 0 -75 c0 -68 -2 -75 -20 -75 -19 0 -20 7 -20 155 0 148 1 155 20 155 18
0 20 -7 20 -65z m1719 47 c56 -28 76 -64 76 -137 0 -107 -55 -155 -177 -155
l-68 0 0 155 0 155 68 0 c44 0 79 -6 101 -18z m-399 -32 c0 -28 3 -30 36 -30
45 0 41 -24 -5 -28 l-32 -3 3 -82 3 -82 33 -3 c49 -5 43 -32 -7 -32 -57 0 -71
24 -71 122 0 63 -3 78 -15 78 -8 0 -15 7 -15 15 0 8 6 15 14 15 8 0 19 14 25
30 5 17 15 30 20 30 6 0 11 -13 11 -30z m1040 0 c0 -28 3 -30 36 -30 45 0 42
-24 -4 -28 l-32 -3 0 -69 c0 -87 5 -100 41 -100 20 0 29 -5 29 -16 0 -12 -9
-14 -42 -12 -55 4 -68 28 -68 124 0 59 -3 73 -17 79 -16 6 -16 8 4 23 11 9 24
27 28 40 9 32 25 27 25 -8z m-1922 -56 c14 -15 22 -38 22 -60 l0 -34 -79 0
c-78 0 -78 0 -74 -24 9 -43 36 -59 93 -54 43 4 50 3 48 -11 -2 -12 -17 -17
-61 -19 -52 -3 -60 0 -87 27 -26 25 -30 37 -30 84 0 58 23 100 64 118 32 13
79 2 104 -27z m335 25 c12 -7 25 -17 29 -22 4 -6 12 -4 22 6 33 33 88 34 120
1 23 -22 23 -214 1 -214 -12 0 -15 16 -15 85 0 72 -3 88 -21 106 -14 14 -27
18 -42 13 -43 -13 -47 -23 -47 -115 0 -82 -2 -89 -20 -89 -18 0 -20 7 -20 88
0 48 -4 93 -9 101 -13 21 -71 18 -87 -4 -9 -12 -14 -48 -14 -102 0 -76 -2 -83
-20 -83 -19 0 -20 7 -20 115 0 93 3 115 14 115 8 0 16 -5 18 -11 2 -6 14 -5
33 5 36 19 49 20 78 5z m416 -14 c23 -23 30 -215 8 -215 -9 0 -17 6 -20 13 -3
10 -9 10 -26 0 -30 -18 -91 -16 -113 4 -20 18 -23 54 -8 83 11 20 66 40 113
40 22 0 27 4 27 25 0 34 -31 49 -77 36 -41 -12 -48 -9 -40 13 11 29 108 30
136 1z m942 15 c22 0 39 -4 39 -10 0 -5 -9 -10 -21 -10 -18 0 -20 -4 -15 -27
12 -45 -11 -81 -58 -94 -22 -6 -47 -13 -53 -15 -7 -2 -13 -10 -13 -17 0 -11
17 -16 59 -19 71 -5 91 -19 91 -63 0 -51 -37 -75 -113 -75 -42 0 -66 5 -79 17
-24 22 -23 69 2 85 14 9 18 19 14 35 -4 13 -1 30 6 38 9 11 9 18 -3 30 -54 53
0 144 77 130 16 -3 46 -5 67 -5z m498 -15 c23 -23 30 -215 8 -215 -9 0 -17 6
-20 13 -3 10 -9 10 -26 0 -30 -18 -91 -16 -113 4 -20 18 -23 54 -8 83 11 20
66 40 113 40 22 0 27 4 27 25 0 34 -31 49 -77 36 -41 -12 -48 -9 -40 13 11 29
108 30 136 1z m-2069 -100 c0 -108 -1 -115 -20 -115 -19 0 -20 7 -20 115 0
108 1 115 20 115 19 0 20 -7 20 -115z m1340 0 c0 -108 -1 -115 -20 -115 -19 0
-20 7 -20 115 0 108 1 115 20 115 19 0 20 -7 20 -115z m350 0 c0 -108 -1 -115
-20 -115 -19 0 -20 7 -20 115 0 108 1 115 20 115 19 0 20 -7 20 -115z"/>
<path d="M3200 2725 l0 -245 63 0 c119 0 180 65 193 205 14 152 -36 253 -137
274 -27 6 -66 11 -84 11 l-35 0 0 -245z"/>
<path d="M2740 1746 l0 -126 38 0 c47 0 103 28 120 60 8 15 11 47 9 78 -5 73
-33 101 -110 109 l-57 6 0 -127z"/>
<path d="M1480 1780 c-36 -36 -26 -50 35 -50 48 0 55 3 55 19 0 20 -35 51 -57
51 -7 0 -22 -9 -33 -20z"/>
<path d="M2226 1687 c-11 -8 -17 -23 -14 -38 2 -19 10 -25 36 -27 40 -4 72 20
72 55 0 20 -5 23 -38 23 -21 0 -46 -6 -56 -13z"/>
<path d="M3162 1788 c-7 -7 -12 -24 -12 -38 0 -33 17 -50 50 -50 33 0 50 17
50 50 0 33 -17 50 -50 50 -14 0 -31 -5 -38 -12z"/>
<path d="M3140 1575 c-33 -40 24 -76 91 -56 37 11 57 39 44 61 -10 16 -121 12
-135 -5z"/>
<path d="M3666 1687 c-11 -8 -17 -23 -14 -38 2 -19 10 -25 36 -27 40 -4 72 20
72 55 0 20 -5 23 -38 23 -21 0 -46 -6 -56 -13z"/>
</g>
</svg>
