<?xml version="1.0" encoding="UTF-8"?>
<svg version="1.1" xmlns="http://www.w3.org/2000/svg" width="1024" height="1024">
<path d="M0 0 C337.92 0 675.84 0 1024 0 C1024 337.92 1024 675.84 1024 1024 C686.08 1024 348.16 1024 0 1024 C0 686.08 0 348.16 0 0 Z " fill="#E2EAEC" transform="translate(0,0)"/>
<path d="M0 0 C6.47376439 4.99039804 11.91640291 11.65115766 15.57421875 18.984375 C15.57421875 19.644375 15.57421875 20.304375 15.57421875 20.984375 C16.12658203 20.84338379 16.67894531 20.70239258 17.24804688 20.55712891 C19.85437762 19.89798851 22.46419628 19.25373561 25.07421875 18.609375 C25.94175781 18.38765625 26.80929687 18.1659375 27.703125 17.9375 C38.73642803 15.23870645 49.7622841 13.83492846 61.109375 13.88671875 C62.16401443 13.88744385 62.16401443 13.88744385 63.23995972 13.88818359 C66.10310038 13.89409298 68.96369104 13.90378649 71.82592773 13.98071289 C80.42101265 14.44726991 80.42101265 14.44726991 87.95532227 11.05249023 C89.68655069 8.77330739 91.12752876 6.45014445 92.57421875 3.984375 C104.57757569 -6.82795117 117.88211162 -8.63322067 133.31445312 -8.14306641 C148.67472725 -7.27681067 162.5210616 1.88557 172.57421875 12.984375 C176.26091661 17.88441646 179.14479287 22.9576971 181.63671875 28.546875 C184.03598788 32.80364281 185.03490277 32.63257406 189.57421875 33.984375 C205.4983467 40.45082032 219.9568264 49.56856392 233.57421875 59.984375 C234.35539062 60.5721875 235.1365625 61.16 235.94140625 61.765625 C247.73786715 70.89337835 258.52732026 81.11766399 267.57421875 92.984375 C268.38246094 93.98855469 269.19070313 94.99273437 270.0234375 96.02734375 C276.33725897 103.91325217 281.60657141 112.19826122 286.57421875 120.984375 C286.91694824 121.57943848 287.25967773 122.17450195 287.61279297 122.78759766 C315.4254462 171.2899891 318.81463656 227.68438192 323.39724731 282.06787109 C326.87187148 323.18200498 333.4549706 363.29946772 341.83935547 403.66345215 C342.72753667 407.94124714 343.61173632 412.21982694 344.49054527 416.4995575 C344.89653387 418.46850411 345.30840212 420.43623547 345.72041321 422.40393066 C345.96454453 423.59127808 346.20867584 424.77862549 346.46020508 426.00195312 C346.67606766 427.04033325 346.89193024 428.07871338 347.11433411 429.14855957 C348.23522122 436.06035584 348.23522122 436.06035584 345.3359375 440.11328125 C344.32413587 441.26926587 343.2984879 442.41322923 342.26171875 443.546875 C341.72135986 444.1560376 341.18100098 444.7652002 340.62426758 445.39282227 C338.95359199 447.26852757 337.26573834 449.12746678 335.57421875 450.984375 C334.57389252 452.0960607 333.573877 453.20802609 332.57421875 454.3203125 C327.71988942 459.6914494 322.74855195 464.92145088 317.57421875 469.984375 C314.90686515 472.63821161 312.25618843 475.30658779 309.62890625 478 C302.94472379 484.8215574 296.08166258 491.06387052 288.57421875 496.984375 C287.54831177 497.84341357 286.52498512 498.70554066 285.50390625 499.5703125 C267.25051859 514.85899499 246.5472204 527.79288245 225.57421875 538.984375 C224.71618652 539.44360352 223.8581543 539.90283203 222.97412109 540.37597656 C188.49176342 558.64147863 151.91742139 570.40711321 113.57421875 577.234375 C112.30553955 577.46108887 112.30553955 577.46108887 111.01123047 577.69238281 C108.20376338 578.1664472 105.39323503 578.58440483 102.57421875 578.984375 C101.34727295 579.16242676 100.12032715 579.34047852 98.85620117 579.52392578 C84.90763379 581.39040791 70.93860961 581.38208022 56.88671875 581.359375 C54.99078476 581.35855927 54.99078476 581.35855927 53.05654907 581.35772705 C33.88252879 581.31979085 15.43307074 580.61150198 -3.42578125 576.984375 C-4.59625 576.77006836 -5.76671875 576.55576172 -6.97265625 576.33496094 C-63.83243202 565.76605781 -119.42653379 541.5425483 -164.42578125 504.984375 C-165.96685547 503.74880859 -165.96685547 503.74880859 -167.5390625 502.48828125 C-176.78191226 494.95025837 -185.1049133 486.51443128 -193.42578125 477.984375 C-191.83989972 473.50961739 -189.50605233 469.60713144 -186.98828125 465.609375 C-186.54653564 464.90458008 -186.10479004 464.19978516 -185.6496582 463.47363281 C-182.64888463 458.7505155 -179.46796979 454.21116589 -176.11328125 449.734375 C-165.83773029 435.987751 -156.76641604 421.48663055 -148.69238281 406.34863281 C-147.3371554 403.81894463 -145.9559225 401.30437659 -144.57421875 398.7890625 C-138.7754671 388.12329281 -133.90267724 377.62067397 -130.42578125 365.984375 C-130.20728516 365.27732422 -129.98878906 364.57027344 -129.76367188 363.84179688 C-124.61852606 346.95787265 -122.55918304 329.45693566 -120.42578125 311.984375 C-121.00126709 311.71608887 -121.57675293 311.44780273 -122.16967773 311.17138672 C-150.59184297 296.21753244 -171.915076 261.98315469 -183.42578125 232.984375 C-183.89628906 231.81261719 -184.36679687 230.64085937 -184.8515625 229.43359375 C-190.34637954 214.41215894 -193.14987997 197.89522085 -194.42578125 181.984375 C-195.16731445 181.88261963 -195.90884766 181.78086426 -196.67285156 181.67602539 C-207.76405625 180.07581721 -217.02204054 175.55115544 -224.42578125 166.984375 C-231.62254724 155.7335356 -233.93999625 144.16339476 -233.80078125 130.984375 C-233.81238281 129.88609375 -233.82398438 128.7878125 -233.8359375 127.65625 C-233.80986687 120.32171185 -232.73051423 113.9382747 -230.42578125 106.984375 C-230.13582275 106.10692627 -229.84586426 105.22947754 -229.54711914 104.32543945 C-227.12341241 97.31037039 -223.06394402 91.71802764 -218.42578125 85.984375 C-217.90371094 85.32308594 -217.38164062 84.66179687 -216.84375 83.98046875 C-210.70681827 77.03563715 -199.86463554 71.44366227 -190.578125 70.78125 C-188.98677734 70.75804687 -188.98677734 70.75804687 -187.36328125 70.734375 C-186.32042969 70.70859375 -185.27757812 70.6828125 -184.203125 70.65625 C-180.91599683 70.94179164 -178.4312703 71.52493823 -175.30859375 72.4765625 C-168.95084318 74.29909241 -162.94477788 74.43968244 -156.36328125 74.359375 C-154.54159424 74.3452356 -154.54159424 74.3452356 -152.68310547 74.33081055 C-128.83252196 73.94303386 -105.34866351 70.18658601 -82.69140625 62.68359375 C-80.42578125 61.984375 -80.42578125 61.984375 -78.42578125 61.984375 C-78.58433594 61.3553125 -78.74289062 60.72625 -78.90625 60.078125 C-81.86366399 42.46705823 -78.43605751 26.74529084 -68.42578125 11.984375 C-60.78331961 1.45796557 -49.58898033 -5.42952734 -37.015625 -8.62890625 C-22.92455657 -10.73300244 -11.78076678 -7.86504829 0 0 Z " fill="#9DB67B" transform="translate(466.42578125,296.015625)"/>
<path d="M0 0 C1.44516495 0.00040787 1.44516495 0.00040787 2.91952515 0.00082397 C18.57203768 0.02106213 34.05001341 0.51341818 49.625 2.1875 C50.57391113 2.28401855 51.52282227 2.38053711 52.50048828 2.47998047 C127.72445958 10.33650568 202.99427274 41.61264951 259.04296875 92.8515625 C261.13855266 94.74741603 263.25933927 96.59942481 265.3984375 98.4453125 C269.78710402 102.27917274 273.94512724 106.31544415 278.0625 110.4375 C278.80822266 111.18402832 279.55394531 111.93055664 280.32226562 112.69970703 C285.82818045 118.26693226 290.81737846 124.0048987 295.625 130.1875 C297.03997096 131.8764221 298.45670836 133.56386551 299.875 135.25 C337.00137324 180.82004494 361.58820864 235.73408445 368.625 294.1875 C368.72143799 294.94313232 368.81787598 295.69876465 368.91723633 296.47729492 C369.90080638 305.38723093 369.81107577 314.33780054 369.81030273 323.2902832 C369.81247098 326.08756156 369.8306277 328.88443263 369.84960938 331.68164062 C369.90491334 348.89350421 368.33996461 365.67649684 365.3125 382.625 C365.0944873 383.85943848 364.87647461 385.09387695 364.65185547 386.36572266 C361.27946683 405.05084072 356.46686307 423.12893754 350.625 441.1875 C350.17012207 442.60119873 350.17012207 442.60119873 349.70605469 444.04345703 C339.86300882 474.29922786 327.91408266 504.28042957 314.625 533.1875 C314.16851074 534.18797363 313.71202148 535.18844727 313.24169922 536.21923828 C303.91925041 556.53341066 292.77416079 575.10181181 280.4375 593.6875 C280.01774902 594.32062103 279.59799805 594.95374207 279.16552734 595.60604858 C273.57733481 604.01417321 267.75176336 612.16026246 261.625 620.1875 C260.40613071 621.81664588 259.18858105 623.4467803 257.97265625 625.078125 C256.87805557 626.53159006 255.78301463 627.98472368 254.6875 629.4375 C254.12482422 630.19417969 253.56214844 630.95085938 252.98242188 631.73046875 C252.44294922 632.44332031 251.90347656 633.15617188 251.34765625 633.890625 C250.87078369 634.52645508 250.39391113 635.16228516 249.90258789 635.81738281 C249.48098389 636.26952148 249.05937988 636.72166016 248.625 637.1875 C247.965 637.1875 247.305 637.1875 246.625 637.1875 C235.25304521 586.0513946 226.02361346 535.50990127 221.37487602 483.29256439 C221.1823066 481.13007699 220.9890408 478.96765266 220.79566956 476.80523682 C220.21541772 470.30723161 219.63911313 463.80902005 219.08393097 457.30881977 C214.12950334 399.50845113 203.74760031 341.14511325 165.625 295.1875 C164.9453418 294.34977051 164.9453418 294.34977051 164.25195312 293.49511719 C144.22408177 268.83803277 115.06352667 245.60789652 84.625 235.1875 C83.635 235.1875 82.645 235.1875 81.625 235.1875 C81.16351562 234.16011719 80.70203125 233.13273438 80.2265625 232.07421875 C72.02231139 214.40204376 61.06960727 203.99618722 42.5703125 197.1328125 C28.75963555 192.70020796 13.52559655 194.14354743 0.734375 200.66015625 C-4.81351963 203.82672073 -4.81351963 203.82672073 -8.92871094 208.6262207 C-11.7387516 212.93517967 -13.65014525 215.75492835 -18.78613281 217.04296875 C-22.20287566 217.24905527 -25.5238698 217.31174822 -28.9402771 217.19720459 C-32.63814829 217.0749908 -36.33574349 217.11586768 -40.03515625 217.12890625 C-41.12435112 217.12552246 -41.12435112 217.12552246 -42.23554993 217.12207031 C-54.94190871 217.11917632 -67.38963153 219.77709946 -79.72265625 222.63671875 C-82.375 223.1875 -82.375 223.1875 -85.375 223.1875 C-86.98828125 221.02734375 -86.98828125 221.02734375 -88.6875 218.125 C-95.75425286 206.65070898 -104.28625197 199.15206666 -117.3671875 194.84765625 C-131.20252902 191.8110683 -144.24442758 195.15119478 -156.05859375 202.52734375 C-168.065105 211.1323476 -176.917585 224.45497144 -179.375 239.1875 C-179.45369838 241.17188396 -179.48284044 243.15861348 -179.47265625 245.14453125 C-179.46782227 246.81225586 -179.46782227 246.81225586 -179.46289062 248.51367188 C-179.45451172 249.66416016 -179.44613281 250.81464844 -179.4375 252 C-179.43073242 253.75473633 -179.43073242 253.75473633 -179.42382812 255.54492188 C-179.4120693 258.42583358 -179.39563426 261.30664044 -179.375 264.1875 C-204.45503908 273.50843406 -230.27999598 277.24027541 -256.9375 277.5 C-258.10321533 277.51780518 -259.26893066 277.53561035 -260.4699707 277.55395508 C-267.06031296 277.54781926 -272.69196562 276.80060355 -278.99194336 274.87524414 C-289.10654651 271.95619516 -298.73840893 274.68302947 -307.7421875 279.4375 C-320.8576069 287.42474503 -328.48794276 300.61802644 -332.375 315.1875 C-336.13632431 331.65169758 -334.69857011 350.85498612 -326.5625 365.6875 C-319.25125931 376.82756998 -307.95798749 381.24509038 -295.375 384.1875 C-295.21644531 385.15945313 -295.05789063 386.13140625 -294.89453125 387.1328125 C-287.48791539 431.40876526 -272.5551774 465.83161633 -240.8125 498.0625 C-240.03318115 498.85970459 -239.2538623 499.65690918 -238.45092773 500.47827148 C-234.45321733 504.47011708 -230.59875793 507.77353094 -225.80859375 510.78515625 C-221.49373261 513.7079235 -221.49373261 513.7079235 -220.4765625 517.81640625 C-220.73566406 519.76353516 -220.73566406 519.76353516 -221 521.75 C-221.12918823 522.83921753 -221.12918823 522.83921753 -221.26098633 523.95043945 C-221.57168882 526.37565206 -221.9678678 528.7767126 -222.375 531.1875 C-222.50277832 532.03860352 -222.63055664 532.88970703 -222.76220703 533.76660156 C-225.87547559 554.47843237 -230.93009788 574.44095917 -240.375 593.1875 C-240.88144043 594.20021973 -241.38788086 595.21293945 -241.90966797 596.25634766 C-253.5936935 619.38331595 -267.72669379 640.51088978 -282.78540039 661.57226562 C-286.17791352 666.34188545 -289.21383469 671.21260164 -292.08691406 676.31420898 C-292.51198242 676.93239502 -292.93705078 677.55058105 -293.375 678.1875 C-294.035 678.1875 -294.695 678.1875 -295.375 678.1875 C-295.375 677.5275 -295.375 676.8675 -295.375 676.1875 C-296.035 676.1875 -296.695 676.1875 -297.375 676.1875 C-299.10018687 674.55973452 -300.73496464 672.89831363 -302.375 671.1875 C-303.58434743 669.98227699 -304.79718567 668.78055089 -306.01269531 667.58154297 C-309.75054916 663.87963326 -313.48200917 660.17134587 -317.21142578 656.4609375 C-318.81150206 654.87089609 -320.41337176 653.28265726 -322.01708984 651.69628906 C-330.62032044 643.1834695 -338.94093746 634.75414976 -346.375 625.1875 C-348.34908165 622.8315449 -350.36143674 620.50973471 -352.375 618.1875 C-355.98200224 614.00798501 -359.531342 609.79598809 -363 605.5 C-366.84961137 600.75772513 -370.90212671 596.23821039 -375.03515625 591.7421875 C-377.60609576 588.93518509 -380.11071172 586.07764598 -382.60546875 583.203125 C-384.62614956 580.90142236 -386.68812618 578.63985621 -388.75 576.375 C-391.95152433 572.83589998 -395.00646063 569.21646894 -398 565.5 C-400.50473231 562.40158547 -403.0089111 559.45453053 -405.875 556.6875 C-409.98866986 552.69620476 -413.51243477 548.2691216 -417.08447266 543.79443359 C-418.45447023 542.08854558 -419.84131404 540.39734764 -421.23046875 538.70703125 C-456.05351256 496.11458955 -476.57992438 445.4191867 -476.625 390.0625 C-476.62567474 389.31483368 -476.62634949 388.56716736 -476.62704468 387.79684448 C-476.53851983 325.68136055 -448.98310947 278.08549918 -406.3125 234.9375 C-405.56129883 234.1731665 -404.81009766 233.40883301 -404.03613281 232.62133789 C-402.97990723 231.56354126 -402.97990723 231.56354126 -401.90234375 230.484375 C-401.27062256 229.84854492 -400.63890137 229.21271484 -399.98803711 228.55761719 C-398.375 227.1875 -398.375 227.1875 -396.375 227.1875 C-396.375 226.5275 -396.375 225.8675 -396.375 225.1875 C-394.88390766 223.85768907 -393.32793286 222.6005127 -391.75 221.375 C-386.4357168 217.13043058 -381.44475768 212.63649572 -376.49951172 207.96948242 C-373.58782126 205.22618402 -370.64583445 202.54644357 -367.609375 199.94140625 C-362.44370422 195.44789953 -357.64137303 190.59955342 -352.8125 185.75 C-351.90564453 184.84701172 -350.99878906 183.94402344 -350.06445312 183.01367188 C-344.9582976 177.90011076 -340.05359054 172.69374556 -335.375 167.1875 C-334.36651116 166.02289535 -333.35741323 164.8588178 -332.34765625 163.6953125 C-327.96457446 158.60821622 -323.59429563 153.52525547 -319.4375 148.25 C-311.68280768 138.46393298 -303.50208397 129.08563062 -294.55859375 120.37109375 C-292.60910106 118.42160106 -290.82986672 116.42556193 -289.0625 114.3125 C-284.50176599 108.99164366 -279.2374413 104.40669541 -274.04931641 99.71337891 C-272.45989682 98.26487024 -270.88902754 96.79923088 -269.32421875 95.32421875 C-262.92284043 89.30977759 -256.26677016 83.76728939 -249.20019531 78.54150391 C-247.94472248 77.61014324 -246.69432938 76.67190839 -245.44824219 75.72802734 C-218.21137745 55.0994295 -187.52698723 38.76176439 -155.375 27.1875 C-153.75102295 26.6004126 -153.75102295 26.6004126 -152.09423828 26.00146484 C-118.91095032 14.15126611 -84.30763139 6.8335144 -49.375 2.375 C-48.4998877 2.26317383 -47.62477539 2.15134766 -46.72314453 2.03613281 C-31.1938231 0.20915382 -15.61727765 -0.01667019 0 0 Z " fill="#FCFBF8" transform="translate(567.375,93.8125)"/>
<path d="M0 0 C6.47376439 4.99039804 11.91640291 11.65115766 15.57421875 18.984375 C15.57421875 19.644375 15.57421875 20.304375 15.57421875 20.984375 C16.12658203 20.84338379 16.67894531 20.70239258 17.24804688 20.55712891 C19.85437762 19.89798851 22.46419628 19.25373561 25.07421875 18.609375 C25.94175781 18.38765625 26.80929687 18.1659375 27.703125 17.9375 C38.73642803 15.23870645 49.7622841 13.83492846 61.109375 13.88671875 C62.16401443 13.88744385 62.16401443 13.88744385 63.23995972 13.88818359 C66.10310038 13.89409298 68.96369104 13.90378649 71.82592773 13.98071289 C80.42101265 14.44726991 80.42101265 14.44726991 87.95532227 11.05249023 C89.68655069 8.77330739 91.12752876 6.45014445 92.57421875 3.984375 C104.57757569 -6.82795117 117.88211162 -8.63322067 133.31445312 -8.14306641 C148.67472725 -7.27681067 162.5210616 1.88557 172.57421875 12.984375 C176.26091661 17.88441646 179.14479287 22.9576971 181.63671875 28.546875 C184.03598788 32.80364281 185.03490277 32.63257406 189.57421875 33.984375 C205.4983467 40.45082032 219.9568264 49.56856392 233.57421875 59.984375 C234.35539062 60.5721875 235.1365625 61.16 235.94140625 61.765625 C247.73786715 70.89337835 258.52732026 81.11766399 267.57421875 92.984375 C268.38246094 93.98855469 269.19070313 94.99273437 270.0234375 96.02734375 C276.33725897 103.91325217 281.60657141 112.19826122 286.57421875 120.984375 C286.91694824 121.57943848 287.25967773 122.17450195 287.61279297 122.78759766 C315.4254462 171.2899891 318.81463656 227.68438192 323.39724731 282.06787109 C326.87187148 323.18200498 333.4549706 363.29946772 341.83935547 403.66345215 C342.72753667 407.94124714 343.61173632 412.21982694 344.49054527 416.4995575 C344.89653387 418.46850411 345.30840212 420.43623547 345.72041321 422.40393066 C345.96454453 423.59127808 346.20867584 424.77862549 346.46020508 426.00195312 C346.67606766 427.04033325 346.89193024 428.07871338 347.11433411 429.14855957 C348.23522122 436.06035584 348.23522122 436.06035584 345.3359375 440.11328125 C344.32413587 441.26926587 343.2984879 442.41322923 342.26171875 443.546875 C341.72135986 444.1560376 341.18100098 444.7652002 340.62426758 445.39282227 C338.95359199 447.26852757 337.26573834 449.12746678 335.57421875 450.984375 C334.57389252 452.0960607 333.573877 453.20802609 332.57421875 454.3203125 C327.71988942 459.6914494 322.74855195 464.92145088 317.57421875 469.984375 C314.90686515 472.63821161 312.25618843 475.30658779 309.62890625 478 C302.94472379 484.8215574 296.08166258 491.06387052 288.57421875 496.984375 C287.54831177 497.84341357 286.52498512 498.70554066 285.50390625 499.5703125 C267.25051859 514.85899499 246.5472204 527.79288245 225.57421875 538.984375 C224.71618652 539.44360352 223.8581543 539.90283203 222.97412109 540.37597656 C188.49176342 558.64147863 151.91742139 570.40711321 113.57421875 577.234375 C112.30553955 577.46108887 112.30553955 577.46108887 111.01123047 577.69238281 C108.20376338 578.1664472 105.39323503 578.58440483 102.57421875 578.984375 C101.34727295 579.16242676 100.12032715 579.34047852 98.85620117 579.52392578 C84.90763379 581.39040791 70.93860961 581.38208022 56.88671875 581.359375 C54.99078476 581.35855927 54.99078476 581.35855927 53.05654907 581.35772705 C33.88252879 581.31979085 15.43307074 580.61150198 -3.42578125 576.984375 C-4.59625 576.77006836 -5.76671875 576.55576172 -6.97265625 576.33496094 C-63.83243202 565.76605781 -119.42653379 541.5425483 -164.42578125 504.984375 C-165.96685547 503.74880859 -165.96685547 503.74880859 -167.5390625 502.48828125 C-176.78191226 494.95025837 -185.1049133 486.51443128 -193.42578125 477.984375 C-191.83989972 473.50961739 -189.50605233 469.60713144 -186.98828125 465.609375 C-186.54653564 464.90458008 -186.10479004 464.19978516 -185.6496582 463.47363281 C-182.64888463 458.7505155 -179.46796979 454.21116589 -176.11328125 449.734375 C-165.83773029 435.987751 -156.76641604 421.48663055 -148.69238281 406.34863281 C-147.3371554 403.81894463 -145.9559225 401.30437659 -144.57421875 398.7890625 C-138.7754671 388.12329281 -133.90267724 377.62067397 -130.42578125 365.984375 C-130.20728516 365.27732422 -129.98878906 364.57027344 -129.76367188 363.84179688 C-124.61852606 346.95787265 -122.55918304 329.45693566 -120.42578125 311.984375 C-121.00126709 311.71608887 -121.57675293 311.44780273 -122.16967773 311.17138672 C-150.59184297 296.21753244 -171.915076 261.98315469 -183.42578125 232.984375 C-183.89628906 231.81261719 -184.36679687 230.64085937 -184.8515625 229.43359375 C-190.34637954 214.41215894 -193.14987997 197.89522085 -194.42578125 181.984375 C-195.16731445 181.88261963 -195.90884766 181.78086426 -196.67285156 181.67602539 C-207.76405625 180.07581721 -217.02204054 175.55115544 -224.42578125 166.984375 C-231.62254724 155.7335356 -233.93999625 144.16339476 -233.80078125 130.984375 C-233.81238281 129.88609375 -233.82398438 128.7878125 -233.8359375 127.65625 C-233.80986687 120.32171185 -232.73051423 113.9382747 -230.42578125 106.984375 C-230.13582275 106.10692627 -229.84586426 105.22947754 -229.54711914 104.32543945 C-227.12341241 97.31037039 -223.06394402 91.71802764 -218.42578125 85.984375 C-217.90371094 85.32308594 -217.38164062 84.66179687 -216.84375 83.98046875 C-210.70681827 77.03563715 -199.86463554 71.44366227 -190.578125 70.78125 C-188.98677734 70.75804687 -188.98677734 70.75804687 -187.36328125 70.734375 C-186.32042969 70.70859375 -185.27757812 70.6828125 -184.203125 70.65625 C-180.91599683 70.94179164 -178.4312703 71.52493823 -175.30859375 72.4765625 C-168.95084318 74.29909241 -162.94477788 74.43968244 -156.36328125 74.359375 C-154.54159424 74.3452356 -154.54159424 74.3452356 -152.68310547 74.33081055 C-128.83252196 73.94303386 -105.34866351 70.18658601 -82.69140625 62.68359375 C-80.42578125 61.984375 -80.42578125 61.984375 -78.42578125 61.984375 C-78.58433594 61.3553125 -78.74289062 60.72625 -78.90625 60.078125 C-81.86366399 42.46705823 -78.43605751 26.74529084 -68.42578125 11.984375 C-60.78331961 1.45796557 -49.58898033 -5.42952734 -37.015625 -8.62890625 C-22.92455657 -10.73300244 -11.78076678 -7.86504829 0 0 Z M91.57421875 21.984375 C84.24056636 32.20259733 81.05031127 42.59296676 79.57421875 54.984375 C77.10546875 53.82421875 77.10546875 53.82421875 74.57421875 51.984375 C72.70371676 44.12088307 75.32652661 35.5301986 77.57421875 27.984375 C65.51784421 27.51464612 53.90270548 28.07651418 41.94921875 29.796875 C40.78938477 29.96219727 39.62955078 30.12751953 38.43457031 30.29785156 C23.99764726 32.08824589 23.99764726 32.08824589 12.48046875 39.96875 C-15.77167644 69.84191992 -64.05757911 76.444999 -102.42578125 82.984375 C-103.10141113 83.10120636 -103.77704102 83.21803772 -104.47314453 83.33840942 C-121.69303064 86.30917197 -138.67615943 88.47408941 -156.17578125 88.484375 C-156.89861298 88.48859467 -157.6214447 88.49281433 -158.36618042 88.49716187 C-160.42325241 88.50249236 -162.47832814 88.48339099 -164.53515625 88.453125 C-166.2826416 88.42895508 -166.2826416 88.42895508 -168.06542969 88.40429688 C-172.05898215 87.90524789 -174.79267355 86.69135194 -178.42578125 84.984375 C-185.69603977 82.93378926 -192.80836575 83.34093417 -199.42578125 86.984375 C-202.32647947 89.102432 -204.8855856 91.44947142 -207.42578125 93.984375 C-207.96203125 94.50902344 -208.49828125 95.03367187 -209.05078125 95.57421875 C-217.74356234 104.83293611 -222.12430274 117.75807841 -222.86328125 130.296875 C-222.42916166 140.48924795 -219.8072708 151.67437687 -212.42578125 158.984375 C-211.67361328 159.79068359 -211.67361328 159.79068359 -210.90625 160.61328125 C-202.22900847 169.03717266 -190.49597059 170.88072029 -178.91796875 171.77734375 C-178.23476437 171.83527792 -177.55155998 171.89321209 -176.84765244 171.95290184 C-160.56089334 173.33007804 -144.27743585 173.41465201 -127.94351196 173.3107872 C-125.50441299 173.2966054 -123.06535013 173.28797408 -120.6262207 173.28091431 C-40.0359701 174.13065104 -40.0359701 174.13065104 39.57421875 163.984375 C40.59016113 163.76910156 41.60610352 163.55382812 42.65283203 163.33203125 C64.68347252 158.58170585 88.47735382 152.62336773 105.57421875 136.984375 C105.57421875 136.654375 105.57421875 136.324375 105.57421875 135.984375 C104.35863281 136.06816406 103.14304687 136.15195312 101.890625 136.23828125 C100.30600754 136.34142203 98.7213711 136.44427161 97.13671875 136.546875 C96.33427734 136.60294922 95.53183594 136.65902344 94.70507812 136.71679688 C92.66359764 136.8460045 90.61875506 136.9195023 88.57421875 136.984375 C87.57421875 135.984375 87.57421875 135.984375 87.01171875 133.734375 C87.57421875 130.984375 87.57421875 130.984375 89.18359375 129.578125 C98.06335764 123.83632278 108.28901409 124.09771943 118.57421875 124.984375 C127.20990332 126.89133967 134.88505169 131.12390884 140.57421875 137.984375 C140.94921875 140.734375 140.94921875 140.734375 140.57421875 142.984375 C139.57421875 143.984375 139.57421875 143.984375 136.859375 144.23828125 C132.14729508 143.87408958 129.19493237 141.66201288 125.2578125 139.19921875 C122.66491177 137.78656195 122.66491177 137.78656195 119.94140625 138.07421875 C117.13911795 139.15166623 116.09473841 140.25328522 114.26171875 142.609375 C97.68964736 162.42534121 69.98577343 169.08341389 45.50805664 173.43823242 C44.51281982 173.61588135 43.51758301 173.79353027 42.4921875 173.9765625 C41.61328857 174.12464355 40.73438965 174.27272461 39.82885742 174.42529297 C37.31308946 174.91425171 37.31308946 174.91425171 34.57421875 176.984375 C33.39935977 179.66270451 32.3403342 182.30999392 31.32421875 185.046875 C27.57686416 194.62801969 22.91853582 202.78324165 13.703125 208.0546875 C10.01901553 209.66352797 6.50740087 209.62163273 2.57421875 208.984375 C-6.78868319 203.5827008 -9.43599496 191.70535611 -12.42578125 181.984375 C-14.40578125 181.984375 -16.38578125 181.984375 -18.42578125 181.984375 C-18.97105469 183.09554687 -19.51632812 184.20671875 -20.078125 185.3515625 C-30.99366367 207.08489604 -30.99366367 207.08489604 -42.42578125 211.984375 C-46.07091715 212.36807352 -48.60077884 212.27901872 -52.05078125 211.046875 C-58.53795563 205.4132762 -60.56551036 197.07579718 -62.42578125 188.984375 C-64.81379954 191.37239329 -65.46939191 193.39819882 -66.67578125 196.546875 C-69.77629014 204.14312177 -73.35399553 211.39727075 -80.42578125 215.984375 C-84.07576431 217.20103602 -87.64376582 217.73939273 -91.42578125 216.984375 C-101.47256606 210.37826992 -103.8639102 197.01549033 -106.42578125 185.984375 C-107.41578125 185.984375 -108.40578125 185.984375 -109.42578125 185.984375 C-109.71710938 186.58386963 -110.0084375 187.18336426 -110.30859375 187.80102539 C-111.66230452 190.5592643 -113.04369194 193.30275308 -114.42578125 196.046875 C-114.88339844 196.98982422 -115.34101563 197.93277344 -115.8125 198.90429688 C-119.00714495 205.18418112 -122.47965168 210.05098746 -128.42578125 213.984375 C-131.55078125 214.734375 -131.55078125 214.734375 -134.42578125 213.984375 C-139.27144753 210.54427285 -141.77043551 207.22524497 -144.11328125 201.734375 C-144.53577148 200.80818359 -144.53577148 200.80818359 -144.96679688 199.86328125 C-147.13056793 195.01603431 -148.81716328 190.03940786 -150.42578125 184.984375 C-154.48768968 184.47948985 -158.55039476 183.9813231 -162.61328125 183.484375 C-163.76376953 183.34128906 -164.91425781 183.19820312 -166.09960938 183.05078125 C-167.76733398 182.84775391 -167.76733398 182.84775391 -169.46875 182.640625 C-170.4899292 182.51494141 -171.5111084 182.38925781 -172.56323242 182.25976562 C-175.20719186 182.00540432 -177.77200115 181.93321779 -180.42578125 181.984375 C-176.62400674 218.41331881 -163.75486531 249.34290316 -138.42578125 275.984375 C-137.2732083 277.33281002 -136.12682421 278.68657308 -134.98828125 280.046875 C-121.77677849 295.12821922 -105.06218103 305.83463344 -87.42578125 314.984375 C-86.80799805 315.31421387 -86.19021484 315.64405273 -85.55371094 315.98388672 C-76.1578725 320.96842331 -66.5640601 323.89208118 -56.28466797 326.50073242 C-55.28193848 326.76732666 -54.27920898 327.0339209 -53.24609375 327.30859375 C-52.34133301 327.53635498 -51.43657227 327.76411621 -50.50439453 327.9987793 C-48.42578125 328.984375 -48.42578125 328.984375 -47.62451172 331.08911133 C-47.52614014 332.02726685 -47.52614014 332.02726685 -47.42578125 332.984375 C-65.18291846 338.90342074 -84.61546228 329.25229941 -100.42578125 321.984375 C-102.75332343 320.97009462 -105.08836853 319.97582255 -107.42578125 318.984375 C-107.60536377 320.08144775 -107.60536377 320.08144775 -107.78857422 321.20068359 C-110.68752761 338.77120359 -114.15170385 356.16868484 -118.30078125 373.484375 C-125.14721367 402.13543458 -130.70956009 430.88965887 -135.12438965 460.015625 C-135.40062834 461.82007118 -135.68664287 463.62301376 -135.97363281 465.42578125 C-136.85841024 470.99125994 -137.60718093 476.53756133 -138.13134766 482.14892578 C-138.34315717 484.18869 -138.60402641 486.22357683 -138.89599609 488.25341797 C-140.52047513 499.73605179 -140.52047513 499.73605179 -138.42578125 510.984375 C-133.56066675 516.89738024 -126.34732654 519.73155839 -119.45214844 522.65917969 C-115.77161829 524.27082196 -112.33686419 526.19258633 -108.84204102 528.16674805 C-78.06056836 545.30529477 -43.71354872 555.72641898 -9.42578125 562.984375 C-8.62092285 563.16194336 -7.81606445 563.33951172 -6.98681641 563.52246094 C73.28068149 581.10756648 167.07789945 563.20681225 236.57421875 519.984375 C237.37311523 519.49533691 238.17201172 519.00629883 238.99511719 518.50244141 C260.57008488 505.26130314 279.89344607 490.02029977 298.57421875 472.984375 C299.4146875 472.23671875 300.25515625 471.4890625 301.12109375 470.71875 C307.67121086 464.83474649 313.99488054 458.72317279 320.25619507 452.53356934 C321.67962823 451.12870989 323.10991387 449.7308045 324.5402832 448.33300781 C325.42031006 447.45741211 326.30033691 446.58181641 327.20703125 445.6796875 C327.99996582 444.89609863 328.79290039 444.11250977 329.60986328 443.30517578 C332.34145766 440.07791551 333.61190498 437.61699093 333.51342773 433.35083008 C333.36719971 432.41134521 333.22097168 431.47186035 333.0703125 430.50390625 C332.82873413 428.90131958 332.82873413 428.90131958 332.58227539 427.26635742 C332.29984985 425.54896362 332.29984985 425.54896362 332.01171875 423.796875 C331.82407959 422.60231689 331.63644043 421.40775879 331.44311523 420.17700195 C329.03141366 405.12636247 326.32619173 390.10516241 322.74804688 375.28491211 C313.19805612 335.44116075 309.77282521 293.99192984 306.39794922 253.25488281 C304.13007309 225.96511549 300.49821832 198.26491939 292.57421875 171.984375 C292.23124756 170.83702881 291.88827637 169.68968262 291.53491211 168.50756836 C288.63201952 159.28194528 284.8090221 150.94074276 280.26171875 142.421875 C279.62859585 141.21209121 278.99643346 140.00180427 278.36523438 138.79101562 C269.02938224 120.96891061 258.94286749 105.06531425 244.99072266 90.46826172 C244.04752587 89.48019725 243.10965985 88.48701607 242.17724609 87.48876953 C226.76832659 71.01864444 206.97778598 57.57890959 186.57421875 47.984375 C185.91421875 47.984375 185.25421875 47.984375 184.57421875 47.984375 C184.42726563 49.56025391 184.42726563 49.56025391 184.27734375 51.16796875 C182.55535308 67.98541021 182.55535308 67.98541021 178.57421875 72.984375 C175.51171875 74.171875 175.51171875 74.171875 172.57421875 73.984375 C171.58421875 73.324375 170.59421875 72.664375 169.57421875 71.984375 C169.86441215 70.65072024 170.15647767 69.31747285 170.44921875 67.984375 C170.71992187 66.74107422 170.71992187 66.74107422 170.99609375 65.47265625 C171.48846398 63.35346817 172.08347611 61.25855839 172.69921875 59.171875 C175.49663198 47.87032557 173.53793827 35.69308525 167.76171875 25.671875 C166.726452 24.09119943 165.66535396 22.52701444 164.57421875 20.984375 C163.91292969 20.02917969 163.91292969 20.02917969 163.23828125 19.0546875 C156.27471098 9.99802096 145.53115644 5.20733115 134.57421875 2.984375 C117.08586755 0.80114454 102.64905267 9.04980482 91.57421875 21.984375 Z " fill="#2A2C28" transform="translate(466.42578125,296.015625)"/>
<path d="M0 0 C0.91145833 1.69270833 1.82291667 3.38541667 2.734375 5.078125 C3.98238715 7.11994922 3.98238715 7.11994922 5.9921875 8.95703125 C28.12722389 31.4796461 27.9380566 90.85672982 30.5798645 120.11773682 C31.19588773 126.91254816 31.84316784 133.70436596 32.4921875 140.49609375 C32.55625605 141.16808807 32.62032459 141.8400824 32.68633461 142.53244019 C35.77310981 174.84677755 39.8441232 206.78461102 46.97558594 238.48193359 C49.15636879 248.35669528 50.95239576 258.29992464 52.75 268.25 C52.90474792 269.09760895 53.05949585 269.9452179 53.21893311 270.81851196 C54.19971187 276.20417468 55.12942503 281.59544365 56 287 C56.18699463 288.12704346 56.37398926 289.25408691 56.56665039 290.4152832 C57.1676652 294.88173656 57.41963746 297.17553582 55.33984375 301.26171875 C54.54707031 302.06222656 53.75429688 302.86273437 52.9375 303.6875 C51.77541016 304.93080078 51.77541016 304.93080078 50.58984375 306.19921875 C47.31262254 308.47795024 45.92907147 308.62903854 42 308 C39.28792452 306.96958066 36.82168914 305.63762953 34.3125 304.1875 C33.61278076 303.78515137 32.91306152 303.38280273 32.19213867 302.96826172 C21.7113622 296.68436157 13.90766937 288.79405665 10 277 C9.75765625 276.3090625 9.5153125 275.618125 9.265625 274.90625 C4.92129068 259.64237267 8.36419931 243.08686964 15.25 229.25 C18.10058131 223.36072796 19.21675518 218.48936097 18 212 C14.57655903 202.4361014 4.24228991 195.40708973 -3.625 189.5 C-12.13032889 182.89775675 -16.68122599 175.58724217 -19 165 C-20.47696663 145.90013612 -16.4641935 131.9547059 -7.30761719 115.39550781 C-5.26806869 111.65912808 -3.34403464 107.86805802 -1.4375 104.0625 C-1.10339111 103.40660889 -0.76928223 102.75071777 -0.42504883 102.07495117 C2.96401405 95.31731122 4.39748753 89.05245491 2.33984375 81.61328125 C-0.73497914 74.35295799 -6.11791465 69.921353 -11.890625 64.828125 C-18.41454158 59.01958425 -22.5286128 53.1907404 -23.3359375 44.30078125 C-23.42028741 35.6886555 -22.84605134 28.87309333 -19 21 C-18.21882812 19.37578125 -18.21882812 19.37578125 -17.421875 17.71875 C-8.04350437 -0.70003195 -8.04350437 -0.70003195 0 0 Z " fill="#7F975C" transform="translate(743,436)"/>
<path d="M0 0 C9.1222549 8.13796535 14.14976087 19.71379452 15.25 31.73046875 C15.83708746 45.61875644 11.09510176 57.89131228 2.00390625 68.28125 C-3.78342204 73.97300773 -10.32965784 76.60751041 -18 79 C-18.95712891 79.30164063 -18.95712891 79.30164063 -19.93359375 79.609375 C-34.61843028 82.38533654 -51.73525289 78.98081461 -64.0390625 70.61328125 C-70.895515 65.31044439 -75.21030957 57.46506938 -77 49 C-78.02486152 37.35549751 -78.08181497 26.29230226 -72 16 C-71.56558594 15.21882813 -71.13117187 14.43765625 -70.68359375 13.6328125 C-63.49467114 1.79464364 -53.26038789 -6.35836798 -40 -10.375 C-25.36885575 -13.27106154 -11.62012762 -9.08347054 0 0 Z " fill="#FBFAF7" transform="translate(625,310)"/>
<path d="M0 0 C3.53571429 0.53571429 3.53571429 0.53571429 5 2 C4.87943229 6.75778748 4.2321219 11.46751908 3 16.0625 C-0.68480239 30.00425231 0.37330242 44.6280491 3 58.625 C7.67655976 84.10010511 5.51218155 106.61330951 -8.69921875 128.6328125 C-13.81510886 135.41567804 -20.1289687 141.26747398 -26.18530273 147.20092773 C-26.90532471 147.90677002 -27.62534668 148.6126123 -28.3671875 149.33984375 C-29.34341064 150.28911743 -29.34341064 150.28911743 -30.33935547 151.25756836 C-32.66280107 153.69544417 -33.96575159 155.26365914 -34.125 158.6875 C-34.063125 159.8321875 -34.063125 159.8321875 -34 161 C-28.27767559 161.6602682 -25.14089792 160.77003523 -20.0625 158 C-14.60246122 155.05518213 -11.14372233 154.29498268 -5 155 C-4.67 155.33 -4.34 155.66 -4 156 C-4.06465325 157.58694341 -4.20216967 159.1711716 -4.375 160.75 C-4.47425781 161.66007813 -4.57351563 162.57015625 -4.67578125 163.5078125 C-5 166 -5 166 -5.5625 168.625 C-6.39047763 173.11973568 -6.92942545 177.45095758 -4.5 181.5 C-4.005 181.995 -3.51 182.49 -3 183 C3.98940011 182.85128936 8.08962642 179.82839739 13 175 C16.18839615 171.1258172 19.08978383 167.08431867 22 163 C25.66044143 158.07640068 25.66044143 158.07640068 28.5 157.4375 C31.84845499 158.19090237 32.91244905 159.28398634 35 162 C35.35546875 165.41796875 35.35546875 165.41796875 35.1875 169.1875 C35.1009998 171.45754581 35.03232354 173.72853671 35 176 C35.33 176.33 35.66 176.66 36 177 C44.13712532 177 48.89959769 172.06573327 54.4453125 166.58203125 C87.06285043 131.97063128 98.41942074 87.1080575 99.55224609 40.73632812 C99.60381023 38.67565494 99.660995 36.61519502 99.71875 34.5546875 C99.74904297 33.34280762 99.77933594 32.13092773 99.81054688 30.88232422 C100 28 100 28 101 26 C102.65 26 104.3 26 106 26 C117.39507222 44.12852399 111.9136466 76.70017853 107.59423828 96.45361328 C106.11470254 102.79361238 104.30633264 108.90533 102 115 C101.72704102 115.72960937 101.45408203 116.45921875 101.17285156 117.2109375 C91.56850336 142.42633124 74.13060099 175.18588315 48.73046875 187.59765625 C37.49263373 192.20837942 37.49263373 192.20837942 32 191 C28.74353334 188.83996466 25.76672635 186.53345271 24 183 C20.89394886 184.37895018 18.84348141 185.99500111 16.4375 188.375 C10.19962178 193.92879864 2.33141416 196.85402006 -6.06640625 196.375 C-9.99501395 195.6130882 -11.87519184 193.55185397 -14.15234375 190.41015625 C-17.74226953 184.36732745 -17.79021132 177.88106862 -18 171 C-18.65484375 171.2165625 -19.3096875 171.433125 -19.984375 171.65625 C-28.17152629 174.15402497 -36.5928864 176.05158737 -44.625 172.3125 C-47.72967328 169.28952865 -48.83489794 167.4036918 -49.1328125 163.06640625 C-48.82676019 153.52777605 -42.42375033 145.94082531 -35.7421875 139.66015625 C-33.28278449 137.31655472 -31.08350697 134.78869429 -28.8828125 132.203125 C-27.55253255 130.64653186 -26.1896334 129.11753673 -24.8046875 127.609375 C-12.89421717 114.12430012 -8.02006258 98.08224206 -8.82568359 80.23876953 C-9.15382369 76.02442121 -9.85623483 71.86301169 -10.5 67.6875 C-13.89747108 44.99923586 -14.22590727 22.19021257 -2 2 C-1.34 1.34 -0.68 0.68 0 0 Z " fill="#2B2E28" transform="translate(600,647)"/>
<path d="M0 0 C7.41023247 5.8945031 12.55996977 12.06761518 15.75 21.1875 C15.46351243 25.5484774 12.60304789 27.69451681 9.59765625 30.5703125 C4.32246377 35.1875 4.32246377 35.1875 0.75 35.1875 C0.57984375 34.53523438 0.4096875 33.88296875 0.234375 33.2109375 C-1.6234307 26.51097865 -3.24375174 21.19166551 -9.25 17.1875 C-13.9971701 16.32848827 -17.38411992 16.68104184 -21.5625 19.125 C-26.7301775 24.27828286 -28.48239106 30.2007994 -28.5625 37.375 C-28.46019836 41.3970697 -27.97107158 45.23039985 -27.25 49.1875 C-36.9435264 52.26433581 -46.15901135 54.11338916 -56.25 55.1875 C-60.48748744 42.37414513 -60.69333409 30.04202314 -55.06640625 17.5625 C-48.7609376 6.13048885 -39.75105046 -1.66013787 -27.24609375 -5.4140625 C-17.30701114 -7.39798897 -8.67589726 -4.83848116 0 0 Z " fill="#FAFAF7" transform="translate(456.25,304.8125)"/>
<path d="M0 0 C2.16231972 -0.07790819 4.32348432 -0.12750505 6.48681641 -0.16748047 C8.45134766 -0.20615234 8.45134766 -0.20615234 10.45556641 -0.24560547 C14.18882162 0.10128993 16.03966923 0.81717506 18.98681641 3.08251953 C21.0638946 7.23667592 20.33569714 12.54707001 19.98681641 17.08251953 C18.07014974 21.9991862 18.07014974 21.9991862 15.98681641 24.08251953 C14.07437946 24.32402636 12.15419378 24.50440797 10.23291016 24.66064453 C9.0010498 24.76699219 7.76918945 24.87333984 6.5 24.98291016 C5.83667664 25.03938721 5.17335327 25.09586426 4.4899292 25.15405273 C-7.78840302 26.21488787 -19.96415343 27.665338 -32.13818359 29.58251953 C-33.43312744 29.78393555 -34.72807129 29.98535156 -36.06225586 30.19287109 C-43.22179539 31.34788971 -50.25636841 32.75499322 -57.2956543 34.50195312 C-61.15767639 35.32702621 -63.29827287 35.5052513 -67.01318359 34.08251953 C-70.99248207 29.08288811 -71.72405743 25.37883066 -71.01318359 19.08251953 C-69.6399658 14.86477916 -67.31249044 13.53481644 -63.52490234 11.60205078 C-58.35856761 9.09074109 -53.30586644 7.6289501 -47.70068359 6.45751953 C-46.28541382 6.14959473 -46.28541382 6.14959473 -44.84155273 5.83544922 C-30.07848678 2.71917003 -15.07946529 0.61810081 0 0 Z " fill="#373D2F" transform="translate(461.01318359375,234.91748046875)"/>
<path d="M0 0 C0.76779785 0.01772461 1.5355957 0.03544922 2.32666016 0.05371094 C20.78998805 0.69522418 39.42652703 3.11044881 57.375 7.5 C58.14537598 7.68820313 58.91575195 7.87640625 59.70947266 8.0703125 C72.30660769 11.26552747 72.30660769 11.26552747 75.8125 15.31640625 C78.2354946 20.25325775 77.61198211 24.25679197 76.375 29.5 C74.53691561 32.90385999 73.5791751 34.13515574 69.88671875 35.25390625 C64.95492313 35.59951595 60.65893037 34.4430465 55.875 33.3125 C37.37992867 29.20440472 18.36743151 26.32860723 -0.59375 25.7734375 C-4.84513457 25.38993631 -8.26353814 24.74896819 -11.46875 21.80859375 C-13.05304895 18.6453482 -13.09488769 16.08940382 -13.125 12.5625 C-13.1559375 11.35722656 -13.186875 10.15195313 -13.21875 8.91015625 C-11.89809769 1.32509395 -7.00164254 -0.30090751 0 0 Z " fill="#383E2F" transform="translate(566.625,235.5)"/>
<path d="M0 0 C5.49908515 1.84762256 8.98232775 7.00476659 11.58203125 11.98828125 C15.28609655 21.25739151 16.23759289 32.87390942 12.828125 42.32421875 C10.19514599 48.07569062 6.26131295 51.32256476 0.453125 53.82421875 C-4.0656947 54.53079783 -7.63464326 54.24524878 -11.796875 52.32421875 C-18.4322485 46.29206102 -21.01276619 39.38125671 -21.73046875 30.5703125 C-21.9770711 22.22935068 -20.33118079 13.78852931 -15.546875 6.82421875 C-10.68360738 1.81951381 -7.10109032 -0.8819096 0 0 Z " fill="#7E965A" transform="translate(708.546875,505.17578125)"/>
<path d="M0 0 C2.38782593 1.95152718 4.53405009 4.10789715 6.6875 6.3125 C7.30326904 6.93769531 7.91903809 7.56289063 8.5534668 8.20703125 C14.25453596 14.0943032 19.306815 20.27976685 24 27 C24.4115332 27.58845703 24.82306641 28.17691406 25.24707031 28.78320312 C29.91024436 35.53776197 33.91920196 41.98057399 36 50 C36.65726975 52.00310781 37.32228457 54.00371689 38 56 C19.95034855 50.13386328 -2.77477621 41.65165777 -11.9375 23.8125 C-14.4046327 17.88157834 -15.00071612 12.34713465 -14 6 C-12.25599061 2.25360945 -11.04621421 0.64382413 -7.5625 -1.5 C-4.19418156 -2.15723287 -3.05854992 -1.58126165 0 0 Z " fill="#7F975B" transform="translate(704,379)"/>
<path d="M0 0 C6.5749994 3.15599971 9.44468515 8.51905724 12.3125 14.9375 C14.34370808 23.98560873 12.60113599 32.31795522 8.125 40.375 C5.49022562 43.6297213 2.75697895 46.12151053 -1 48 C-5.5384146 48.37820122 -8.04914234 48.44746243 -12.1875 46.5 C-17.66921671 41.62736292 -20.67709614 36.2030437 -21.23828125 28.8984375 C-21.4350267 19.55820623 -20.1523187 12.93863263 -15.125 5.0625 C-10.58710705 0.65807449 -6.27431105 -0.78428888 0 0 Z " fill="#292A27" transform="translate(603,323)"/>
<path d="M0 0 C7.05536816 0.12598872 11.74205512 2.29985449 17 7 C23.85899728 14.92961264 27.53183621 21.79411403 27.31640625 32.37890625 C26.86208009 36.14252169 25.51841713 38.20932156 23 41 C22.319375 41.78375 21.63875 42.5675 20.9375 43.375 C16.3431283 45.91656732 12.11871614 45.92740784 7 45 C-0.66089642 41.52373707 -5.34502807 34.13742981 -8.375 26.5625 C-9.6862767 19.08822283 -9.85247012 12.77503366 -6 6 C-3.375 3.125 -3.375 3.125 -1 1 C-0.67 0.67 -0.34 0.34 0 0 Z " fill="#7E965A" transform="translate(681,419)"/>
<path d="M0 0 C1.25765211 3.77295633 0.63990157 5.87931853 -0.109375 9.78125 C-0.37114664 11.18158513 -0.63260799 12.5819783 -0.89379883 13.98242188 C-1.03379303 14.71904053 -1.17378723 15.45565918 -1.31802368 16.21459961 C-5.43609964 38.00156339 -8.15956452 59.82989174 -9 82 C-19.178115 75.37308133 -28.11193183 67.23478657 -37 59 C-33.61913808 52.8687906 -30.13335369 47.01933866 -25.8125 41.5 C-19.98794115 33.92906575 -15.28551903 25.70874886 -10.45898438 17.47998047 C-8.24784254 13.72148335 -5.99894211 9.98595501 -3.75 6.25 C-3.01542041 5.02616444 -2.28102254 3.80221978 -1.546875 2.578125 C-0.78117187 1.30195312 -0.78117187 1.30195312 0 0 Z " fill="#829A5F" transform="translate(325,716)"/>
<path d="M0 0 C5.75946299 1.50705948 9.7620179 6.27402625 12.71875 11.23828125 C16.11102927 18.28378436 17.20738442 23.75527422 16.34375 31.61328125 C14.65625 35.11328125 14.65625 35.11328125 12.34375 37.61328125 C11.621875 38.39703125 10.9 39.18078125 10.15625 39.98828125 C6.1229524 42.31863097 2.89000757 42.455743 -1.65625 41.61328125 C-6.80912575 39.77889436 -9.93003239 36.81524083 -12.65625 32.11328125 C-15.86537857 24.84937536 -15.92805063 16.64755487 -13.46875 9.11328125 C-10.19261123 2.78694432 -7.2955444 -0.42557342 0 0 Z " fill="#7E965A" transform="translate(677.65625,560.38671875)"/>
<path d="M0 0 C6.54368196 3.20506872 10.92022002 9.12594634 13.875 15.6875 C16.07572901 22.30278661 15.99296941 29.91076185 13.875 36.5 C10.86076548 40.51897937 8.16076146 43.59485723 3 44.5625 C-2.68843942 43.49591761 -5.87659836 40.4991867 -9.1875 35.9375 C-13.73697752 28.67744138 -15.83847811 20.52452749 -15 12 C-13.99497751 7.75397474 -12.68422132 4.76024591 -9.75 1.5 C-6.15325313 -0.46186193 -4.04963527 -0.56836986 0 0 Z " fill="#7E965A" transform="translate(725,630)"/>
<path d="M0 0 C2.83119602 2.12339702 3.87407119 3.28805605 4.49609375 6.8046875 C4.29596413 17.29147982 4.29596413 17.29147982 1 22 C0.46375 22.78375 -0.0725 23.5675 -0.625 24.375 C-3.77343907 26.52919515 -6.12090502 26.55897446 -9.875 26.3984375 C-12.93145998 25.82535125 -14.23616845 24.49876136 -16 22 C-17.92409938 18.15180123 -17.60873619 13.83282527 -16.28125 9.8359375 C-12.68551926 2.09351729 -8.60615837 -1.09284551 0 0 Z " fill="#2B2E28" transform="translate(351,408)"/>
<path d="M0 0 C-0.52425454 8.21332106 -4.50170373 14.95187411 -10 21 C-13.24153166 23.1610211 -14.23692901 23.64247553 -18 23 C-22.16617896 19.07188841 -23.81788339 14.46021558 -24.1171875 8.7734375 C-24.12398914 6.84857395 -24.06749796 4.92369175 -24 3 C-22.125 2.6875 -20.25 2.375 -18.375 2.0625 C-17.33085937 1.88847656 -16.28671875 1.71445312 -15.2109375 1.53515625 C-13.62152344 1.27025391 -13.62152344 1.27025391 -12 1 C-10.948125 0.814375 -9.89625 0.62875 -8.8125 0.4375 C-5.83399234 -0.02582341 -3.00946372 -0.0716539 0 0 Z " fill="#F9F8F6" transform="translate(490,474)"/>
<path d="M0 0 C0.84755859 0.00322266 1.69511719 0.00644531 2.56835938 0.00976562 C3.8899707 0.02233398 3.8899707 0.02233398 5.23828125 0.03515625 C6.57729492 0.04192383 6.57729492 0.04192383 7.94335938 0.04882812 C10.14590112 0.06060642 12.34830724 0.07705461 14.55078125 0.09765625 C13.38591289 5.21753005 12.03981481 9.68821357 9.67578125 14.41015625 C9.18335938 15.41691406 8.6909375 16.42367188 8.18359375 17.4609375 C6.53038872 20.13058677 5.25075922 21.53027341 2.55078125 23.09765625 C-0.48938311 23.0235059 -1.89990317 22.60628178 -4.13671875 20.53515625 C-7.50186607 14.28559693 -7.73791755 8.02642737 -7.44921875 1.09765625 C-4.6251011 0.1562837 -2.92003843 -0.01959757 0 0 Z " fill="#F6F5F3" transform="translate(379.44921875,480.90234375)"/>
<path d="M0 0 C-2.03170341 6.32085504 -4.74902068 10.91681838 -9 16 C-9.680625 16.825 -10.36125 17.65 -11.0625 18.5 C-13 20 -13 20 -15.5 20.625 C-18 20 -18 20 -20.1875 17.4375 C-23.12253645 11.87105155 -24.10517797 7.24055935 -24 1 C-21.31264212 0.83071761 -18.62515116 0.6645047 -15.9375 0.5 C-14.80924805 0.42845703 -14.80924805 0.42845703 -13.65820312 0.35546875 C-9.09508249 0.07891598 -4.57143477 -0.0485677 0 0 Z " fill="#F8F8F5" transform="translate(437,479)"/>
<path d="M0 0 C4.31507216 0.89897337 6.69292285 2.88223046 9.3125 6.375 C10.79861597 11.23865226 10.72210925 15.1179894 8.5625 19.625 C5.31733378 22.15781266 3.23883639 22.36064927 -0.8046875 22.09375 C-3 21.625 -3 21.625 -6.0625 19.75 C-8.79857117 15.33698199 -9.00072598 11.68512249 -8 6.625 C-6.2397653 2.84347884 -4.19038376 0.87299662 0 0 Z " fill="#2C2F29" transform="translate(273,401.375)"/>
<path d="M0 0 C3.95046118 0.67304153 7.50039863 1.84612081 11.25 3.25 C17.5898088 5.56698521 23.97889615 7.51960549 30.48925781 9.29980469 C35.78884154 10.78884154 35.78884154 10.78884154 38 13 C37.8125 15.0625 37.8125 15.0625 37 17 C25.15222385 20.94925872 11.2044872 17.48723395 0 13 C-0.33 12.34 -0.66 11.68 -1 11 C1.31 11.33 3.62 11.66 6 12 C6.99 10.02 7.98 8.04 9 6 C6.03 4.35 3.06 2.7 0 1 C0 0.67 0 0.34 0 0 Z " fill="#232621" transform="translate(382,613)"/>
<path d="M0 0 C2.56995074 1.28497537 2.90434463 2.49912373 4.125 5.0625 C4.47820312 5.79597656 4.83140625 6.52945312 5.1953125 7.28515625 C5.46085937 7.85105469 5.72640625 8.41695313 6 9 C8.20152247 9.50753344 8.20152247 9.50753344 11 9 C13.53572282 7.20822891 15.77174488 5.15761879 18 3 C17.67 4.32 17.34 5.64 17 7 C18.32 7 19.64 7 21 7 C21.99 7.33 22.98 7.66 24 8 C22.64891639 11.09010211 21.20982067 12.96910153 18.625 15.125 C18.03976562 15.62257813 17.45453125 16.12015625 16.8515625 16.6328125 C12.55261448 19.80714121 9.3925697 20.55785204 4 20 C-1.36254882 17.3712996 -3.59742058 14.28567472 -6 9 C-5.00102287 6.00306862 -4.34869747 4.97290587 -2 3 C-1.34 3 -0.68 3 0 3 C0 2.01 0 1.02 0 0 Z " fill="#242723" transform="translate(413,489)"/>
<path d="M0 0 C6.6 0 13.2 0 20 0 C18.5907962 7.046019 15.45859182 12.75519878 10.125 17.625 C9.073125 18.305625 9.073125 18.305625 8 19 C3.28448376 14.11607246 0 6.8398042 0 0 Z " fill="#F9F9F7" transform="translate(326,482)"/>
<path d="M0 0 C9.57 0 19.14 0 29 0 C29 0.33 29 0.66 29 1 C39.53708724 2.03524294 49.97429033 2.1311986 60.55078125 2.09765625 C62.30340026 2.09578656 64.0560198 2.09436527 65.80863953 2.09336853 C70.37712091 2.08958668 74.94556949 2.07979444 79.51403809 2.06866455 C84.193599 2.05835625 88.87316533 2.05385091 93.55273438 2.04882812 C102.70183717 2.03816741 111.85091584 2.02114436 121 2 C121 2.33 121 2.66 121 3 C103.86364419 4.26881326 86.69704168 4.22138231 69.52416992 4.24023438 C66.14547892 4.24461165 62.76704433 4.25850168 59.38842773 4.28125 C39.35478907 4.41356203 19.85089501 4.03250333 0 1 C0 0.67 0 0.34 0 0 Z " fill="#B0C497" transform="translate(279,465)"/>
<path d="M0 0 C2.40972511 2.40972511 3.50946607 4.95412632 5 8 C5.33 8.33 5.66 8.66 6 9 C8.81643589 8.99095847 11.6200401 8.86690826 14.43359375 8.7421875 C15.70396484 8.86980469 15.70396484 8.86980469 17 9 C17.99 10.485 17.99 10.485 19 12 C20.65 10.68 22.3 9.36 24 8 C22.23520078 12.76495789 18.37031118 15.61731848 14.078125 18.12109375 C10.43243316 19.6629747 6.87136064 19.68868764 3 19 C0.55107009 17.5685481 -0.9942314 16.05719856 -3 14 C-2.67 13.34 -2.34 12.68 -2 12 C-1.1646875 12.99 -1.1646875 12.99 -0.3125 14 C1.84062308 16.25492211 1.84062308 16.25492211 4.75 16.25 C5.86375 16.12625 5.86375 16.12625 7 16 C7 14.68 7 13.36 7 12 C5.36739286 10.62517293 3.69774938 9.29352333 2 8 C-0.00796384 4.94024557 0 3.85514114 0 0 Z " fill="#1D201C" transform="translate(466,487)"/>
<path d="M0 0 C0.33 0 0.66 0 1 0 C1.33 1.98 1.66 3.96 2 6 C2.33 5.34 2.66 4.68 3 4 C3.99 3.67 4.98 3.34 6 3 C6.66 2.01 7.32 1.02 8 0 C7.34 5.94 6.68 11.88 6 18 C1 16 1 16 -1 14 C-1.23046875 11.25 -1.23046875 11.25 -1.1875 8 C-1.18105469 6.9275 -1.17460938 5.855 -1.16796875 4.75 C-1 2 -1 2 0 0 Z " fill="#20211D" transform="translate(541,334)"/>
<path d="M0 0 C9.57 0 19.14 0 29 0 C29 0.33 29 0.66 29 1 C35.27 1.66 41.54 2.32 48 3 C48 3.33 48 3.66 48 4 C31.76478231 4.43922934 16.08775737 3.17433385 0 1 C0 0.67 0 0.34 0 0 Z " fill="#A7BE8B" transform="translate(279,465)"/>
<path d="M0 0 C-3.74584493 0.99552963 -7.49727261 1.96826722 -11.25 2.9375 C-12.81621094 3.35418945 -12.81621094 3.35418945 -14.4140625 3.77929688 C-21.61403473 5.6237342 -28.57822059 6.62125285 -36 7 C-32.48375245 5.05841983 -30.0284349 4.81688932 -26 5 C-26 4.34 -26 3.68 -26 3 C-25.01 3 -24.02 3 -23 3 C-23 2.34 -23 1.68 -23 1 C-22.29875 1.02320313 -21.5975 1.04640625 -20.875 1.0703125 C-16.26118569 1.15807527 -12.02799081 1.19526584 -7.5625 -0.0625 C-4.12934226 -0.96596256 -3.18604249 -1.00132764 0 0 Z " fill="#AFC790" transform="translate(618,852)"/>
<path d="M0 0 C7.42857143 1 7.42857143 1 11 2 C10.67 3.32 10.34 4.64 10 6 C5.05 6 0.1 6 -5 6 C-4.01 5.67 -3.02 5.34 -2 5 C-0.78130071 2.49552484 -0.78130071 2.49552484 0 0 Z " fill="#2E2F2C" transform="translate(409,624)"/>
<path d="M0 0 C4.875 3.625 4.875 3.625 6 7 C4.625 8.5 4.625 8.5 3 10 C2.34 10 1.68 10 1 10 C0.67 9.01 0.34 8.02 0 7 C-0.59167969 7.62648438 -1.18335938 8.25296875 -1.79296875 8.8984375 C-2.58316406 9.71570313 -3.37335937 10.53296875 -4.1875 11.375 C-4.96480469 12.18710937 -5.74210938 12.99921875 -6.54296875 13.8359375 C-8.987055 15.98859852 -10.92616557 17.00632706 -14 18 C-12.948125 16.9790625 -12.948125 16.9790625 -11.875 15.9375 C-7.00902893 11.04388137 -2.80668908 6.39301403 0 0 Z " fill="#96AE75" transform="translate(634,366)"/>
<path d="M0 0 C-1.87144695 0.82065069 -3.74734336 1.6311584 -5.625 2.4375 C-6.66914062 2.88996094 -7.71328125 3.34242188 -8.7890625 3.80859375 C-11.88685251 4.95801705 -14.73210054 5.57311223 -18 6 C-18.66 5.01 -19.32 4.02 -20 3 C-16.48812804 0.59185923 -14.27343092 -0.36629408 -10 0 C-10 0.66 -10 1.32 -10 2 C-9.44570313 1.77183594 -8.89140625 1.54367187 -8.3203125 1.30859375 C-7.59585938 1.02113281 -6.87140625 0.73367188 -6.125 0.4375 C-5.40570312 0.14746094 -4.68640625 -0.14257812 -3.9453125 -0.44140625 C-2 -1 -2 -1 0 0 Z " fill="#A6BE86" transform="translate(656,839)"/>
<path d="M0 0 C6.75 2.25 6.75 2.25 9 5 C6.69 4.67 4.38 4.34 2 4 C2.020625 5.216875 2.04125 6.43375 2.0625 7.6875 C2.05677761 10.91492629 1.94361645 13.88606572 1 17 C0.34 17.33 -0.32 17.66 -1 18 C-1.66 19.32 -2.32 20.64 -3 22 C-2.01 14.74 -1.02 7.48 0 0 Z " fill="#ABC38C" transform="translate(651,344)"/>
<path d="M0 0 C3.875 0.875 3.875 0.875 5 2 C4.93682102 9.53409297 2.97212635 16.78127337 1 24 C0.67 24 0.34 24 0 24 C0.39822174 19.47284761 0.89410264 15.08763472 2.0625 10.6875 C3.16426585 6.98802228 3.16426585 6.98802228 3 3 C2.01 2.67 1.02 2.34 0 2 C0 2.66 0 3.32 0 4 C0.99 4 1.98 4 3 4 C3 4.66 3 5.32 3 6 C1.824375 6.2165625 1.824375 6.2165625 0.625 6.4375 C-1.96421018 6.87798925 -1.96421018 6.87798925 -4 8 C-3.40072174 4.64404172 -2.15377564 2.62198774 0 0 Z " fill="#1A1E15" transform="translate(600,647)"/>
<path d="M0 0 C0.75 1.75 0.75 1.75 1 4 C-0.9375 6.25 -0.9375 6.25 -3 8 C-3.66 7.67 -4.32 7.34 -5 7 C-5.33 7.99 -5.66 8.98 -6 10 C-6.33 10 -6.66 10 -7 10 C-7.33 6.7 -7.66 3.4 -8 0 C-4.29847322 -0.92538169 -3.36541838 -1.08174162 0 0 Z " fill="#343631" transform="translate(549,331)"/>
<path d="M0 0 C0.33 0.99 0.66 1.98 1 3 C1.66 3.33 2.32 3.66 3 4 C-3.24161903 7.58125682 -7.75420281 9.67090715 -15 9 C-15 8.67 -15 8.34 -15 8 C-12.03 7.34 -9.06 6.68 -6 6 C-6.33 5.01 -6.66 4.02 -7 3 C-6.34 3 -5.68 3 -5 3 C-5 2.34 -5 1.68 -5 1 C-3.35 0.67 -1.7 0.34 0 0 Z " fill="#A7BD88" transform="translate(581,800)"/>
<path d="M0 0 C0.33 0 0.66 0 1 0 C0.67 3.96 0.34 7.92 0 12 C0.66 12 1.32 12 2 12 C2.33 11.01 2.66 10.02 3 9 C3 10.98 3 12.96 3 15 C2.01 15.33 1.02 15.66 0 16 C0 17.65 0 19.3 0 21 C-0.33 20.01 -0.66 19.02 -1 18 C-1.66 18 -2.32 18 -3 18 C-3.42765417 11.58518742 -1.85743168 6.11404596 0 0 Z " fill="#A3BB84" transform="translate(344,689)"/>
<path d="M0 0 C0.33 0.99 0.66 1.98 1 3 C7.13418935 4.02379878 13.22844151 4.31607673 19.4375 4.5625 C20.96407227 4.62727539 20.96407227 4.62727539 22.52148438 4.69335938 C25.01421028 4.79868582 27.50702338 4.90081672 30 5 C30 5.33 30 5.66 30 6 C25.85440907 6.11727273 21.70925138 6.18760933 17.5625 6.25 C15.81549805 6.30027344 15.81549805 6.30027344 14.03320312 6.3515625 C6.752467 6.43359896 1.34234786 5.68231881 -5 2 C-5 1.67 -5 1.34 -5 1 C-3.35 0.67 -1.7 0.34 0 0 Z " fill="#151A11" transform="translate(291,379)"/>
<path d="M0 0 C0.66 0.99 1.32 1.98 2 3 C1.21625 3.433125 0.4325 3.86625 -0.375 4.3125 C-3.21698375 5.89220247 -3.21698375 5.89220247 -5 9 C-5.515625 8.79375 -6.03125 8.5875 -6.5625 8.375 C-10.03265671 7.84112974 -12.70635791 8.92323239 -16 10 C-13.32401709 6.86030886 -9.91405704 5.18156373 -6.3125 3.3125 C-5.70599609 2.99216797 -5.09949219 2.67183594 -4.47460938 2.34179688 C-2.98565434 1.55628516 -1.49316953 0.77747058 0 0 Z " fill="#20231E" transform="translate(563,439)"/>
<path d="M0 0 C-3.12621626 3.39417765 -5.56541027 5.6062718 -10 7 C-10.33 6.34 -10.66 5.68 -11 5 C-13.01669827 3.86649466 -13.01669827 3.86649466 -15 3 C-13.44033782 2.491217 -11.87710759 1.99336531 -10.3125 1.5 C-9.44238281 1.2215625 -8.57226562 0.943125 -7.67578125 0.65625 C-5.00608323 0.00149195 -2.73603316 -0.11831495 0 0 Z " fill="#A4BC86" transform="translate(572,432)"/>
<path d="M0 0 C1.10992805 3.41843654 0.91249678 6.09802418 0.44140625 9.640625 C0.30283203 10.71054687 0.16425781 11.78046875 0.02148438 12.8828125 C-0.12998047 13.99398437 -0.28144531 15.10515625 -0.4375 16.25 C-0.58509766 17.37664063 -0.73269531 18.50328125 -0.88476562 19.6640625 C-1.2498817 22.44365585 -1.62186539 25.2221528 -2 28 C-2.33 28 -2.66 28 -3 28 C-3.06058594 27.25234375 -3.12117187 26.5046875 -3.18359375 25.734375 C-3.26738281 24.74953125 -3.35117187 23.7646875 -3.4375 22.75 C-3.51871094 21.77546875 -3.59992187 20.8009375 -3.68359375 19.796875 C-3.95074584 17.43538247 -4.35371968 15.28098935 -5 13 C-4.01 12.67 -3.02 12.34 -2 12 C-1.90912109 11.07767578 -1.90912109 11.07767578 -1.81640625 10.13671875 C-1.69072266 8.92435547 -1.69072266 8.92435547 -1.5625 7.6875 C-1.48128906 6.88699219 -1.40007813 6.08648438 -1.31640625 5.26171875 C-1 3 -1 3 0 0 Z " fill="#B1C991" transform="translate(589,667)"/>
<path d="M0 0 C1.36186827 4.08560482 -0.04135024 6.90022425 -1.375 10.8125 C-2.95968248 15.53607279 -4.33003378 20.0375758 -5 25 C-5.99 25.33 -6.98 25.66 -8 26 C-7.28187489 20.51531946 -5.68395002 15.43395748 -4 10.1875 C-3.59007812 8.88135742 -3.59007812 8.88135742 -3.171875 7.54882812 C-1.13096429 1.13096429 -1.13096429 1.13096429 0 0 Z " fill="#1E1F1D" transform="translate(340,651)"/>
<path d="M0 0 C1.09898702 3.29696105 0.87124444 4.40494903 0.0625 7.6875 C-0.13214844 8.49574219 -0.32679688 9.30398438 -0.52734375 10.13671875 C-0.68332031 10.75160156 -0.83929688 11.36648438 -1 12 C-1.66 11.01 -2.32 10.02 -3 9 C-3.25394531 9.63808594 -3.50789063 10.27617188 -3.76953125 10.93359375 C-4.11371094 11.75988281 -4.45789063 12.58617187 -4.8125 13.4375 C-5.14894531 14.26121094 -5.48539062 15.08492187 -5.83203125 15.93359375 C-7 18 -7 18 -10 19 C-8.40376856 14.60616294 -6.21975667 10.71004193 -3.875 6.6875 C-3.50246094 6.04232422 -3.12992187 5.39714844 -2.74609375 4.73242188 C-1.83367787 3.15324055 -0.91724491 1.57638136 0 0 Z " fill="#90A76F" transform="translate(325,716)"/>
<path d="M0 0 C1.87853919 2.81780879 2.57489844 4.66826651 3.4375 7.875 C4.5178988 11.67578757 5.8999549 14.63992784 8 18 C7.67 18.66 7.34 19.32 7 20 C3.98320986 15.46330032 1.46032495 11.31027254 0 6 C-0.99 8.31 -1.98 10.62 -3 13 C-4.23593891 9.29218328 -3.5678132 8.32489747 -2.0625 4.8125 C-1.68222656 3.91144531 -1.30195313 3.01039063 -0.91015625 2.08203125 C-0.60980469 1.39496094 -0.30945313 0.70789063 0 0 Z " fill="#AFC491" transform="translate(403,485)"/>
<path d="M0 0 C3.27584369 1.96550622 4.72058689 3.05429407 5.8125 6.75 C5.874375 7.4925 5.93625 8.235 6 9 C5.4225 8.21625 4.845 7.4325 4.25 6.625 C2.17102363 4.19952756 0.90959667 3.14305583 -2 2 C-2.78375 2.66 -3.5675 3.32 -4.375 4 C-7 6 -7 6 -9 6 C-9.33 6.66 -9.66 7.32 -10 8 C-9.64505955 5.37344067 -9.27538036 3.42031739 -7.8125 1.1875 C-5.05641317 -0.61821206 -3.22701096 -0.45178153 0 0 Z " fill="#1D201A" transform="translate(276,402)"/>
<path d="M0 0 C0.99 0.66 1.98 1.32 3 2 C-0.63 5.63 -4.26 9.26 -8 13 C-8.33 11.68 -8.66 10.36 -9 9 C-7.12890625 6.640625 -7.12890625 6.640625 -4.5625 4.25 C-3.71816406 3.45078125 -2.87382812 2.6515625 -2.00390625 1.828125 C-1.34261719 1.22484375 -0.68132812 0.6215625 0 0 Z " fill="#232622" transform="translate(255,375)"/>
<path d="M0 0 C1.0625 1.8125 1.0625 1.8125 2 4 C1.67 4.99 1.34 5.98 1 7 C0.32811503 9.33183607 -0.33915417 11.66501142 -1 14 C-3 13 -3 13 -3.875 10.9375 C-4.058333 6.62917444 -2.11707167 3.66171624 0 0 Z M-6 10 C-5.34 10.33 -4.68 10.66 -4 11 C-4.99 11.66 -5.98 12.32 -7 13 C-6.67 12.01 -6.34 11.02 -6 10 Z " fill="#7B9554" transform="translate(322,724)"/>
<path d="M0 0 C0.33 0 0.66 0 1 0 C1 7.59 1 15.18 1 23 C0.01 22.67 -0.98 22.34 -2 22 C-1.85811015 19.45805839 -1.71160845 16.91652007 -1.5625 14.375 C-1.52318359 13.66214844 -1.48386719 12.94929687 -1.44335938 12.21484375 C-1.19690319 8.08196318 -0.76529947 4.07730976 0 0 Z " fill="#95B172" transform="translate(602,672)"/>
<path d="M0 0 C0.33 0.66 0.66 1.32 1 2 C-5.22259874 9.8049778 -5.22259874 9.8049778 -10 12 C-10.99 12 -11.98 12 -13 12 C-11.21135158 10.18443212 -9.41928379 8.37248378 -7.625 6.5625 C-7.11710938 6.04623047 -6.60921875 5.52996094 -6.0859375 4.99804688 C-2.2265625 1.11328125 -2.2265625 1.11328125 0 0 Z " fill="#A7C086" transform="translate(585,436)"/>
<path d="M0 0 C0.33 0 0.66 0 1 0 C1.98248524 4.0527516 2.08159574 7.83861737 2 12 C2.66 12 3.32 12 4 12 C4.16702456 16.34263862 4.12999997 19.20960634 2 23 C0.76892281 15.27279225 -0.2700558 7.8316181 0 0 Z " fill="#1E2219" transform="translate(769,514)"/>
<path d="M0 0 C0.99 0.33 1.98 0.66 3 1 C3 2.65 3 4.3 3 6 C2.01 6.33 1.02 6.66 0 7 C-0.33 7.99 -0.66 8.98 -1 10 C-5.29 9.67 -9.58 9.34 -14 9 C-14 8.67 -14 8.34 -14 8 C-12.75283203 7.80083984 -12.75283203 7.80083984 -11.48046875 7.59765625 C-10.39378906 7.42105469 -9.30710937 7.24445312 -8.1875 7.0625 C-7.10855469 6.88847656 -6.02960938 6.71445312 -4.91796875 6.53515625 C-1.95066644 6.06128079 -1.95066644 6.06128079 1 5 C0.67 3.35 0.34 1.7 0 0 Z " fill="#AFC790" transform="translate(418,624)"/>
<path d="M0 0 C0.99 0 1.98 0 3 0 C3.05447047 1.41623216 3.09300508 2.83308191 3.125 4.25 C3.14820313 5.03890625 3.17140625 5.8278125 3.1953125 6.640625 C2.9828378 9.20731941 2.28654105 10.7916067 1 13 C-0.32229189 10.35541621 -0.09677194 8.32238699 -0.0625 5.375 C-0.05347656 4.37210937 -0.04445313 3.36921875 -0.03515625 2.3359375 C-0.02355469 1.56507813 -0.01195312 0.79421875 0 0 Z " fill="#313230" transform="translate(613,341)"/>
<path d="M0 0 C-2 2 -2 2 -5.0625 2.0625 C-6.031875 2.041875 -7.00125 2.02125 -8 2 C-8.33 2.33 -8.66 2.66 -9 3 C-11.33297433 3.04092937 -13.66705225 3.04241723 -16 3 C-14 0 -14 0 -12.01171875 -0.546875 C-7.80566494 -0.9144629 -4.11953294 -1.19599343 0 0 Z " fill="#DDE3E3" transform="translate(574,875)"/>
<path d="M0 0 C3.81041189 1.20328796 7.57086792 2.53640104 11.3125 3.9375 C12.17488281 4.25589844 13.03726562 4.57429687 13.92578125 4.90234375 C16 6 16 6 17 9 C12.6007204 8.41234113 9.48108589 6.76040283 5.6875 4.5 C4.61886719 3.8709375 3.55023438 3.241875 2.44921875 2.59375 C1.23685547 1.80484375 1.23685547 1.80484375 0 1 C0 0.67 0 0.34 0 0 Z " fill="#1E201E" transform="translate(345,829)"/>
<path d="M0 0 C-3.72066472 2.48044315 -6.86540474 2.44381173 -11.1875 2.625 C-11.93708984 2.66367187 -12.68667969 2.70234375 -13.45898438 2.7421875 C-15.30559199 2.83628216 -17.1527619 2.91922319 -19 3 C-18.67 2.01 -18.34 1.02 -18 0 C-17.00419922 0.01740234 -17.00419922 0.01740234 -15.98828125 0.03515625 C-10.78794645 0.08829836 -4.79520791 -1.59840264 0 0 Z " fill="#96B173" transform="translate(527,470)"/>
<path d="M0 0 C2 2 2 2 2.9375 4.5625 C3.288125 5.366875 3.63875 6.17125 4 7 C4.99 7.33 5.98 7.66 7 8 C8.1875 11.5625 8.1875 11.5625 9 15 C4.28525232 11.85683488 1.92441834 8.23570799 0 3 C0 2.01 0 1.02 0 0 Z " fill="#ABC28C" transform="translate(247,441)"/>
<path d="M0 0 C4.2026393 2.63886654 7.56638098 5.36440339 11 9 C9.68 8.67 8.36 8.34 7 8 C6.67 8.66 6.34 9.32 6 10 C5.34 9.67 4.68 9.34 4 9 C3.375 6.4375 3.375 6.4375 3 4 C2.01 4 1.02 4 0 4 C0 2.68 0 1.36 0 0 Z " fill="#252820" transform="translate(300,786)"/>
<path d="M0 0 C0.33 0 0.66 0 1 0 C1 5.61 1 11.22 1 17 C0.34 17 -0.32 17 -1 17 C-1.33 17.66 -1.66 18.32 -2 19 C-1.85761163 16.95809019 -1.71092972 14.91647955 -1.5625 12.875 C-1.48128906 11.73804688 -1.40007812 10.60109375 -1.31640625 9.4296875 C-1.02269035 6.2459522 -0.56875687 3.14489093 0 0 Z " fill="#B3CB95" transform="translate(358,621)"/>
<path d="M0 0 C2.37531394 -0.0543965 4.74935883 -0.09385864 7.125 -0.125 C7.79015625 -0.14175781 8.4553125 -0.15851563 9.140625 -0.17578125 C13.49516056 -0.21847278 16.95600114 0.40003783 21 2 C17.52674819 3.1577506 14.63932552 3.06866652 11 3 C11 2.34 11 1.68 11 1 C7.37 1 3.74 1 0 1 C0 0.67 0 0.34 0 0 Z " fill="#10140E" transform="translate(570,420)"/>
<path d="M0 0 C1.32 0.66 2.64 1.32 4 2 C2.625 3.5 2.625 3.5 1 5 C0.34 5 -0.32 5 -1 5 C-0.67 5.99 -0.34 6.98 0 8 C-0.66 8 -1.32 8 -2 8 C-2.66 9.32 -3.32 10.64 -4 12 C-3.5317879 7.22423661 -2.75668002 3.95523655 0 0 Z " fill="#A7BE87" transform="translate(251,401)"/>
<path d="M0 0 C0.66 0.33 1.32 0.66 2 1 C1.0625 3.9375 1.0625 3.9375 -1 7 C-3.99392117 7.84403097 -6.89910366 7.98699834 -10 8 C-6.97727468 4.74475735 -3.74281699 2.38179263 0 0 Z " fill="#AAC38A" transform="translate(469,344)"/>
<path d="M0 0 C0.66 0.99 1.32 1.98 2 3 C0.625 4.5 0.625 4.5 -1 6 C-1.66 6 -2.32 6 -3 6 C-3.4021875 7.175625 -3.4021875 7.175625 -3.8125 8.375 C-5 11 -5 11 -8 13 C-6.40956621 7.91061189 -3.2553049 4.12543357 0 0 Z " fill="#1D1E1C" transform="translate(303,728)"/>
<path d="M0 0 C2.31152042 4.31483812 3.13445355 7.85715874 3.0625 12.75 C3.05347656 13.54921875 3.04445313 14.3484375 3.03515625 15.171875 C3.01775391 16.07679688 3.01775391 16.07679688 3 17 C2.67 17 2.34 17 2 17 C2 15.35 2 13.7 2 12 C1.01 12.33 0.02 12.66 -1 13 C-0.835 11.96875 -0.67 10.9375 -0.5 9.875 C-0.06678152 6.51755674 0.08235703 3.37663843 0 0 Z " fill="#8DA26B" transform="translate(795,708)"/>
<path d="M0 0 C0 0.99 0 1.98 0 3 C-4.29 3 -8.58 3 -13 3 C-8.54370064 0.02913376 -5.32064558 -0.12092376 0 0 Z " fill="#22261D" transform="translate(604,856)"/>
<path d="M0 0 C0 0.99 0 1.98 0 3 C-0.639375 3.28875 -1.27875 3.5775 -1.9375 3.875 C-4.15206079 4.82823451 -4.15206079 4.82823451 -5 7 C-7.31 7 -9.62 7 -12 7 C-8.35140239 3.95950199 -4.2555467 2.03481238 0 0 Z " fill="#AAC08B" transform="translate(653,831)"/>
<path d="M0 0 C0.33 0.66 0.66 1.32 1 2 C-2.25179812 4.21713508 -5.4213696 6.34832443 -9 8 C-9.66 7.34 -10.32 6.68 -11 6 C-7.37 4.02 -3.74 2.04 0 0 Z " fill="#1F231C" transform="translate(691,822)"/>
<path d="M0 0 C0 4.24645065 -1.81750806 6.38524772 -4 10 C-5.32 9.67 -6.64 9.34 -8 9 C-5.36 6.03 -2.72 3.06 0 0 Z " fill="#ABC58A" transform="translate(674,811)"/>
<path d="M0 0 C-0.66 0 -1.32 0 -2 0 C-2.4021875 0.86625 -2.4021875 0.86625 -2.8125 1.75 C-4.01719859 4.0325868 -5.40798115 5.9737942 -7 8 C-7 5.36 -7 2.72 -7 0 C-3.86650268 -1.04449911 -3.01031744 -0.93423645 0 0 Z " fill="#E8E8E7" transform="translate(473,477)"/>
<path d="M0 0 C-0.33 0.99 -0.66 1.98 -1 3 C-5.8333472 3.08333357 -10.23692563 2.95261487 -15 2 C-15 1.67 -15 1.34 -15 1 C-9.94997778 -0.03590199 -5.12583611 -0.10251672 0 0 Z " fill="#353C2D" transform="translate(330,382)"/>
<path d="M0 0 C0.05422947 1.4370809 0.09289723 2.87475462 0.125 4.3125 C0.14820313 5.11300781 0.17140625 5.91351562 0.1953125 6.73828125 C0 9 0 9 -2 12 C-3 11 -3 11 -3.09765625 8.71484375 C-3.08605469 7.79832031 -3.07445312 6.88179687 -3.0625 5.9375 C-3.05347656 5.01839844 -3.04445313 4.09929688 -3.03515625 3.15234375 C-3.02355469 2.44207031 -3.01195312 1.73179687 -3 1 C-1 0 -1 0 0 0 Z " fill="#90A970" transform="translate(331,780)"/>
<path d="M0 0 C0.33 0 0.66 0 1 0 C0.67 3.3 0.34 6.6 0 10 C-0.33 10 -0.66 10 -1 10 C-1 8.35 -1 6.7 -1 5 C-1.66 5 -2.32 5 -3 5 C-3 7.64 -3 10.28 -3 13 C-3.33 13 -3.66 13 -4 13 C-4 10.03 -4 7.06 -4 4 C-2.68 3.67 -1.36 3.34 0 3 C0 2.01 0 1.02 0 0 Z " fill="#1E231A" transform="translate(336,720)"/>
<path d="M0 0 C0.33 0.66 0.66 1.32 1 2 C0.00390625 4.1640625 0.00390625 4.1640625 -1.4375 6.625 C-1.91058594 7.44226563 -2.38367188 8.25953125 -2.87109375 9.1015625 C-3.24363281 9.72804688 -3.61617187 10.35453125 -4 11 C-4.66 10.34 -5.32 9.68 -6 9 C-6 8.01 -6 7.02 -6 6 C-5.34 6 -4.68 6 -4 6 C-3.67 5.34 -3.34 4.68 -3 4 C-2.01268258 2.65724831 -1.01405257 1.32267727 0 0 Z " fill="#242523" transform="translate(554,322)"/>
<path d="M0 0 C1.32 0.33 2.64 0.66 4 1 C2.73058503 4.91402949 1.48832306 6.79072873 -2 9 C-1.34 6.03 -0.68 3.06 0 0 Z " fill="#A6BF86" transform="translate(661,799)"/>
<path d="M0 0 C0.66 0.33 1.32 0.66 2 1 C0.70519111 3.42776667 -0.35838519 4.76967674 -2.98046875 5.7109375 C-4.9738726 6.19782198 -6.98658625 6.60391861 -9 7 C-6.25604436 4.05278838 -3.61662784 1.80831392 0 0 Z " fill="#21241C" transform="translate(714,808)"/>
<path d="M0 0 C0.66 0 1.32 0 2 0 C2.66 3.3 3.32 6.6 4 10 C3.01 10 2.02 10 1 10 C0.67 6.7 0.34 3.4 0 0 Z " fill="#F2F1F0" transform="translate(795,630)"/>
<path d="M0 0 C4.8333472 -0.08333357 9.23692563 0.04738513 14 1 C13.67 1.66 13.34 2.32 13 3 C8.18061476 3.23509196 4.53701494 2.45184478 0 1 C0 0.67 0 0.34 0 0 Z " fill="#93AD73" transform="translate(523,324)"/>
<path d="M0 0 C0.33 0 0.66 0 1 0 C1.125 6.75 1.125 6.75 0 9 C-0.66 9 -1.32 9 -2 9 C-2.33 9.66 -2.66 10.32 -3 11 C-2.69078116 9.54096742 -2.37751201 8.08279278 -2.0625 6.625 C-1.88847656 5.81289063 -1.71445312 5.00078125 -1.53515625 4.1640625 C-1 2 -1 2 0 0 Z " fill="#ABC38A" transform="translate(603,749)"/>
<path d="M0 0 C3.63 0.33 7.26 0.66 11 1 C11 1.33 11 1.66 11 2 C6.59085217 3.10228696 2.51617599 3.07654536 -2 3 C-1.34 2.01 -0.68 1.02 0 0 Z " fill="#97B274" transform="translate(507,326)"/>
<path d="M0 0 C0.99 0.33 1.98 0.66 3 1 C3 1.66 3 2.32 3 3 C2.236875 3.45375 1.47375 3.9075 0.6875 4.375 C-2.00869044 6.00525469 -3.29482136 7.39735892 -5 10 C-4.49701212 5.59885603 -2.91227269 3.28804981 0 0 Z " fill="#1D2019" transform="translate(558,794)"/>
<path d="M0 0 C0.33 0.99 0.66 1.98 1 3 C-1.97 5.475 -1.97 5.475 -5 8 C-5 5 -5 5 -2.5 2.3125 C-1.675 1.549375 -0.85 0.78625 0 0 Z " fill="#A9C386" transform="translate(594,772)"/>
<path d="M0 0 C0.33 0 0.66 0 1 0 C1.28301994 4.90567888 1.16492205 7.24528933 -2 11 C-1.85957123 9.35369672 -1.71250671 7.70795821 -1.5625 6.0625 C-1.48128906 5.14597656 -1.40007813 4.22945312 -1.31640625 3.28515625 C-1 1 -1 1 0 0 Z " fill="#A9C28C" transform="translate(604,658)"/>
<path d="M0 0 C1.485 0.99 1.485 0.99 3 2 C5.95817184 1.69814573 8.33437658 1.33281171 11 0 C10.67 1.32 10.34 2.64 10 4 C7.36 4 4.72 4 2 4 C1.34 2.68 0.68 1.36 0 0 Z " fill="#121311" transform="translate(375,501)"/>
<path d="M0 0 C0.33 0.99 0.66 1.98 1 3 C0.34 3.66 -0.32 4.32 -1 5 C-1.66 4.34 -2.32 3.68 -3 3 C-2.67 2.67 -2.34 2.34 -2 2 C-4.97 2 -7.94 2 -11 2 C-6.78370866 -0.10814567 -4.60209225 -0.17700355 0 0 Z " fill="#161816" transform="translate(573,431)"/>
<path d="M0 0 C0.33 0 0.66 0 1 0 C1 2.97 1 5.94 1 9 C-0.98 8.34 -2.96 7.68 -5 7 C-5 6.34 -5 5.68 -5 5 C-3.68 5 -2.36 5 -1 5 C-0.67 3.35 -0.34 1.7 0 0 Z " fill="#363834" transform="translate(545,341)"/>
<path d="M0 0 C1 3 1 3 0 6 C-1.62332967 7.38576923 -3.28724465 8.72641268 -5 10 C-3.66511872 6.40608886 -2.03977277 3.24509304 0 0 Z " fill="#1D221B" transform="translate(678,781)"/>
<path d="M0 0 C1.1875 1.5 1.1875 1.5 2 4 C1.27101296 6.78824238 0.1843275 9.37665092 -1 12 C-2.04702186 8.2735915 -2.07442057 4.86986958 -2 1 C-1.34 0.67 -0.68 0.34 0 0 Z " fill="#373A35" transform="translate(697,733)"/>
<path d="M0 0 C0.66 1.32 1.32 2.64 2 4 C1.01 4.99 0.02 5.98 -1 7 C-1.99 6.67 -2.98 6.34 -4 6 C-2.68 4.02 -1.36 2.04 0 0 Z " fill="#222421" transform="translate(308,720)"/>
<path d="M0 0 C2.31 0.33 4.62 0.66 7 1 C3.36576791 3.32590854 0.22911669 3.16265833 -4 3 C-2.68 2.67 -1.36 2.34 0 2 C0 1.34 0 0.68 0 0 Z " fill="#171816" transform="translate(512,467)"/>
<path d="M0 0 C2.64 0 5.28 0 8 0 C8 0.66 8 1.32 8 2 C5.36 2.33 2.72 2.66 0 3 C0 2.01 0 1.02 0 0 Z " fill="#DCE0E2" transform="translate(581,872)"/>
<path d="M0 0 C1.125 1.5625 1.125 1.5625 2 4 C1.125 7.75 1.125 7.75 0 11 C-0.33 11 -0.66 11 -1 11 C-1.14285714 3.57142857 -1.14285714 3.57142857 0 0 Z " fill="#262724" transform="translate(704,744)"/>
<path d="M0 0 C0.66 0 1.32 0 2 0 C2.33 2.64 2.66 5.28 3 8 C2.01 8 1.02 8 0 8 C0 5.36 0 2.72 0 0 Z " fill="#323132" transform="translate(333,725)"/>
<path d="M0 0 C0.33 0 0.66 0 1 0 C1.98248524 4.0527516 2.08159574 7.83861737 2 12 C0.48046875 10.79296875 0.48046875 10.79296875 -1 9 C-1.07421875 6.73828125 -1.07421875 6.73828125 -0.6875 4.3125 C-0.56761719 3.50425781 -0.44773437 2.69601562 -0.32421875 1.86328125 C-0.21722656 1.24839844 -0.11023438 0.63351562 0 0 Z " fill="#171A15" transform="translate(600,696)"/>
<path d="M0 0 C1.15941038 3.47823115 0.70820884 5.45895578 0 9 C-0.99 9.33 -1.98 9.66 -3 10 C-2.49287967 6.28111761 -1.88391785 3.26545761 0 0 Z " fill="#171816" transform="translate(335,667)"/>
<path d="M0 0 C0.28875 0.61875 0.5775 1.2375 0.875 1.875 C1.93720042 4.13325765 1.93720042 4.13325765 4 6 C1.64561267 7.42944945 0.51967567 8.08661261 -2.25 7.625 C-2.8275 7.41875 -3.405 7.2125 -4 7 C-2.68 6.67 -1.36 6.34 0 6 C0 4.02 0 2.04 0 0 Z " fill="#141513" transform="translate(388,352)"/>
<path d="M0 0 C0.66 0 1.32 0 2 0 C1.75 2.375 1.75 2.375 1 5 C-1.0625 6.3125 -1.0625 6.3125 -3 7 C-2.01 4.69 -1.02 2.38 0 0 Z " fill="#A4BD84" transform="translate(655,808)"/>
<path d="M0 0 C0.99 0.33 1.98 0.66 3 1 C3 3.31 3 5.62 3 8 C2.67 7.01 2.34 6.02 2 5 C1.34 5 0.68 5 0 5 C0 3.35 0 1.7 0 0 Z " fill="#232421" transform="translate(810,722)"/>
<path d="M0 0 C0.33 0 0.66 0 1 0 C1.36923077 5.53846154 1.36923077 5.53846154 -0.5 7.875 C-1.2425 8.431875 -1.2425 8.431875 -2 9 C-1.125 1.125 -1.125 1.125 0 0 Z " fill="#23281E" transform="translate(544,324)"/>
</svg>
