<svg width="160" height="162" viewBox="0 0 160 162" fill="none" xmlns="http://www.w3.org/2000/svg">
<circle cx="10.662" cy="10.662" r="10.662" transform="matrix(-1 0 0 1 115.542 10.3359)" fill="#83895F"/>
<circle cx="8.73025" cy="8.73025" r="8.73025" transform="matrix(-1 0 0 1 115.534 10.3359)" fill="white"/>
<path fill-rule="evenodd" clip-rule="evenodd" d="M107.944 26.3979C102.85 26.3979 98.721 22.3371 98.721 17.3279C98.721 15.8706 99.0705 14.4936 99.6915 13.2734C98.3252 14.8553 97.5009 16.904 97.5009 19.1421C97.5009 24.1514 101.63 28.2122 106.724 28.2122C110.335 28.2122 113.462 26.1704 114.976 23.1966C113.284 25.1552 110.761 26.3979 107.944 26.3979Z" fill="black" fill-opacity="0.2"/>
<path fill-rule="evenodd" clip-rule="evenodd" d="M108.394 17.7186L108.419 17.8068L108.443 17.8954L108.466 17.9845L108.487 18.0739L108.506 18.1635L108.524 18.2535L108.541 18.3437L108.556 18.434L108.569 18.5244L108.581 18.6149L108.592 18.7054L108.6 18.7959L108.608 18.8863L108.613 18.9766L108.618 19.0667L108.621 19.1566L108.622 19.2462L108.622 19.3355L108.62 19.4245L108.617 19.5131L108.612 19.6012L108.606 19.6889L108.599 19.7761L108.59 19.8628L108.581 19.9489L108.569 20.0344L108.557 20.1193L108.543 20.2035L108.528 20.2871L108.512 20.37L108.494 20.4521L108.476 20.5335L108.456 20.6141L108.435 20.694L108.413 20.773L108.39 20.8512L108.366 20.9286L108.341 21.0051L108.315 21.0808L108.288 21.1555L108.26 21.2294L108.231 21.3024L108.202 21.3744L108.171 21.4455L108.139 21.5157L108.107 21.5849L108.074 21.6531L108.04 21.7204L108.005 21.7867L107.969 21.852L107.933 21.9164L107.896 21.9797L107.858 22.042L107.819 22.1033L107.78 22.1635L107.74 22.2227L107.699 22.2809L107.658 22.338L107.616 22.3941L107.574 22.4491L107.53 22.5031L107.487 22.5559L107.442 22.6077L107.397 22.6584L107.352 22.708L107.306 22.7565L107.259 22.8038L107.212 22.85L107.164 22.8951L107.116 22.939L107.067 22.9818L107.018 23.0234L106.968 23.0638L106.918 23.103L106.867 23.141L106.816 23.1778L106.765 23.2134L106.713 23.2477L106.66 23.2807L106.607 23.3124L106.554 23.3429L106.5 23.372L106.446 23.3998L106.392 23.4263L106.337 23.4514L106.282 23.4751L106.226 23.4974L106.17 23.5183L106.114 23.5378L106.058 23.5558L106.001 23.5723L105.944 23.5874L105.887 23.6009L105.83 23.6129L105.772 23.6234L105.714 23.6323L105.656 23.6396L105.598 23.6454L105.54 23.6495L105.482 23.652L105.423 23.653L105.365 23.6522L105.306 23.6499L105.248 23.6459L105.189 23.6403L105.131 23.633L105.073 23.6241L105.015 23.6136L104.957 23.6015L104.899 23.5878L104.841 23.5725L104.784 23.5557L104.727 23.5374L104.67 23.5176L104.614 23.4963L104.558 23.4736L104.503 23.4495L104.448 23.424L104.393 23.3973L104.339 23.3692L104.285 23.34L104.232 23.3095L104.18 23.2779L104.128 23.2452L104.077 23.2114L104.026 23.1766L103.976 23.1409L103.927 23.1042L103.878 23.0667L103.831 23.0284L103.783 22.9893L103.737 22.9495L103.691 22.9091L103.646 22.868L103.602 22.8264L103.559 22.7843L103.516 22.7417L103.474 22.6988L103.433 22.6555L103.392 22.6119L103.352 22.5681L103.313 22.524L103.275 22.4799L103.237 22.4356L103.2 22.3912L103.164 22.3468L103.129 22.3024L103.094 22.2581L103.059 22.2137L103.026 22.1695L102.993 22.1253L102.96 22.0813L102.929 22.0373L102.897 21.9935L102.867 21.9498L102.836 21.9062L102.807 21.8628L102.778 21.8195L102.749 21.7764L102.721 21.7334L102.694 21.6906L102.667 21.6479L102.64 21.6054L102.614 21.5629L102.588 21.5207L102.563 21.4785L102.538 21.4364L102.514 21.3945L102.49 21.3527L102.467 21.311L102.444 21.2694L102.421 21.2278L102.399 21.1864L102.377 21.1451L102.356 21.1038L102.335 21.0627L102.314 21.0216L102.294 20.9806L102.274 20.9397L102.255 20.8989L102.236 20.8581L102.217 20.8175L102.198 20.777L102.18 20.7366L102.163 20.6963L102.145 20.6561L102.128 20.616L102.111 20.5761L102.094 20.5363L102.078 20.4966L102.062 20.457L102.046 20.4176L102.03 20.3783L102.014 20.3391L101.999 20.3L101.984 20.261L101.968 20.2221L101.954 20.1832L101.939 20.1445L101.924 20.1058L101.909 20.0672L101.895 20.0286L101.88 19.9901L101.866 19.9516L101.852 19.9131L101.838 19.8747L101.824 19.8362L101.81 19.7977L101.796 19.7591L101.782 19.7205L101.768 19.6819L101.755 19.6432L101.741 19.6044L101.727 19.5655L101.714 19.5265L101.7 19.4874L101.687 19.4481L101.674 19.4087L101.66 19.3692L101.647 19.3295L101.634 19.2896L101.621 19.2495L101.608 19.2092L101.594 19.1686L101.581 19.1279L101.568 19.0869L101.555 19.0456L101.542 19.0041L101.529 18.9622L101.516 18.9201L101.503 18.8776L101.49 18.8348L101.476 18.7916L101.463 18.748L101.45 18.7041L101.437 18.6597L101.423 18.6149L101.41 18.5696L101.397 18.5239L101.383 18.4776L101.37 18.4309L101.356 18.3835L101.342 18.3357L101.329 18.2872L101.315 18.2381L101.301 18.1885L101.288 18.1381L101.274 18.0871L101.26 18.0354L101.247 17.9831L101.233 17.93L101.219 17.8761L101.206 17.8216L101.193 17.7662L101.179 17.7102L101.166 17.6533L101.154 17.5957L101.141 17.5373L101.129 17.4782L101.117 17.4183L101.106 17.3577L101.094 17.2963L101.084 17.2341L101.073 17.1713L101.064 17.1077L101.055 17.0435L101.046 16.9786L101.038 16.9131L101.031 16.8469L101.024 16.7801L101.019 16.7128L101.014 16.6449L101.009 16.5766L101.006 16.5078L101.004 16.4385L101.002 16.3689L101.002 16.299L101.002 16.2287L101.004 16.1582L101.007 16.0875L101.01 16.0166L101.015 15.9457L101.021 15.8747L101.028 15.8037L101.037 15.7328L101.047 15.662L101.058 15.5913L101.07 15.5209L101.083 15.4508L101.098 15.3811L101.114 15.3117L101.132 15.2428L101.151 15.1744L101.171 15.1065L101.192 15.0392L101.215 14.9726L101.239 14.9066L101.265 14.8414L101.292 14.7769L101.32 14.7132L101.349 14.6504L101.38 14.5884L101.411 14.5273L101.445 14.4672L101.479 14.408L101.515 14.3499L101.551 14.2928L101.589 14.2367L101.629 14.1817L101.669 14.1278L101.71 14.075L101.753 14.0234L101.797 13.973L101.841 13.9238L101.887 13.8758L101.934 13.829L101.982 13.7835L102.03 13.7393L102.08 13.6964L102.131 13.6549L102.182 13.6147L102.235 13.5759L102.288 13.5385L102.343 13.5025L102.398 13.468L102.454 13.435L102.51 13.4035L102.568 13.3736L102.626 13.3452L102.685 13.3184L102.745 13.2933L102.805 13.2699L102.866 13.2481L102.928 13.2281L102.99 13.2098L103.053 13.1932L103.117 13.1784L103.18 13.1654L103.245 13.1543L103.31 13.1449L103.375 13.1373L103.44 13.1315L103.506 13.1276L103.572 13.1255L103.639 13.1253L103.706 13.1268L103.773 13.1302L103.84 13.1354L103.907 13.1424L103.974 13.1512L104.042 13.1618L104.109 13.1742L104.177 13.1883L104.244 13.2041L104.312 13.2216L104.379 13.2409L104.446 13.2618L104.513 13.2843L104.58 13.3085L104.647 13.3342L104.713 13.3616L104.78 13.3904L104.846 13.4207L104.911 13.4525L104.977 13.4857L105.042 13.5202L105.107 13.5561L105.171 13.5932L105.235 13.6316L105.299 13.6712L105.362 13.7119L105.425 13.7537L105.488 13.7966L105.55 13.8406L105.612 13.8855L105.674 13.9314L105.735 13.9782L105.796 14.0259L105.856 14.0744L105.916 14.1239L105.976 14.1741L106.035 14.2251L106.094 14.2769L106.153 14.3295L106.211 14.3828L106.269 14.4368L106.326 14.4916L106.383 14.5471L106.44 14.6033L106.497 14.6602L106.553 14.7177L106.608 14.776L106.664 14.835L106.719 14.8947L106.774 14.9551L106.828 15.0162L106.882 15.0781L106.935 15.1406L106.989 15.2038L107.041 15.2678L107.094 15.3325L107.146 15.3979L107.197 15.464L107.248 15.5309L107.299 15.5985L107.349 15.6669L107.399 15.736L107.448 15.8059L107.497 15.8766L107.545 15.9481L107.593 16.0204L107.64 16.0935L107.686 16.1674L107.732 16.2421L107.777 16.3176L107.821 16.3939L107.864 16.4711L107.907 16.549L107.948 16.6278L107.989 16.7074L108.029 16.7877L108.068 16.8688L108.106 16.9507L108.143 17.0334L108.178 17.1168L108.213 17.2008L108.246 17.2856L108.278 17.371L108.309 17.457L108.339 17.5437L108.367 17.6309L108.394 17.7186Z" fill="black"/>
<path fill-rule="evenodd" clip-rule="evenodd" d="M108.375 22.2659L108.326 22.2818L108.277 22.297L108.227 22.3115L108.177 22.3252L108.128 22.3381L108.078 22.3503L108.027 22.3616L107.977 22.3722L107.927 22.382L107.877 22.391L107.826 22.3993L107.776 22.4067L107.725 22.4133L107.675 22.4191L107.625 22.4242L107.575 22.4285L107.525 22.4319L107.475 22.4347L107.426 22.4366L107.376 22.4378L107.327 22.4383L107.278 22.438L107.23 22.437L107.181 22.4352L107.133 22.4328L107.085 22.4297L107.038 22.4259L106.991 22.4214L106.944 22.4163L106.898 22.4105L106.852 22.4041L106.807 22.397L106.762 22.3894L106.717 22.3811L106.673 22.3723L106.629 22.3629L106.586 22.3529L106.543 22.3424L106.501 22.3314L106.459 22.3198L106.417 22.3077L106.377 22.295L106.336 22.2819L106.296 22.2683L106.257 22.2542L106.218 22.2397L106.18 22.2247L106.142 22.2092L106.105 22.1933L106.069 22.1769L106.032 22.1602L105.997 22.143L105.962 22.1254L105.928 22.1074L105.894 22.089L105.86 22.0702L105.828 22.051L105.796 22.0315L105.764 22.0116L105.733 21.9913L105.703 21.9707L105.673 21.9497L105.644 21.9284L105.615 21.9068L105.587 21.8848L105.56 21.8625L105.533 21.8399L105.507 21.817L105.482 21.7937L105.457 21.7702L105.433 21.7463L105.409 21.7222L105.387 21.6978L105.364 21.6731L105.343 21.6481L105.322 21.6228L105.302 21.5973L105.282 21.5715L105.264 21.5454L105.246 21.5191L105.228 21.4925L105.212 21.4657L105.196 21.4386L105.181 21.4113L105.166 21.3838L105.153 21.356L105.14 21.328L105.128 21.2998L105.117 21.2715L105.106 21.2429L105.097 21.2141L105.088 21.1851L105.08 21.156L105.073 21.1267L105.067 21.0972L105.061 21.0676L105.057 21.0379L105.053 21.0081L105.051 20.9781L105.049 20.948L105.048 20.9178L105.048 20.8876L105.049 20.8573L105.051 20.827L105.054 20.7966L105.057 20.7662L105.062 20.7358L105.067 20.7054L105.074 20.6751L105.081 20.6448L105.089 20.6146L105.098 20.5844L105.108 20.5544L105.118 20.5245L105.13 20.4947L105.142 20.4651L105.155 20.4356L105.169 20.4064L105.184 20.3773L105.199 20.3485L105.215 20.3199L105.231 20.2915L105.249 20.2634L105.267 20.2356L105.285 20.2081L105.304 20.1808L105.324 20.1539L105.344 20.1273L105.364 20.101L105.385 20.075L105.407 20.0494L105.429 20.0242L105.451 19.9993L105.474 19.9747L105.497 19.9506L105.52 19.9268L105.543 19.9033L105.567 19.8803L105.591 19.8576L105.615 19.8353L105.639 19.8134L105.663 19.7918L105.687 19.7706L105.712 19.7497L105.736 19.7292L105.761 19.7091L105.785 19.6893L105.81 19.6699L105.834 19.6508L105.859 19.632L105.883 19.6135L105.907 19.5954L105.932 19.5775L105.956 19.56L105.98 19.5427L106.004 19.5258L106.028 19.5091L106.052 19.4927L106.076 19.4766L106.1 19.4608L106.123 19.4452L106.147 19.4298L106.171 19.4147L106.194 19.3999L106.217 19.3853L106.241 19.3709L106.264 19.3568L106.287 19.3429L106.31 19.3293L106.333 19.3158L106.356 19.3026L106.379 19.2896L106.402 19.2769L106.425 19.2643L106.448 19.252L106.471 19.2398L106.494 19.2279L106.516 19.2162L106.539 19.2047L106.562 19.1933L106.584 19.1822L106.607 19.1712L106.629 19.1604L106.652 19.1498L106.674 19.1393L106.696 19.1291L106.718 19.1189L106.741 19.1089L106.763 19.099L106.785 19.0893L106.807 19.0796L106.828 19.0701L106.85 19.0607L106.872 19.0514L106.894 19.0422L106.915 19.0331L106.937 19.024L106.958 19.0151L106.98 19.0062L107.001 18.9973L107.023 18.9886L107.044 18.9798L107.066 18.9712L107.087 18.9626L107.108 18.954L107.13 18.9455L107.151 18.937L107.172 18.9286L107.194 18.9202L107.215 18.9118L107.237 18.9035L107.258 18.8952L107.28 18.887L107.301 18.8787L107.323 18.8705L107.345 18.8623L107.366 18.8541L107.388 18.846L107.41 18.8379L107.432 18.8298L107.454 18.8217L107.477 18.8136L107.499 18.8055L107.521 18.7974L107.544 18.7894L107.567 18.7813L107.59 18.7732L107.613 18.7652L107.636 18.7571L107.659 18.749L107.683 18.7408L107.707 18.7327L107.731 18.7245L107.755 18.7163L107.779 18.7081L107.804 18.6998L107.829 18.6915L107.854 18.6832L107.879 18.6748L107.905 18.6664L107.931 18.6579L107.957 18.6494L107.984 18.6409L108.011 18.6323L108.038 18.6237L108.066 18.615L108.094 18.6063L108.122 18.5976L108.151 18.5889L108.18 18.5802L108.209 18.5715L108.239 18.5628L108.27 18.5541L108.3 18.5455L108.331 18.5369L108.363 18.5284L108.395 18.52L108.427 18.5117L108.46 18.5035L108.494 18.4955L108.527 18.4876L108.561 18.4799L108.596 18.4724L108.631 18.4651L108.666 18.4581L108.702 18.4514L108.738 18.4449L108.775 18.4387L108.811 18.4329L108.849 18.4274L108.886 18.4223L108.924 18.4176L108.962 18.4133L109 18.4094L109.039 18.406L109.078 18.403L109.117 18.4006L109.156 18.3986L109.195 18.3972L109.235 18.3964L109.274 18.3961L109.314 18.3963L109.353 18.3972L109.393 18.3987L109.432 18.4009L109.472 18.4036L109.511 18.4071L109.551 18.4112L109.59 18.416L109.629 18.4214L109.668 18.4276L109.706 18.4345L109.744 18.442L109.782 18.4503L109.82 18.4593L109.857 18.469L109.894 18.4794L109.931 18.4905L109.967 18.5023L110.002 18.5148L110.038 18.5279L110.072 18.5418L110.107 18.5564L110.14 18.5716L110.174 18.5875L110.206 18.6041L110.238 18.6213L110.27 18.6392L110.301 18.6577L110.331 18.6768L110.361 18.6966L110.39 18.7169L110.418 18.7379L110.446 18.7594L110.473 18.7816L110.499 18.8043L110.525 18.8275L110.55 18.8514L110.574 18.8757L110.598 18.9006L110.62 18.926L110.642 18.9519L110.663 18.9784L110.684 19.0053L110.703 19.0327L110.722 19.0606L110.74 19.0889L110.757 19.1177L110.773 19.1469L110.789 19.1766L110.803 19.2066L110.817 19.2371L110.829 19.268L110.841 19.2992L110.851 19.3308L110.861 19.3628L110.87 19.3951L110.877 19.4277L110.884 19.4606L110.89 19.4938L110.894 19.5272L110.898 19.5609L110.901 19.5949L110.902 19.629L110.903 19.6634L110.902 19.6979L110.901 19.7326L110.898 19.7675L110.895 19.8025L110.891 19.8376L110.885 19.8727L110.879 19.908L110.871 19.9433L110.863 19.9787L110.854 20.0141L110.843 20.0495L110.832 20.0849L110.82 20.1203L110.807 20.1556L110.793 20.1909L110.778 20.2261L110.763 20.2613L110.746 20.2963L110.729 20.3313L110.711 20.3662L110.692 20.4009L110.672 20.4356L110.652 20.47L110.631 20.5044L110.61 20.5386L110.587 20.5726L110.564 20.6065L110.541 20.6403L110.517 20.6738L110.492 20.7072L110.467 20.7405L110.441 20.7736L110.415 20.8065L110.389 20.8392L110.361 20.8718L110.334 20.9042L110.306 20.9365L110.277 20.9686L110.248 21.0005L110.219 21.0323L110.189 21.0639L110.159 21.0954L110.129 21.1267L110.098 21.1578L110.066 21.1888L110.035 21.2196L110.003 21.2503L109.97 21.2808L109.937 21.3111L109.904 21.3413L109.87 21.3713L109.836 21.4011L109.802 21.4308L109.767 21.4602L109.731 21.4895L109.696 21.5187L109.66 21.5476L109.623 21.5763L109.586 21.6049L109.549 21.6332L109.511 21.6613L109.473 21.6892L109.434 21.7169L109.395 21.7443L109.356 21.7714L109.316 21.7983L109.275 21.8249L109.234 21.8511L109.193 21.8771L109.151 21.9027L109.109 21.9279L109.066 21.9528L109.023 21.9772L108.98 22.0013L108.936 22.0249L108.891 22.048L108.846 22.0707L108.801 22.0928L108.755 22.1145L108.709 22.1355L108.662 22.1561L108.615 22.176L108.568 22.1953L108.52 22.2139L108.472 22.2319L108.423 22.2493L108.375 22.2659Z" fill="white"/>
<path fill-rule="evenodd" clip-rule="evenodd" d="M6.71758 130.302C13.2255 136.828 20.3371 140.11 27.6738 141.398C27.6738 141.398 35.7622 129.973 35.7622 119.644C26.2572 119.644 21.7826 117.431 19.7693 115.412C17.8595 113.497 12.9901 109.784 11.8997 97.5243C11.6453 94.6635 9.35259 92.3232 6.48048 92.3232C3.95901 92.3232 1.78982 94.1299 1.36443 96.6152C-0.541916 107.753 -1.69613 119.335 6.71758 130.302Z" fill="#A4AA80"/>
<path fill-rule="evenodd" clip-rule="evenodd" d="M27.6738 141.398C20.3378 140.111 13.227 136.828 6.71968 130.303C0.425472 122.099 -0.51416 113.55 0.209967 105.101C1.37912 119.649 6.1504 124.712 8.75979 127.481C9.10063 127.842 9.40458 128.165 9.6588 128.464C9.89267 128.651 10.1377 128.854 10.3971 129.069C13.1956 131.387 17.6578 135.083 27.6738 135.083V141.398Z" fill="black" fill-opacity="0.1"/>
<path d="M99.5904 155.086C96.192 154.528 91.6044 156.187 89.9052 155.093C87.0697 153.269 90.0978 146.586 87.9342 142.54C85.7863 138.524 80.058 136.211 80.058 136.211L115.644 125.831C115.644 125.831 116.98 134.975 116.741 142.557C116.613 146.612 120.006 150.367 119.033 152.285C117.618 155.073 114.088 151.829 111.283 153.25C108.928 154.443 109.872 157.255 106.887 157.723C103.437 158.265 104.3 155.86 99.5904 155.086Z" fill="#83895F"/>
<path fill-rule="evenodd" clip-rule="evenodd" d="M94.3274 132.051L96.5776 155.027C95.8849 155.081 95.1903 155.163 94.5195 155.243C92.5718 155.474 90.8255 155.681 89.9127 155.093C88.422 154.134 88.5519 151.832 88.696 149.276C88.8261 146.971 88.9678 144.459 87.9417 142.54C85.7938 138.524 80.0655 136.211 80.0655 136.211L94.3274 132.051Z" fill="black" fill-opacity="0.2"/>
<path d="M136.433 106.147C134.122 107.176 131.976 110.047 130.492 110.062C128.015 110.087 127.175 104.763 124.214 103.154C121.275 101.556 116.825 102.449 116.825 102.449L128.412 74.9104L134.474 81.7122C134.474 81.7122 138.986 86.7845 141.9 91.5338C143.458 94.0743 147.057 95.0085 147.234 96.5786C147.491 98.8608 144.015 98.2947 142.867 100.3C141.903 101.983 143.618 103.327 141.975 104.82C140.077 106.545 139.635 104.72 136.433 106.147Z" fill="#83895F"/>
<path d="M141.645 20.4314C123.827 20.1698 113.51 18.498 104.873 17.0981C95.4209 15.5663 87.979 14.3602 74.9163 15.6842C74.3793 15.7364 73.8389 15.7885 73.2954 15.8407C59.1396 17.202 42.9245 18.7615 33.1878 30.9766C23.0773 43.6607 27.673 141.273 27.673 141.273C37.8229 141.273 59.8731 140.61 70.137 141.273C95.6889 141.273 108.449 143.021 119.035 135.39C130.984 123.625 131.004 111.37 130.9 92.6827C130.862 85.8181 130.821 78.4901 131.561 70.7229C132.317 62.7884 136.693 56.6417 140.825 50.8382C144.76 45.311 148.478 40.0698 148.631 33.9179H157.087C158.914 33.9177 159.293 32.4363 159.293 30.6088C159.293 28.7912 158.38 28.5883 157.119 28.3079C156.191 28.1016 155.449 27.9523 154.33 26.9325C151.957 23.6356 148.479 20.5317 141.645 20.4314Z" fill="#A4AA80"/>
<ellipse cx="4.0429" cy="1.27851" rx="4.0429" ry="1.27851" transform="matrix(-0.976418 -0.215889 -0.218693 0.975794 118.484 24.6338)" fill="#3D311E"/>
<ellipse cx="3.49434" cy="1.27118" rx="3.49434" ry="1.27118" transform="matrix(0.912106 -0.409954 0.354095 0.935209 144.667 22.3545)" fill="#3D311E"/>
<path d="M140.917 20.4195C140.271 21.4467 140.159 22.5384 140.056 23.5402C139.846 25.5767 139.675 27.2422 135.144 27.2416C129.284 27.2408 128.148 25.629 126.84 23.7724C125.645 22.0767 124.307 20.1767 119.093 19.1133C124.966 19.7591 131.987 20.2675 140.917 20.4195Z" fill="black" fill-opacity="0.2"/>
<path fill-rule="evenodd" clip-rule="evenodd" d="M39.4833 53.0059L39.4907 53.0735L39.4988 53.1409L39.5076 53.2082L39.5171 53.2752L39.5272 53.342L39.538 53.4086L39.5494 53.475L39.5614 53.5412L39.574 53.6072L39.5871 53.6729L39.6008 53.7385L39.6151 53.8039L39.6299 53.869L39.6452 53.934L39.6609 53.9988L39.6772 54.0634L39.694 54.1278L39.7113 54.192L39.729 54.256L39.7472 54.3199L39.7659 54.3836L39.7851 54.4471L39.8047 54.5105L39.8248 54.5737L39.8454 54.6367L39.8665 54.6996L39.8881 54.7623L39.9102 54.8249L39.9328 54.8873L39.9559 54.9495L39.9796 55.0116L40.0038 55.0735L40.0286 55.1352L40.0539 55.1967L40.0798 55.2581L40.1064 55.3192L40.1335 55.3801L40.1613 55.4408L40.1897 55.5013L40.2188 55.5615L40.2485 55.6214L40.279 55.6811L40.3101 55.7404L40.342 55.7995L40.3746 55.8582L40.4079 55.9166L40.442 55.9746L40.4769 56.0322L40.5125 56.0894L40.5489 56.1461L40.5861 56.2024L40.6241 56.2583L40.663 56.3136L40.7026 56.3684L40.7431 56.4226L40.7845 56.4762L40.8266 56.5292L40.8697 56.5815L40.9136 56.6332L40.9583 56.6842L41.0039 56.7344L41.0504 56.7838L41.0977 56.8324L41.1459 56.8802L41.195 56.9271L41.2449 56.9731L41.2956 57.0181L41.3472 57.0622L41.3996 57.1053L41.4528 57.1473L41.5068 57.1883L41.5616 57.2281L41.6171 57.2669L41.6735 57.3045L41.7305 57.3409L41.7883 57.3762L41.8467 57.4102L41.9058 57.4429L41.9656 57.4744L42.026 57.5046L42.087 57.5334L42.1485 57.561L42.2106 57.5872L42.2732 57.612L42.3362 57.6354L42.3998 57.6574L42.4637 57.678L42.528 57.6972L42.5927 57.7149L42.6577 57.7312L42.723 57.7461L42.7885 57.7595L42.8542 57.7714L42.9202 57.7819L42.9862 57.791L43.0524 57.7986L43.1187 57.8048L43.185 57.8095L43.2512 57.8129L43.3175 57.8148L43.3837 57.8154L43.4498 57.8145L43.5158 57.8124L43.5816 57.8088L43.6472 57.804L43.7126 57.7979L43.7777 57.7905L43.8425 57.7819L43.907 57.772L43.9712 57.761L44.035 57.7488L44.0984 57.7355L44.1614 57.7211L44.224 57.7057L44.2861 57.6892L44.3477 57.6716L44.4089 57.6532L44.4695 57.6338L44.5296 57.6134L44.5892 57.5922L44.6482 57.5702L44.7066 57.5473L44.7645 57.5237L44.8218 57.4993L44.8785 57.4741L44.9346 57.4483L44.9901 57.4217L45.0449 57.3946L45.0992 57.3668L45.1529 57.3383L45.2059 57.3093L45.2583 57.2798L45.3101 57.2497L45.3612 57.2191L45.4117 57.188L45.4616 57.1565L45.5109 57.1245L45.5595 57.0921L45.6075 57.0593L45.6549 57.0261L45.7017 56.9926L45.7479 56.9587L45.7935 56.9244L45.8384 56.8899L45.8828 56.855L45.9266 56.8199L45.9697 56.7845L46.0123 56.7489L46.0544 56.713L46.0958 56.6768L46.1367 56.6405L46.177 56.6039L46.2168 56.5671L46.256 56.5301L46.2947 56.4929L46.3329 56.4556L46.3705 56.418L46.4075 56.3803L46.4441 56.3424L46.4801 56.3044L46.5156 56.2661L46.5505 56.2277L46.585 56.1891L46.6189 56.1504L46.6523 56.1115L46.6852 56.0724L46.7175 56.0331L46.7493 55.9937L46.7806 55.954L46.8113 55.9142L46.8416 55.8742L46.8712 55.834L46.9003 55.7937L46.9289 55.7531L46.9569 55.7123L46.9843 55.6714L47.0112 55.6303L47.0375 55.5889L47.0632 55.5474L47.0883 55.5057L47.1127 55.4637L47.1366 55.4216L47.1599 55.3793L47.1825 55.3368L47.2045 55.2942L47.2259 55.2513L47.2466 55.2083L47.2666 55.1651L47.286 55.1217L47.3047 55.0782L47.3228 55.0345L47.3401 54.9907L47.3568 54.9467L47.3727 54.9026L47.388 54.8584L47.4025 54.814L47.4164 54.7696L47.4295 54.725L47.4419 54.6804L47.4535 54.6357L47.4645 54.591L47.4747 54.5462L47.4842 54.5013L47.4929 54.4564L47.5009 54.4116L47.5082 54.3667L47.5148 54.3218L47.5206 54.277L47.5257 54.2322L47.5301 54.1874L47.5337 54.1427L47.5367 54.0981L47.5389 54.0536L47.5405 54.0092L47.5413 53.965L47.5415 53.9208L47.541 53.8768L47.5399 53.833L47.5381 53.7894L47.5357 53.7459L47.5327 53.7026L47.529 53.6596L47.5248 53.6167L47.52 53.5741L47.5147 53.5318L47.5088 53.4896L47.5024 53.4478L47.4955 53.4062L47.4881 53.3649L47.4803 53.3238L47.472 53.2831L47.4634 53.2426L47.4543 53.2024L47.4448 53.1625L47.435 53.1229L47.4248 53.0836L47.4143 53.0446L47.4036 53.0059L47.3925 52.9675L47.3812 52.9294L47.3697 52.8915L47.358 52.854L47.346 52.8167L47.334 52.7797L47.3217 52.7429L47.3094 52.7064L47.2969 52.6702L47.2844 52.6341L47.2718 52.5983L47.2591 52.5627L47.2464 52.5273L47.2337 52.4921L47.221 52.4571L47.2083 52.4222L47.1957 52.3874L47.183 52.3528L47.1704 52.3182L47.1579 52.2838L47.1454 52.2494L47.133 52.2151L47.1207 52.1808L47.1084 52.1466L47.0963 52.1123L47.0842 52.078L47.0722 52.0437L47.0604 52.0094L47.0486 51.9749L47.0368 51.9404L47.0252 51.9058L47.0136 51.8711L47.0022 51.8362L46.9907 51.8012L46.9793 51.766L46.968 51.7307L46.9567 51.6951L46.9454 51.6593L46.9341 51.6234L46.9228 51.5871L46.9115 51.5507L46.9001 51.514L46.8887 51.477L46.8772 51.4398L46.8656 51.4023L46.8538 51.3646L46.842 51.3265L46.8299 51.2882L46.8177 51.2496L46.8053 51.2107L46.7926 51.1715L46.7797 51.1321L46.7665 51.0924L46.753 51.0524L46.7392 51.0121L46.725 50.9716L46.7104 50.9309L46.6955 50.8899L46.6801 50.8487L46.6642 50.8074L46.6479 50.7658L46.6311 50.724L46.6137 50.6821L46.5958 50.6401L46.5774 50.5979L46.5584 50.5557L46.5387 50.5134L46.5184 50.471L46.4975 50.4286L46.4759 50.3862L46.4536 50.3438L46.4306 50.3015L46.4069 50.2593L46.3825 50.2172L46.3573 50.1752L46.3314 50.1334L46.3047 50.0918L46.2773 50.0504L46.249 50.0093L46.22 49.9684L46.1902 49.9279L46.1596 49.8877L46.1282 49.8478L46.096 49.8083L46.0631 49.7693L46.0293 49.7306L45.9948 49.6924L45.9594 49.6547L45.9233 49.6175L45.8865 49.5807L45.8488 49.5446L45.8104 49.5089L45.7713 49.4739L45.7315 49.4394L45.6909 49.4055L45.6496 49.3722L45.6076 49.3395L45.5649 49.3075L45.5215 49.2761L45.4774 49.2454L45.4327 49.2154L45.3874 49.186L45.3414 49.1573L45.2948 49.1293L45.2475 49.102L45.1997 49.0754L45.1513 49.0496L45.1024 49.0244L45.0529 49L45.0028 48.9762L44.9522 48.9532L44.9011 48.931L44.8494 48.9095L44.7973 48.8887L44.7447 48.8687L44.6916 48.8494L44.6381 48.8308L44.584 48.8131L44.5296 48.796L44.4747 48.7798L44.4194 48.7643L44.3637 48.7495L44.3076 48.7356L44.2511 48.7224L44.1942 48.7101L44.1369 48.6985L44.0793 48.6878L44.0213 48.6778L43.963 48.6687L43.9044 48.6604L43.8455 48.6529L43.7863 48.6463L43.7268 48.6405L43.667 48.6356L43.6069 48.6316L43.5466 48.6284L43.4861 48.6261L43.4253 48.6246L43.3643 48.624L43.3031 48.6243L43.2417 48.6255L43.1801 48.6276L43.1184 48.6306L43.0565 48.6345L42.9945 48.6393L42.9323 48.645L42.87 48.6516L42.8076 48.6591L42.7452 48.6676L42.6826 48.677L42.62 48.6873L42.5573 48.6986L42.4946 48.7108L42.4319 48.7239L42.3692 48.738L42.3065 48.7531L42.2438 48.7692L42.1812 48.7862L42.1187 48.8042L42.0562 48.8232L41.9938 48.8432L41.9316 48.8642L41.8695 48.8862L41.8076 48.9092L41.7459 48.9333L41.6844 48.9584L41.6232 48.9846L41.5622 49.0119L41.5016 49.0402L41.4413 49.0696L41.3813 49.1L41.3217 49.1316L41.2626 49.1643L41.2039 49.198L41.1457 49.2329L41.088 49.2689L41.0309 49.3059L40.9743 49.3441L40.9184 49.3835L40.8631 49.4239L40.8085 49.4654L40.7547 49.508L40.7016 49.5518L40.6493 49.5966L40.5978 49.6425L40.5472 49.6895L40.4975 49.7375L40.4487 49.7866L40.4008 49.8367L40.354 49.8879L40.3082 49.9401L40.2634 49.9932L40.2197 50.0473L40.1771 50.1023L40.1356 50.1583L40.0953 50.2152L40.0562 50.2729L40.0182 50.3315L39.9815 50.3909L39.946 50.451L39.9117 50.5119L39.8787 50.5736L39.847 50.6359L39.8165 50.6989L39.7873 50.7625L39.7593 50.8267L39.7327 50.8914L39.7073 50.9566L39.6832 51.0224L39.6604 51.0886L39.6388 51.1552L39.6185 51.2221L39.5995 51.2895L39.5817 51.3571L39.5651 51.425L39.5497 51.4932L39.5356 51.5616L39.5226 51.6302L39.5108 51.699L39.5002 51.7679L39.4907 51.8369L39.4823 51.906L39.475 51.9751L39.4688 52.0443L39.4637 52.1135L39.4596 52.1827L39.4565 52.2519L39.4544 52.321L39.4533 52.39L39.4531 52.459L39.4539 52.5278L39.4556 52.5966L39.4581 52.6652L39.4615 52.7337L39.4658 52.802L39.4708 52.8701L39.4767 52.9381L39.4833 53.0059Z" fill="black" fill-opacity="0.2"/>
<path fill-rule="evenodd" clip-rule="evenodd" d="M31.7397 88.4378L31.7424 88.4622L31.7453 88.4864L31.7485 88.5106L31.7519 88.5348L31.7556 88.5588L31.7596 88.5828L31.7637 88.6067L31.7681 88.6305L31.7726 88.6543L31.7774 88.678L31.7824 88.7016L31.7876 88.7251L31.793 88.7486L31.7985 88.7719L31.8043 88.7953L31.8102 88.8185L31.8163 88.8417L31.8226 88.8648L31.829 88.8879L31.8356 88.9109L31.8424 88.9338L31.8494 88.9567L31.8565 88.9795L31.8639 89.0022L31.8714 89.0249L31.879 89.0476L31.8869 89.0701L31.8949 89.0927L31.9031 89.1151L31.9115 89.1375L31.9201 89.1599L31.9289 89.1822L31.9379 89.2044L31.9472 89.2265L31.9566 89.2486L31.9662 89.2706L31.9761 89.2925L31.9862 89.3144L31.9965 89.3362L32.0071 89.3578L32.0179 89.3794L32.029 89.4009L32.0403 89.4223L32.0519 89.4435L32.0638 89.4647L32.0759 89.4857L32.0883 89.5065L32.101 89.5273L32.1139 89.5479L32.1272 89.5683L32.1407 89.5886L32.1545 89.6087L32.1686 89.6286L32.1831 89.6483L32.1978 89.6678L32.2128 89.6871L32.2282 89.7062L32.2438 89.7251L32.2598 89.7437L32.276 89.762L32.2926 89.7801L32.3095 89.7979L32.3267 89.8154L32.3443 89.8326L32.3621 89.8495L32.3802 89.866L32.3987 89.8822L32.4174 89.8981L32.4365 89.9136L32.4558 89.9287L32.4755 89.9435L32.4954 89.9578L32.5156 89.9718L32.5361 89.9853L32.5568 89.9984L32.5778 90.0111L32.5991 90.0234L32.6206 90.0352L32.6423 90.0465L32.6643 90.0574L32.6865 90.0677L32.7088 90.0777L32.7314 90.0871L32.7542 90.096L32.7771 90.1044L32.8002 90.1124L32.8234 90.1198L32.8468 90.1267L32.8704 90.1331L32.894 90.1389L32.9177 90.1443L32.9416 90.1491L32.9655 90.1534L32.9894 90.1572L33.0135 90.1605L33.0375 90.1632L33.0616 90.1654L33.0857 90.1671L33.1098 90.1683L33.1339 90.169L33.158 90.1692L33.182 90.1689L33.206 90.1682L33.2299 90.1669L33.2538 90.1651L33.2776 90.1629L33.3013 90.1603L33.3248 90.1572L33.3483 90.1536L33.3716 90.1497L33.3948 90.1453L33.4179 90.1405L33.4408 90.1353L33.4636 90.1297L33.4861 90.1238L33.5085 90.1175L33.5308 90.1108L33.5528 90.1039L33.5747 90.0965L33.5963 90.0889L33.6178 90.081L33.6391 90.0727L33.6601 90.0642L33.6809 90.0554L33.7015 90.0464L33.7219 90.0371L33.7421 90.0275L33.7621 90.0177L33.7818 90.0077L33.8013 89.9975L33.8206 89.9871L33.8397 89.9764L33.8585 89.9656L33.8771 89.9546L33.8955 89.9434L33.9136 89.932L33.9315 89.9205L33.9492 89.9089L33.9667 89.8971L33.9839 89.8851L34.0009 89.873L34.0177 89.8608L34.0343 89.8485L34.0506 89.8361L34.0668 89.8235L34.0827 89.8109L34.0984 89.7981L34.1139 89.7853L34.1291 89.7724L34.1442 89.7594L34.1591 89.7463L34.1738 89.7331L34.1882 89.7199L34.2025 89.7065L34.2165 89.6932L34.2304 89.6797L34.2441 89.6662L34.2576 89.6526L34.2709 89.639L34.2839 89.6253L34.2969 89.6115L34.3096 89.5977L34.3221 89.5838L34.3344 89.5698L34.3466 89.5558L34.3585 89.5418L34.3703 89.5276L34.3819 89.5134L34.3932 89.4992L34.4044 89.4848L34.4154 89.4704L34.4262 89.456L34.4368 89.4414L34.4472 89.4268L34.4573 89.4121L34.4673 89.3974L34.4771 89.3826L34.4866 89.3677L34.496 89.3528L34.5051 89.3377L34.514 89.3226L34.5227 89.3075L34.5312 89.2923L34.5394 89.277L34.5474 89.2616L34.5551 89.2462L34.5627 89.2307L34.57 89.2151L34.577 89.1995L34.5838 89.1838L34.5904 89.1681L34.5967 89.1523L34.6027 89.1365L34.6085 89.1206L34.6141 89.1047L34.6194 89.0887L34.6244 89.0727L34.6292 89.0567L34.6337 89.0407L34.6379 89.0246L34.6419 89.0084L34.6456 88.9923L34.6491 88.9762L34.6523 88.96L34.6552 88.9439L34.6578 88.9277L34.6602 88.9116L34.6623 88.8954L34.6642 88.8793L34.6658 88.8632L34.6671 88.8471L34.6682 88.831L34.669 88.815L34.6695 88.799L34.6699 88.7831L34.6699 88.7672L34.6697 88.7514L34.6693 88.7356L34.6687 88.7199L34.6678 88.7042L34.6667 88.6886L34.6654 88.6731L34.6638 88.6577L34.6621 88.6424L34.6602 88.6271L34.658 88.612L34.6557 88.5969L34.6532 88.5819L34.6505 88.5671L34.6477 88.5523L34.6447 88.5376L34.6415 88.523L34.6382 88.5086L34.6348 88.4942L34.6312 88.48L34.6275 88.4658L34.6237 88.4518L34.6198 88.4378L34.6157 88.424L34.6116 88.4103L34.6074 88.3967L34.6032 88.3831L34.5988 88.3697L34.5945 88.3564L34.59 88.3432L34.5855 88.33L34.581 88.317L34.5764 88.304L34.5718 88.2911L34.5672 88.2783L34.5626 88.2655L34.558 88.2529L34.5534 88.2402L34.5488 88.2277L34.5442 88.2152L34.5396 88.2027L34.535 88.1903L34.5304 88.1779L34.5259 88.1655L34.5214 88.1531L34.5169 88.1408L34.5124 88.1285L34.508 88.1161L34.5036 88.1038L34.4993 88.0914L34.495 88.0791L34.4907 88.0667L34.4864 88.0543L34.4822 88.0418L34.478 88.0293L34.4738 88.0167L34.4696 88.0041L34.4655 87.9915L34.4614 87.9787L34.4573 87.9659L34.4532 87.9531L34.4491 87.9401L34.4449 87.9271L34.4408 87.914L34.4367 87.9007L34.4325 87.8874L34.4284 87.874L34.4241 87.8605L34.4199 87.8469L34.4155 87.8333L34.4112 87.8195L34.4067 87.8056L34.4022 87.7916L34.3976 87.7775L34.3929 87.7633L34.3881 87.749L34.3832 87.7346L34.3782 87.7201L34.373 87.7055L34.3677 87.6908L34.3623 87.6761L34.3567 87.6613L34.3509 87.6464L34.345 87.6314L34.3389 87.6164L34.3326 87.6013L34.326 87.5861L34.3193 87.571L34.3124 87.5557L34.3053 87.5405L34.2979 87.5253L34.2903 87.51L34.2824 87.4947L34.2743 87.4795L34.266 87.4643L34.2574 87.4491L34.2485 87.4339L34.2393 87.4188L34.2299 87.4037L34.2202 87.3888L34.2102 87.3739L34.1999 87.359L34.1894 87.3443L34.1785 87.3297L34.1674 87.3153L34.156 87.3009L34.1443 87.2867L34.1323 87.2726L34.12 87.2587L34.1075 87.245L34.0946 87.2314L34.0815 87.218L34.0681 87.2048L34.0544 87.1917L34.0404 87.1789L34.0262 87.1663L34.0117 87.1539L33.997 87.1417L33.9819 87.1297L33.9667 87.1179L33.9511 87.1064L33.9354 87.0951L33.9193 87.0841L33.9031 87.0732L33.8866 87.0627L33.8699 87.0523L33.8529 87.0423L33.8358 87.0324L33.8184 87.0229L33.8008 87.0135L33.783 87.0045L33.765 86.9957L33.7468 86.9871L33.7284 86.9789L33.7098 86.9709L33.691 86.9631L33.672 86.9556L33.6529 86.9484L33.6336 86.9415L33.6141 86.9348L33.5945 86.9284L33.5747 86.9223L33.5547 86.9164L33.5346 86.9108L33.5143 86.9055L33.4939 86.9005L33.4734 86.8958L33.4527 86.8913L33.4319 86.8872L33.4109 86.8833L33.3899 86.8797L33.3687 86.8764L33.3473 86.8734L33.3259 86.8708L33.3044 86.8684L33.2827 86.8663L33.261 86.8645L33.2392 86.8631L33.2172 86.8619L33.1952 86.8611L33.1731 86.8606L33.1509 86.8604L33.1287 86.8605L33.1064 86.8609L33.084 86.8616L33.0615 86.8627L33.039 86.8641L33.0165 86.8658L32.9938 86.8679L32.9712 86.8703L32.9485 86.873L32.9258 86.876L32.903 86.8794L32.8803 86.8831L32.8575 86.8872L32.8347 86.8916L32.8119 86.8963L32.7891 86.9014L32.7663 86.9068L32.7435 86.9126L32.7207 86.9187L32.698 86.9252L32.6753 86.932L32.6526 86.9392L32.63 86.9468L32.6074 86.9547L32.5849 86.963L32.5624 86.9717L32.5401 86.9807L32.5178 86.9902L32.4956 87L32.4736 87.0102L32.4516 87.0207L32.4298 87.0317L32.4082 87.0431L32.3867 87.0548L32.3653 87.067L32.3442 87.0795L32.3232 87.0925L32.3024 87.1058L32.2819 87.1196L32.2615 87.1337L32.2414 87.1483L32.2216 87.1632L32.202 87.1786L32.1827 87.1943L32.1637 87.2105L32.1449 87.227L32.1265 87.2439L32.1085 87.2612L32.0907 87.2789L32.0733 87.2969L32.0563 87.3153L32.0396 87.3341L32.0233 87.3533L32.0074 87.3727L31.992 87.3925L31.9769 87.4127L31.9622 87.4332L31.948 87.4539L31.9342 87.475L31.9208 87.4964L31.9079 87.5181L31.8955 87.54L31.8834 87.5622L31.8719 87.5846L31.8608 87.6073L31.8502 87.6302L31.84 87.6533L31.8304 87.6766L31.8211 87.7001L31.8124 87.7238L31.8041 87.7476L31.7962 87.7716L31.7888 87.7957L31.7819 87.8199L31.7754 87.8443L31.7694 87.8687L31.7638 87.8933L31.7587 87.9179L31.754 87.9426L31.7497 87.9673L31.7458 87.9921L31.7423 88.017L31.7393 88.0419L31.7367 88.0668L31.7344 88.0917L31.7325 88.1166L31.731 88.1415L31.7299 88.1664L31.7292 88.1913L31.7288 88.2161L31.7287 88.2409L31.729 88.2657L31.7296 88.2905L31.7305 88.3152L31.7317 88.3398L31.7333 88.3644L31.7351 88.389L31.7373 88.4134L31.7397 88.4378Z" fill="black" fill-opacity="0.2"/>
<path fill-rule="evenodd" clip-rule="evenodd" d="M37.6874 63.0448L37.6599 63.069L37.6329 63.0936L37.6064 63.1187L37.5805 63.1443L37.5551 63.1704L37.5303 63.1968L37.5061 63.2236L37.4824 63.2508L37.4592 63.2784L37.4366 63.3062L37.4145 63.3344L37.393 63.3628L37.3721 63.3914L37.3516 63.4202L37.3317 63.4492L37.3123 63.4784L37.2934 63.5077L37.275 63.5372L37.2571 63.5667L37.2397 63.5962L37.2227 63.6258L37.2061 63.6554L37.19 63.685L37.1743 63.7146L37.1589 63.744L37.144 63.7734L37.1293 63.8027L37.115 63.8318L37.1009 63.8608L37.0871 63.8896L37.0736 63.9182L37.0602 63.9466L37.047 63.9747L37.034 64.0026L37.0212 64.0303L37.0084 64.0578L36.9957 64.0849L36.983 64.1118L36.9705 64.1384L36.9579 64.1648L36.9453 64.1909L36.9326 64.2167L36.92 64.2423L36.9072 64.2676L36.8944 64.2926L36.8815 64.3174L36.8684 64.342L36.8552 64.3664L36.8419 64.3905L36.8284 64.4145L36.8148 64.4382L36.8009 64.4618L36.7869 64.4853L36.7728 64.5086L36.7584 64.5318L36.7439 64.5549L36.7292 64.578L36.7144 64.601L36.6993 64.624L36.6842 64.6469L36.6689 64.6699L36.6535 64.6929L36.6381 64.716L36.6225 64.7392L36.6069 64.7625L36.5913 64.7859L36.5757 64.8094L36.5601 64.8331L36.5445 64.857L36.5291 64.8811L36.5137 64.9054L36.4985 64.9299L36.4835 64.9546L36.4688 64.9796L36.4542 65.0049L36.4399 65.0304L36.426 65.0561L36.4124 65.0821L36.3991 65.1084L36.3862 65.135L36.3738 65.1618L36.3618 65.1889L36.3503 65.2162L36.3393 65.2438L36.3287 65.2717L36.3187 65.2997L36.3093 65.328L36.3004 65.3565L36.292 65.3853L36.2842 65.4142L36.2769 65.4432L36.2702 65.4725L36.2641 65.5019L36.2585 65.5314L36.2534 65.5611L36.2489 65.5908L36.2448 65.6207L36.2413 65.6507L36.2382 65.6808L36.2356 65.7109L36.2334 65.7411L36.2317 65.7714L36.2303 65.8017L36.2293 65.8321L36.2286 65.8625L36.2283 65.893L36.2282 65.9236L36.2284 65.9542L36.2288 65.9848L36.2294 66.0155L36.2302 66.0463L36.2311 66.0772L36.232 66.1081L36.2331 66.1392L36.2342 66.1704L36.2354 66.2016L36.2365 66.2331L36.2377 66.2647L36.2388 66.2964L36.2398 66.3284L36.2409 66.3605L36.2419 66.3929L36.2428 66.4255L36.2437 66.4583L36.2446 66.4914L36.2454 66.5247L36.2462 66.5583L36.247 66.5923L36.2478 66.6265L36.2486 66.6611L36.2493 66.696L36.2501 66.7312L36.2509 66.7668L36.2516 66.8028L36.2524 66.8392L36.2532 66.876L36.254 66.9132L36.2549 66.9509L36.2558 66.989L36.2567 67.0275L36.2578 67.0666L36.2589 67.1061L36.2601 67.1462L36.2614 67.1867L36.2628 67.2278L36.2644 67.2694L36.2662 67.3116L36.2681 67.3543L36.2702 67.3975L36.2726 67.4413L36.2752 67.4857L36.2781 67.5306L36.2813 67.5761L36.2848 67.6221L36.2887 67.6687L36.2929 67.7158L36.2976 67.7635L36.3028 67.8117L36.3084 67.8604L36.3146 67.9096L36.3213 67.9592L36.3286 68.0094L36.3365 68.0599L36.345 68.1109L36.3543 68.1622L36.3643 68.2139L36.375 68.2659L36.3865 68.3182L36.3988 68.3707L36.412 68.4234L36.4261 68.4763L36.4411 68.5294L36.457 68.5825L36.4739 68.6356L36.4918 68.6888L36.5107 68.7418L36.5307 68.7948L36.5517 68.8476L36.5738 68.9002L36.597 68.9524L36.6213 69.0043L36.6468 69.0558L36.6735 69.1067L36.7013 69.1571L36.7304 69.2067L36.7607 69.2557L36.7921 69.3037L36.8249 69.3509L36.8588 69.397L36.894 69.4421L36.9303 69.486L36.9679 69.5286L37.0067 69.5699L37.0466 69.6098L37.0877 69.6482L37.1298 69.6851L37.1731 69.7203L37.2174 69.7538L37.2628 69.7856L37.3091 69.8155L37.3563 69.8436L37.4045 69.8697L37.4535 69.8938L37.5032 69.9159L37.5537 69.9359L37.6049 69.9537L37.6566 69.9694L37.709 69.9828L37.7618 69.994L37.8151 70.0029L37.8687 70.0094L37.9226 70.0137L37.9767 70.0156L38.031 70.0152L38.0854 70.0125L38.1398 70.0075L38.1942 70.0002L38.2484 69.9907L38.3024 69.9789L38.3562 69.965L38.4096 69.949L38.4627 69.931L38.5153 69.9109L38.5673 69.8889L38.6189 69.8651L38.6698 69.8396L38.72 69.8123L38.7696 69.7835L38.8184 69.7532L38.8664 69.7214L38.9136 69.6884L38.96 69.6542L39.0055 69.6189L39.0502 69.5825L39.094 69.5453L39.1368 69.5073L39.1788 69.4686L39.2199 69.4294L39.2601 69.3897L39.2994 69.3496L39.3378 69.3092L39.3754 69.2687L39.4122 69.2281L39.4482 69.1875L39.4834 69.147L39.5179 69.1067L39.5516 69.0667L39.5847 69.027L39.6172 68.9877L39.6491 68.949L39.6805 68.9107L39.7113 68.8731L39.7418 68.8361L39.7718 68.7998L39.8015 68.7642L39.8309 68.7294L39.86 68.6953L39.8889 68.6621L39.9177 68.6297L39.9464 68.5981L39.9749 68.5674L40.0035 68.5375L40.0321 68.5084L40.0607 68.4802L40.0894 68.4527L40.1182 68.426L40.1471 68.4001L40.1762 68.3749L40.2056 68.3503L40.2351 68.3264L40.2649 68.3031L40.2949 68.2804L40.3251 68.2582L40.3557 68.2365L40.3864 68.2151L40.4175 68.1942L40.4488 68.1735L40.4804 68.1532L40.5122 68.133L40.5443 68.113L40.5766 68.0931L40.6091 68.0733L40.6418 68.0535L40.6748 68.0337L40.7078 68.0138L40.7411 67.9939L40.7745 67.9738L40.808 67.9535L40.8416 67.9331L40.8754 67.9124L40.9092 67.8915L40.9432 67.8704L40.9773 67.849L41.0114 67.8273L41.0456 67.8053L41.08 67.783L41.1144 67.7604L41.1489 67.7375L41.1835 67.7143L41.2181 67.6907L41.2529 67.6668L41.2877 67.6425L41.3227 67.6178L41.3576 67.5928L41.3927 67.5674L41.4279 67.5415L41.4631 67.5153L41.4984 67.4887L41.5337 67.4616L41.5692 67.4341L41.6047 67.4061L41.6402 67.3777L41.6758 67.3488L41.7115 67.3194L41.7472 67.2896L41.7829 67.2592L41.8187 67.2284L41.8545 67.197L41.8903 67.1651L41.926 67.1326L41.9618 67.0996L41.9976 67.066L42.0332 67.0319L42.0689 66.9971L42.1044 66.9618L42.1398 66.9258L42.1752 66.8893L42.2103 66.8521L42.2453 66.8142L42.2801 66.7757L42.3146 66.7365L42.3489 66.6967L42.3829 66.6562L42.4166 66.615L42.4499 66.5732L42.4827 66.5306L42.5152 66.4874L42.5472 66.4434L42.5786 66.3988L42.6095 66.3534L42.6398 66.3074L42.6695 66.2607L42.6984 66.2133L42.7267 66.1653L42.7541 66.1166L42.7808 66.0672L42.8066 66.0172L42.8315 65.9666L42.8555 65.9154L42.8786 65.8636L42.9007 65.8113L42.9218 65.7583L42.9419 65.7049L42.9611 65.651L42.9792 65.5966L42.9964 65.5417L43.0125 65.4864L43.0276 65.4307L43.0416 65.3745L43.0547 65.318L43.0667 65.2611L43.0777 65.2039L43.0877 65.1464L43.0967 65.0886L43.1046 65.0305L43.1116 64.9721L43.1175 64.9135L43.1223 64.8547L43.1262 64.7957L43.129 64.7365L43.1307 64.6771L43.1314 64.6176L43.131 64.558L43.1296 64.4983L43.127 64.4386L43.1232 64.3788L43.1183 64.3191L43.1122 64.2594L43.1049 64.1997L43.0964 64.1402L43.0865 64.0809L43.0754 64.0217L43.0629 63.9628L43.0491 63.9041L43.034 63.8458L43.0175 63.7878L42.9995 63.7302L42.9802 63.6731L42.9594 63.6166L42.9372 63.5605L42.9136 63.5051L42.8885 63.4503L42.862 63.3962L42.834 63.3428L42.8047 63.2903L42.7738 63.2385L42.7416 63.1877L42.7079 63.1377L42.6729 63.0888L42.6365 63.0408L42.5987 62.9939L42.5596 62.9481L42.5193 62.9034L42.4776 62.8598L42.4348 62.8175L42.3907 62.7763L42.3455 62.7364L42.2991 62.6978L42.2517 62.6605L42.2033 62.6244L42.1539 62.5897L42.1035 62.5564L42.0523 62.5244L42.0002 62.4937L41.9473 62.4644L41.8938 62.4365L41.8395 62.4099L41.7846 62.3848L41.7292 62.3609L41.6732 62.3384L41.6168 62.3173L41.5599 62.2975L41.5027 62.279L41.4452 62.2617L41.3874 62.2458L41.3295 62.2311L41.2714 62.2176L41.2131 62.2053L41.1548 62.1942L41.0965 62.1842L41.0382 62.1753L40.98 62.1676L40.9219 62.1608L40.8639 62.1552L40.8061 62.1505L40.7484 62.1468L40.691 62.144L40.6339 62.1422L40.577 62.1413L40.5204 62.1412L40.4641 62.142L40.4082 62.1436L40.3527 62.1461L40.2975 62.1492L40.2427 62.1532L40.1883 62.1579L40.1343 62.1632L40.0808 62.1693L40.0277 62.176L39.9751 62.1834L39.9229 62.1913L39.8712 62.1999L39.82 62.209L39.7693 62.2186L39.7191 62.2287L39.6694 62.2394L39.6202 62.2504L39.5715 62.2619L39.5233 62.2737L39.4757 62.2859L39.4286 62.2984L39.382 62.3112L39.336 62.3242L39.2905 62.3373L39.2455 62.3506L39.201 62.3641L39.1571 62.3776L39.1136 62.3912L39.0707 62.4048L39.0282 62.4185L38.9862 62.4321L38.9446 62.4458L38.9035 62.4595L38.8628 62.4731L38.8225 62.4868L38.7826 62.5004L38.7431 62.514L38.704 62.5277L38.6652 62.5413L38.6268 62.555L38.5887 62.5687L38.551 62.5825L38.5135 62.5964L38.4764 62.6104L38.4396 62.6245L38.4031 62.6388L38.3669 62.6533L38.331 62.668L38.2954 62.6829L38.2602 62.6981L38.2252 62.7136L38.1905 62.7295L38.1562 62.7456L38.1222 62.7622L38.0885 62.7792L38.0552 62.7966L38.0222 62.8145L37.9896 62.8328L37.9574 62.8516L37.9256 62.871L37.8942 62.8908L37.8633 62.9112L37.8328 62.9321L37.8027 62.9536L37.7732 62.9756L37.7441 62.9981L37.7155 63.0212L37.6874 63.0448Z" fill="black" fill-opacity="0.2"/>
<path d="M26.6584 101.496C26.6692 102.938 26.6831 104.365 26.6996 105.771L26.7233 105.749L26.7475 105.725L26.7713 105.701L26.7945 105.676L26.8172 105.652L26.8395 105.627L26.8612 105.603L26.8825 105.578L26.9033 105.554L26.9237 105.53L26.9437 105.506L26.9633 105.482L26.9826 105.459L27.0202 105.413L27.0386 105.39L27.0568 105.368L27.0747 105.347L27.0925 105.326L27.1101 105.305L27.1275 105.285L27.1449 105.266L27.1622 105.247L27.1795 105.228L27.1968 105.21L27.214 105.192L27.2313 105.175L27.2487 105.159L27.2661 105.142L27.2836 105.127L27.3012 105.112L27.3189 105.097L27.3367 105.082L27.3547 105.068L27.3728 105.055L27.3911 105.041L27.4096 105.028L27.4282 105.015L27.4469 105.002L27.4659 104.99L27.485 104.978L27.5042 104.965L27.5236 104.953L27.5431 104.941L27.5627 104.929L27.5825 104.917L27.6024 104.905L27.6627 104.869L27.6829 104.857L27.7032 104.845L27.7236 104.832L27.7441 104.82L27.7646 104.807L27.7852 104.794L27.8058 104.781L27.8265 104.767L27.8473 104.754L27.8681 104.74L27.8889 104.726L27.9098 104.712L27.9308 104.698L27.9518 104.684L27.9728 104.669L27.9939 104.654L28.0151 104.639L28.0363 104.624L28.0575 104.608L28.0788 104.592L28.1001 104.576L28.1215 104.56L28.1429 104.543L28.1643 104.526L28.1858 104.509L28.2073 104.492L28.2289 104.474L28.2504 104.456L28.272 104.437L28.2937 104.419L28.3153 104.4L28.3369 104.381L28.3585 104.361L28.3801 104.341L28.4017 104.321L28.4233 104.3L28.4448 104.279L28.4663 104.258L28.4877 104.236L28.5091 104.214L28.5303 104.191L28.5515 104.169L28.5725 104.145L28.5933 104.122L28.6141 104.098L28.6346 104.073L28.6549 104.048L28.6751 104.023L28.6949 103.997L28.7145 103.971L28.7339 103.944L28.7529 103.917L28.7715 103.89L28.7899 103.862L28.8078 103.834L28.8253 103.805L28.8423 103.776L28.8589 103.747L28.875 103.717L28.8906 103.687L28.9057 103.656L28.9202 103.625L28.9341 103.594L28.9475 103.562L28.9602 103.53L28.9724 103.498L28.984 103.466L28.995 103.433L29.0053 103.4L29.015 103.366L29.0242 103.332L29.0327 103.299L29.0406 103.264L29.0478 103.23L29.0545 103.195L29.0605 103.161L29.0659 103.126L29.0707 103.091L29.0749 103.055L29.0785 103.02L29.0814 102.984L29.0837 102.949L29.0854 102.913L29.0865 102.877L29.0869 102.841L29.0867 102.805L29.0858 102.769L29.0842 102.733L29.082 102.697L29.079 102.661L29.0753 102.625L29.0709 102.589L29.0657 102.553L29.0598 102.517L29.0531 102.481L29.0455 102.445L29.0372 102.41L29.028 102.375L29.018 102.34L29.0072 102.305L28.9955 102.27L28.983 102.236L28.9696 102.202L28.9553 102.169L28.9401 102.136L28.9241 102.103L28.9072 102.071L28.8895 102.039L28.8708 102.008L28.8513 101.977L28.831 101.947L28.8098 101.917L28.7878 101.888L28.765 101.86L28.7414 101.832L28.717 101.805L28.6918 101.779L28.6659 101.753L28.6393 101.729L28.612 101.704L28.584 101.681L28.5553 101.658L28.5261 101.637L28.4962 101.616L28.4658 101.596L28.4348 101.576L28.4033 101.558L28.3714 101.54L28.339 101.523L28.3062 101.507L28.2731 101.492L28.2396 101.477L28.2057 101.464L28.1716 101.451L28.1373 101.439L28.1027 101.428L28.068 101.418L28.0331 101.408L27.998 101.399L27.9629 101.391L27.9277 101.383L27.8925 101.377L27.8573 101.371L27.8221 101.365L27.7869 101.361L27.7517 101.357L27.7167 101.353L27.6818 101.35L27.6469 101.348L27.6122 101.346L27.5777 101.345L27.5433 101.345L27.5091 101.345L27.4751 101.345L27.4413 101.346L27.4078 101.348L27.3744 101.35L27.3413 101.352L27.3084 101.355L27.2758 101.358L27.2435 101.362L27.2114 101.366L27.1796 101.37L27.1481 101.375L27.1168 101.38L27.0859 101.386L27.0552 101.391L27.0249 101.398L26.9949 101.404L26.9651 101.411L26.9357 101.418L26.9066 101.425L26.8778 101.432L26.8494 101.44L26.8212 101.447L26.7934 101.455L26.7659 101.463L26.7387 101.471L26.7119 101.479L26.6853 101.488L26.659 101.496L26.6584 101.496Z" fill="black" fill-opacity="0.2"/>
<path d="M52.2102 23.7819L52.2724 23.745L52.3338 23.7068L52.3944 23.6675L52.454 23.6271L52.5127 23.5857L52.5705 23.5432L52.6274 23.4998L52.6833 23.4555L52.7382 23.4103L52.7922 23.3643L52.8453 23.3176L52.8973 23.2701L52.9485 23.222L52.9986 23.1734L53.0478 23.1241L53.096 23.0744L53.1433 23.0242L53.1897 22.9736L53.2352 22.9227L53.2798 22.8716L53.3235 22.8201L53.3663 22.7686L53.4084 22.7169L53.4496 22.6651L53.4901 22.6134L53.5298 22.5617L53.5689 22.51L53.6073 22.4586L53.645 22.4073L53.6823 22.3563L53.7189 22.3056L53.7551 22.2553L53.7909 22.2052L53.8961 22.0578L53.9305 22.0095L53.9648 21.9618L53.9989 21.9146L54.0329 21.8679L54.0668 21.8217L54.1007 21.776L54.1345 21.7309L54.1684 21.6863L54.2024 21.6423L54.2365 21.5987L54.2708 21.5556L54.3052 21.513L54.3398 21.4709L54.3747 21.4292L54.4098 21.388L54.4452 21.3471L54.4809 21.3065L54.5169 21.2663L54.5531 21.2264L54.5897 21.1867L54.6266 21.1471L54.6638 21.1078L54.7013 21.0685L54.739 21.0293L54.777 20.9901L54.8152 20.9509L54.931 20.8325L54.9698 20.7927L55.0087 20.7526L55.0476 20.7121L55.0864 20.6713L55.1251 20.63L55.1637 20.5884L55.2021 20.5462L55.2402 20.5035L55.278 20.4603L55.3154 20.4165L55.3523 20.372L55.3887 20.327L55.4246 20.2813L55.4599 20.235L55.4945 20.188L55.5283 20.1403L55.5614 20.092L55.5937 20.043L55.6251 19.9933L55.6556 19.943L55.6852 19.8921L55.7138 19.8405L55.7414 19.7883L55.768 19.7355L55.7936 19.6821L55.8182 19.6282L55.8418 19.5738L55.8644 19.5188L55.886 19.4634L55.9065 19.4076L55.9261 19.3513L55.9448 19.2947L55.9625 19.2377L55.9793 19.1804L55.9953 19.1227L56.0104 19.0648L56.0247 19.0065L56.0383 18.948L56.0512 18.8893L56.0635 18.8304L56.0752 18.7712L56.0863 18.7119L56.097 18.6523L56.1073 18.5926L56.1172 18.5327L56.1269 18.4725L56.1363 18.4122L56.1455 18.3517L56.1547 18.2909L56.1724 18.1719C47.3971 20.0731 39.0994 23.5615 33.1889 30.9766C27.5084 38.1029 26.4701 72.0377 26.6508 100.407L26.7192 100.378L26.819 100.334L26.9176 100.288L27.0149 100.241L27.1109 100.194L27.2057 100.145L27.2992 100.095L27.3914 100.045L27.4823 99.9936L27.5719 99.9416L27.6603 99.889L27.7473 99.8357L27.8331 99.7818L27.9176 99.7274L28.0008 99.6725L28.0828 99.6172L28.1636 99.5616L28.2432 99.5057L28.3215 99.4496L28.3987 99.3935L28.4748 99.3372L28.5497 99.2811L28.6236 99.225L28.6965 99.169L28.7683 99.1133L28.8392 99.0577L28.9091 99.0024L28.9781 98.9474L29.0462 98.8928L29.1135 98.8384L29.18 98.7843L29.2457 98.7306L29.3107 98.6772L29.3749 98.6241L29.4384 98.5712L29.5013 98.5186L29.5634 98.4662L29.6249 98.414L29.6857 98.362L29.7459 98.3101L29.8054 98.2582L29.8642 98.2064L29.9224 98.1545L29.9799 98.1025L30.0367 98.0504L30.0928 97.9981L30.1482 97.9456L30.2028 97.8928L30.2566 97.8396L30.3097 97.7861L30.3618 97.7321L30.4131 97.6776L30.4635 97.6227L30.513 97.5672L30.5614 97.5111L30.6089 97.4543L30.6553 97.397L30.7005 97.339L30.7447 97.2803L30.7877 97.2209L30.8294 97.1609L30.87 97.1002L30.9093 97.0388L30.9473 96.9767L30.984 96.9141L31.0194 96.8507L31.0534 96.7868L31.0861 96.7224L31.1175 96.6574L31.1475 96.5919L31.1762 96.526L31.2036 96.4597L31.2297 96.3931L31.2545 96.3262L31.2781 96.2591L31.3004 96.1918L31.3215 96.1243L31.3414 96.0567L31.3602 95.9891L31.3778 95.9215L31.3943 95.8539L31.4097 95.7863L31.4242 95.7189L31.4376 95.6516L31.4501 95.5845L31.4616 95.5176L31.4723 95.451L31.4822 95.3847L31.4913 95.3187L31.4997 95.253L31.5075 95.1878L31.5147 95.123L31.5213 95.0586L31.5274 94.9947L31.5331 94.9313L31.5385 94.8684L31.5436 94.806L31.5484 94.7441L31.553 94.6828L31.5664 94.5022L31.5709 94.4431L31.5754 94.3845L31.5801 94.3264L31.5849 94.2689L31.59 94.2118L31.5952 94.1552L31.6008 94.099L31.6066 94.0433L31.6128 93.988L31.6194 93.9331L31.6263 93.8785L31.6337 93.8242L31.6415 93.7703L31.6496 93.7165L31.6582 93.663L31.6673 93.6097L31.6768 93.5566L31.6867 93.5035L31.697 93.4505L31.7076 93.3976L31.7187 93.3447L31.7301 93.2918L31.7417 93.2388L31.7537 93.1857L31.7658 93.1325L31.7782 93.0791L31.8157 92.9179L31.8283 92.8636L31.8407 92.8092L31.8529 92.7544L31.865 92.6994L31.8767 92.644L31.8881 92.5884L31.899 92.5324L31.9094 92.4762L31.9193 92.4196L31.9285 92.3627L31.9371 92.3056L31.9449 92.2482L31.9519 92.1905L31.958 92.1326L31.9632 92.0745L31.9674 92.0162L31.9706 91.9577L31.9728 91.8991L31.9739 91.8403L31.9739 91.7815L31.9727 91.7226L31.9704 91.6636L31.967 91.6047L31.9623 91.5457L31.9566 91.4868L31.9496 91.428L31.9416 91.3692L31.9324 91.3105L31.9221 91.252L31.9107 91.1936L31.8983 91.1353L31.8848 91.0772L31.8704 91.0193L31.8551 90.9615L31.8388 90.904L31.8217 90.8466L31.8037 90.7894L31.785 90.7323L31.7656 90.6754L31.7455 90.6187L31.7248 90.562L31.7036 90.5055L31.6818 90.4491L31.6596 90.3926L31.637 90.3363L31.6141 90.2798L31.5908 90.2234L31.5674 90.1668L31.5437 90.1101L31.4474 89.8813L31.4232 89.8233L31.3988 89.765L31.3744 89.7063L31.3499 89.6471L31.3254 89.5875L31.3007 89.5274L31.276 89.4669L30.907 88.5544L30.8783 88.4837L30.849 88.4122L30.8193 88.3399L30.7891 88.2667L30.7583 88.1926L30.7268 88.1176L30.6948 88.0418L30.6621 87.965L30.6286 87.8874L30.5944 87.8089L30.5594 87.7296L30.5235 87.6493L30.489 87.5731L30.5896 87.4905L30.714 87.3879L30.837 87.286L30.9586 87.1848L31.079 87.0842L31.1981 86.9843L31.3159 86.8849L31.4326 86.7861L31.5481 86.6878L31.6625 86.5898L31.7758 86.4922L31.888 86.3948L31.999 86.2976L32.109 86.2006L32.2179 86.1036L32.3256 86.0065L32.4322 85.9093L32.5377 85.812L32.6419 85.7143L32.745 85.6164L32.8468 85.518L32.9473 85.4191L33.0464 85.3197L33.1442 85.2197L33.2406 85.1191L33.3354 85.0178L33.4287 84.9158L33.5204 84.813L33.6104 84.7095L33.6987 84.6051L33.7852 84.5L33.8699 84.3942L33.9527 84.2875L34.0336 84.1801L34.1125 84.072L34.1894 83.9632L34.2643 83.8537L34.3371 83.7436L34.4078 83.633L34.4764 83.5219L34.5429 83.4103L34.6073 83.2984L34.6696 83.1863L34.7298 83.0739L34.788 82.9614L34.8441 82.8488L34.8982 82.7363L34.9504 82.6238L35.0006 82.5115L35.0488 82.3994L35.0952 82.2875L35.1397 82.1759L35.1825 82.0648L35.2235 81.954L35.2628 81.8438L35.3004 81.7341L35.3365 81.6249L35.3711 81.5164L35.4042 81.4086L35.436 81.3014L35.4666 81.1951L35.4959 81.0895L35.5242 80.9847L35.5514 80.8808L35.5777 80.7778L35.6032 80.6756L35.628 80.5743L35.6521 80.474L35.6757 80.3745L35.6988 80.276L35.7666 79.9857L35.7889 79.8907L35.8113 79.7965L35.8336 79.7031L35.8562 79.6104L35.8789 79.5185L35.902 79.4273L35.9253 79.3367L35.9491 79.2467L35.9734 79.1573L35.9981 79.0684L36.0234 78.98L36.0493 78.892L36.0758 78.8043L36.103 78.7169L36.1308 78.6297L36.1593 78.5428L36.1884 78.4559L36.2183 78.3692L36.2487 78.2825L36.2798 78.1957L36.3116 78.1089L36.3438 78.022L36.3766 77.9348L36.4099 77.8475L36.4435 77.7599L36.4775 77.6721L36.5807 77.4065L36.6152 77.3172L36.6496 77.2276L36.6838 77.1375L36.7177 77.047L36.7511 76.9562L36.7841 76.8649L36.8163 76.7733L36.8479 76.6813L36.8786 76.589L36.9083 76.4964L36.9369 76.4035L36.9643 76.3103L36.9905 76.217L37.0152 76.1235L37.0385 76.0299L37.0602 75.9362L37.0803 75.8425L37.0987 75.7488L37.1153 75.6552L37.1301 75.5618L37.143 75.4685L37.154 75.3754L37.1631 75.2826L37.1702 75.1902L37.1754 75.098L37.1787 75.0063L37.18 74.915L37.1795 74.8241L37.1771 74.7337L37.1728 74.6438L37.1668 74.5544L37.159 74.4655L37.1496 74.3772L37.1385 74.2893L37.1259 74.202L37.1119 74.1151L37.0964 74.0287L37.0796 73.9428L37.0615 73.8574L37.0424 73.7723L37.0222 73.6875L37.001 73.6031L36.979 73.5189L36.9562 73.4349L36.9328 73.351L36.9087 73.2672L36.8843 73.1833L36.8594 73.0994L36.8342 73.0154L36.7315 72.676L36.7057 72.5901L36.6798 72.5036L36.6539 72.4164L36.6281 72.3286L36.6022 72.2402L36.5762 72.1509L36.5502 72.061L36.5241 71.9702L36.4979 71.8786L36.195 70.8083L36.1654 70.7045L36.1352 70.5995L36.1045 70.4933L36.0732 70.3859L36.0413 70.2772L36.0086 70.1673L35.9752 70.0561L35.9409 69.9437L35.9057 69.8301L35.8695 69.7152L35.8323 69.5991L35.7939 69.4819L35.7544 69.3635L35.7135 69.244L35.6713 69.1234L35.6276 69.0018L35.5824 68.8793L35.5355 68.7559L35.4868 68.6317L35.4363 68.5067L35.3839 68.3811L35.3294 68.255L35.2728 68.1284L35.214 68.0015L35.1528 67.8744L35.0893 67.7472L35.0232 67.6201L34.9546 67.4931L34.8832 67.3664L34.8091 67.2402L34.7321 67.1146L34.6522 66.9898L34.5694 66.8659L34.4834 66.7431L34.3944 66.6215L34.3021 66.5014L34.2067 66.3828L34.1079 66.2661L34.0059 66.1513L33.9005 66.0386L33.7918 65.9283L33.6796 65.8205L33.564 65.7156L33.5152 65.6738L33.5324 65.6449L33.5865 65.5572L33.6415 65.4713L33.6973 65.3872L33.754 65.3049L33.8117 65.2241L33.8703 65.1448L33.9299 65.0668L33.9904 64.9901L34.052 64.9146L34.1145 64.84L34.1779 64.7663L34.2422 64.6934L34.3075 64.6211L34.3735 64.5492L34.4403 64.4778L34.5078 64.4066L34.576 64.3356L34.6448 64.2646L34.7141 64.1935L34.9953 63.9065L35.0663 63.8337L35.1375 63.7604L35.2088 63.6864L35.2802 63.6118L35.3517 63.5365L35.4233 63.4605L35.4949 63.3837L35.5666 63.3061L35.6383 63.2277L35.71 63.1485L35.7818 63.0685L35.8535 62.9875L35.9252 62.9056L35.9969 62.8228L36.0686 62.739L36.1402 62.6543L36.2118 62.5685L36.2833 62.4817L36.3548 62.3938L36.4261 62.3049L36.4974 62.2149L36.5686 62.1238L36.6396 62.0315L36.7106 61.938L36.7813 61.8434L36.8519 61.7476L36.9223 61.6505L36.9925 61.5522L37.0625 61.4526L37.1322 61.3517L37.2016 61.2495L37.2707 61.146L37.3395 61.041L37.4078 60.9347L37.4757 60.827L37.543 60.7179L37.6099 60.6074L37.6761 60.4954L37.7417 60.3819L37.8065 60.2669L37.8706 60.1505L37.9338 60.0326L37.996 59.9131L38.0572 59.7922L38.1174 59.6697L38.1763 59.5457L38.234 59.4203L38.2903 59.2933L38.3452 59.1649L38.3985 59.0351L38.4501 58.9038L38.5 58.7711L38.5481 58.637L38.5941 58.5016L38.6381 58.3649L38.68 58.2269L38.7196 58.0877L38.7568 57.9474L38.7915 57.806L38.8237 57.6636L38.8532 57.5201L38.8801 57.3758L38.9042 57.2306L38.9255 57.0846L38.9441 56.9379L38.9598 56.7905L38.9727 56.6424L38.9828 56.4939L38.99 56.3448L38.9944 56.1953L38.9959 56.0454L38.9946 55.8952L38.9905 55.7447L38.9836 55.5939L38.9739 55.443L38.9614 55.2919L38.9462 55.1408L38.9282 54.9896L38.9075 54.8385L38.8841 54.6873L38.8579 54.5364L38.829 54.3856L38.7974 54.235L38.7631 54.0847L38.7259 53.9348L38.6861 53.7853L38.6434 53.6363L38.5978 53.4879L38.5494 53.3402L38.4981 53.1932L38.4438 53.0472L38.3865 52.9021L38.3261 52.7582L38.2627 52.6154L38.1961 52.474L38.1263 52.3341L38.0533 52.1957L37.9772 52.059L37.8978 51.9242L37.8151 51.7913L37.7292 51.6604L37.6401 51.5318L37.5478 51.4055L37.4522 51.2816L37.4218 51.2443L37.4661 51.2057L37.5623 51.1202L37.6569 51.0345L37.7499 50.9488L37.8414 50.8631L37.9313 50.7775L38.0199 50.6922L38.1071 50.6071L38.1929 50.5224L38.2774 50.4381L38.3608 50.3543L38.4429 50.2709L38.5239 50.1881L38.6038 50.1058L38.6827 50.0241L38.7606 49.9429L38.8375 49.8622L38.9134 49.7821L38.9885 49.7025L39.0627 49.6233L39.136 49.5446L39.2085 49.4663L39.2801 49.3884L39.3509 49.3107L39.4209 49.2333L39.49 49.1561L39.5583 49.079L39.6257 49.002L39.6921 48.925L39.7577 48.8479L39.8223 48.7707L39.886 48.6932L39.9486 48.6156L40.0101 48.5376L40.0705 48.4593L40.1297 48.3805L40.1878 48.3012L40.2445 48.2215L40.2999 48.1411L40.354 48.0602L40.4066 47.9786L40.4577 47.8964L40.5073 47.8134L40.5553 47.7298L40.6017 47.6455L40.6464 47.5606L40.6894 47.4749L40.7306 47.3885L40.7701 47.3015L40.8077 47.2139L40.8436 47.1257L40.8776 47.0369L40.9097 46.9476L40.9401 46.8579L40.9686 46.7677L40.9953 46.6772L41.0202 46.5864L41.0434 46.4954L41.0649 46.4042L41.0847 46.3129L41.1029 46.2216L41.1194 46.1303L41.1344 46.039L41.1479 45.9479L41.1599 45.8569L41.1705 45.7662L41.1797 45.6757L41.1875 45.5855L41.1941 45.4956L41.1995 45.4062L41.2037 45.3172L41.2069 45.2286L41.209 45.1406L41.2102 45.0532L41.2105 44.9663L41.21 44.88L41.2089 44.7944L41.207 44.7095L41.2047 44.6252L41.2019 44.5417L41.1987 44.4589L41.1951 44.3768L41.1914 44.2954L41.1875 44.2148L41.1757 43.9773L41.1719 43.8995L41.1684 43.8225L41.165 43.7461L41.162 43.6703L41.1593 43.5951L41.157 43.5205L41.1551 43.4465L41.1538 43.373L41.1529 43.2999L41.1525 43.2273L41.1527 43.155L41.1535 43.0831L41.1548 43.0116L41.1568 42.9402L41.1594 42.8691L41.1625 42.7982L41.1662 42.7274L41.1705 42.6567L41.1753 42.586L41.1807 42.5154L41.1865 42.4446L41.1927 42.3738L41.1994 42.3029L41.2063 42.2318L41.2135 42.1605L41.221 42.089L41.2438 41.8728L41.2513 41.8001L41.2587 41.7271L41.2658 41.6538L41.2725 41.5801L41.2788 41.5061L41.2846 41.4318L41.2898 41.3571L41.2943 41.2821L41.298 41.2069L41.3008 41.1313L41.3027 41.0555L41.3035 40.9794L41.3033 40.9032L41.3019 40.8267L41.2992 40.7502L41.2953 40.6735L41.29 40.5968L41.2833 40.5201L41.2752 40.4433L41.2657 40.3667L41.2546 40.2901L41.2421 40.2137L41.228 40.1374L41.2124 40.0614L41.1953 39.9856L41.1768 39.91L41.1567 39.8348L41.1353 39.7598L41.1124 39.6852L41.0881 39.611L41.0625 39.5371L41.0355 39.4636L41.0074 39.3904L40.978 39.3177L40.9475 39.2453L40.9158 39.1733L40.8832 39.1017L40.8496 39.0304L40.8151 38.9594L40.7797 38.8887L40.7436 38.8183L40.7067 38.7481L40.6692 38.6781L40.6312 38.6082L40.5926 38.5384L40.5536 38.4686L40.5142 38.3988L40.4744 38.3289L40.4343 38.2589L40.2719 37.9763L40.2309 37.9048L40.1897 37.8327L40.1484 37.7602L40.1069 37.6871L40.0653 37.6134L40.0466 37.5802L40.107 37.4802L40.1898 37.344L40.2717 37.2106L40.353 37.0801L40.4337 36.9527L40.5141 36.8284L40.5943 36.7074L40.6744 36.5896L40.7547 36.4751L40.8351 36.364L40.9159 36.2561L40.9972 36.1514L41.0791 36.0499L41.1616 35.9516L41.2449 35.8562L41.329 35.7638L41.414 35.674L41.5 35.5869L41.5869 35.5023L41.6748 35.42L41.7637 35.3397L41.8537 35.2614L41.9447 35.1848L42.0366 35.1097L42.1296 35.0359L42.2235 34.9633L42.3182 34.8916L42.4138 34.8205L42.5102 34.75L42.6074 34.6799L42.7052 34.6099L42.8035 34.5398L43.0019 34.399L43.1017 34.3279L43.2019 34.2563L43.3024 34.1839L43.4032 34.1106L43.5042 34.0365L43.6054 33.9614L43.7068 33.8853L43.8085 33.8082L43.9103 33.7299L44.0123 33.6504L44.1145 33.5698L44.2168 33.4879L44.3193 33.4047L44.4219 33.3201L44.5246 33.2342L44.6275 33.1469L44.7305 33.0581L44.8336 32.9679L44.9368 32.8761L45.0401 32.7828L45.1434 32.6878L45.2468 32.5913L45.3503 32.493L45.4539 32.393L45.5574 32.2913L45.661 32.1878L45.7646 32.0825L45.8682 31.9753L45.9717 31.8661L46.0751 31.755L46.1784 31.6419L46.2816 31.5267L46.3846 31.4094L46.4874 31.29L46.5899 31.1684L46.6921 31.0445L46.794 30.9183L46.8954 30.7897L46.9963 30.6588L47.0966 30.5254L47.1962 30.3895L47.2952 30.2511L47.3933 30.11L47.4905 29.9664L47.5867 29.82L47.6819 29.671L47.7758 29.5192L47.8683 29.3646L47.9595 29.2072L48.049 29.047L48.1369 28.8839L48.223 28.7179L48.3072 28.5491L48.3893 28.3773L48.4692 28.2027L48.5467 28.0252L48.6218 27.8449L48.6943 27.6617L48.764 27.4757L48.8308 27.2869L48.8947 27.0953L48.9555 26.9011L49.0131 26.7043L49.0674 26.5049L49.1185 26.3031L49.1662 26.0988L49.2106 25.8922L49.2515 25.6833L49.289 25.4723L49.3231 25.2592L49.3537 25.0441L49.3809 24.827L49.4046 24.6082L49.4136 24.511L49.464 24.5044L49.5498 24.4928L49.6347 24.4811L49.7187 24.4692L49.802 24.4572L49.8844 24.4451L49.9662 24.4329L50.0471 24.4205L50.1274 24.4079L50.2071 24.3952L50.2861 24.3823L50.3644 24.3691L50.4422 24.3556L50.5194 24.3418L50.5961 24.3276L50.6722 24.313L50.7478 24.2979L50.8229 24.2823L50.8974 24.2661L50.9715 24.2493L51.0451 24.2318L51.1182 24.2135L51.1909 24.1944L51.263 24.1745L51.3346 24.1536L51.4056 24.1318L51.4762 24.109L51.5461 24.0851L51.6155 24.0601L51.6843 24.034L51.7525 24.0067L51.8201 23.9783L51.8869 23.9486L51.9531 23.9177L52.0185 23.8856L52.0832 23.8523L52.1471 23.8177L52.2102 23.7819Z" fill="black" fill-opacity="0.2"/>
<path d="M148.53 35.3883C148.587 34.9036 148.623 34.4136 148.635 33.9176H157.091C157.473 33.9176 157.791 33.853 158.056 33.7341C130.663 33.7452 123.863 34.288 110.401 35.3625C108.173 35.5404 105.763 35.7328 103.046 35.9398C78.3388 36.4476 74.663 33.2162 70.6496 29.688C70.3034 29.3836 69.9546 29.0771 69.5897 28.7705C69.6363 28.8671 69.6826 28.9633 69.7287 29.0591C72.2245 34.2468 74.1003 38.1457 99.3696 38.1457C104.283 38.243 111.462 37.6528 119.479 36.9937C128.69 36.2364 139.007 35.3883 148.258 35.3883H148.53Z" fill="black" fill-opacity="0.2"/>
<path d="M154.513 37.5697C155.983 37.5697 157.086 33.918 157.086 33.918H151.939C151.939 33.918 153.042 37.5697 154.513 37.5697Z" fill="white"/>
<path fill-rule="evenodd" clip-rule="evenodd" d="M154.673 37.5553C154.62 37.5648 154.567 37.5697 154.513 37.5697C153.042 37.5697 151.939 33.918 151.939 33.918H152.645C152.918 34.7079 153.67 36.6757 154.673 37.5553Z" fill="black" fill-opacity="0.2"/>
<path d="M118.49 39.0582C119.956 38.9359 120.751 35.2051 120.751 35.2051L115.622 35.6331C115.622 35.6331 117.025 39.1805 118.49 39.0582Z" fill="white"/>
<path fill-rule="evenodd" clip-rule="evenodd" d="M118.649 39.0305C118.597 39.0443 118.544 39.0537 118.49 39.0582C117.025 39.1805 115.622 35.6331 115.622 35.6331L116.326 35.5744C116.663 36.3389 117.576 38.2373 118.649 39.0305Z" fill="black" fill-opacity="0.2"/>
<path d="M112.975 39.3923C114.442 39.2912 115.291 35.5723 115.291 35.5723L110.156 35.9263C110.156 35.9263 111.508 39.4935 112.975 39.3923Z" fill="white"/>
<path fill-rule="evenodd" clip-rule="evenodd" d="M113.134 39.367C113.082 39.3801 113.029 39.3887 112.975 39.3924C111.508 39.4935 110.156 35.9263 110.156 35.9263L110.861 35.8778C111.187 36.6471 112.073 38.5584 113.134 39.367Z" fill="black" fill-opacity="0.2"/>
<path d="M107.093 39.8247C108.56 39.7293 109.424 36.0137 109.424 36.0137L104.288 36.3476C104.288 36.3476 105.625 39.9201 107.093 39.8247Z" fill="white"/>
<path fill-rule="evenodd" clip-rule="evenodd" d="M107.252 39.8C107.2 39.813 107.147 39.8213 107.093 39.8249C105.625 39.9203 104.288 36.3478 104.288 36.3478L104.993 36.302C105.316 37.0726 106.194 38.9874 107.252 39.8Z" fill="black" fill-opacity="0.2"/>
<path d="M148.629 33.918C148.629 33.918 148.629 33.9181 148.629 33.918L157.085 33.9179C158.384 33.9178 158.951 33.1691 159.17 32.0798C134.336 32.0822 126.167 32.8281 115.169 33.8324C111.725 34.1469 108.004 34.4866 103.408 34.8368C77.4247 35.3709 74.1843 32.6312 69.8341 28.9532C69.6908 28.8321 69.5464 28.71 69.3999 28.5869C70.4437 29.4637 71.1191 30.279 71.7392 31.0275C74.286 34.1017 75.8983 36.0479 98.2607 36.4911C103.203 36.589 110.763 36.0316 119.181 35.4108C128.749 34.7053 139.426 33.918 148.629 33.918Z" fill="#3D311E"/>
<path d="M53.7304 154.719C57.1288 154.16 61.7164 155.82 63.4156 154.726C66.2511 152.902 63.223 146.219 65.3866 142.173C67.5345 138.157 73.2628 135.844 73.2628 135.844L37.6767 125.464C37.6767 125.464 36.3407 134.608 36.58 142.19C36.7079 146.245 33.3144 150 34.2878 151.918C35.7024 154.706 39.2325 151.462 42.0383 152.883C44.3931 154.076 43.4487 156.887 46.434 157.356C49.8838 157.898 49.0207 155.492 53.7304 154.719Z" fill="#A4AA80"/>
<path fill-rule="evenodd" clip-rule="evenodd" d="M137.122 56.2231C138.259 54.4449 139.474 52.732 140.671 51.0493C133.096 55.9842 114.072 57.6307 114.072 57.6307C114.072 57.6307 125.945 59.3269 137.122 56.2231Z" fill="black" fill-opacity="0.2"/>
<path d="M98.8299 141.274C107.221 140.839 113.431 139.428 119.032 135.39C130.981 123.625 131.001 111.37 130.898 92.6826C130.859 85.818 130.819 78.49 131.558 70.7228C131.612 70.159 131.684 69.6041 131.773 69.0576C109.623 72.7056 104.96 78.4217 97.5425 87.5143C93.6721 92.2586 89.0518 97.9222 80.8059 104.691C67.5704 115.556 69.1273 139.91 69.2211 141.219C69.5348 141.236 69.8394 141.254 70.1342 141.273C70.5064 141.273 70.8758 141.273 71.2425 141.274H98.8299Z" fill="#92986A" fill-opacity="0.5"/>
<circle cx="8.73025" cy="8.73025" r="8.73025" transform="matrix(-1 0 0 1 92.0171 11.8076)" fill="white"/>
<path fill-rule="evenodd" clip-rule="evenodd" d="M84.4231 27.8696C79.3296 27.8696 75.2005 23.8088 75.2005 18.7996C75.2005 17.3423 75.55 15.9652 76.171 14.7451C74.8047 16.327 73.9804 18.3757 73.9804 20.6138C73.9804 25.6231 78.1095 29.6839 83.203 29.6839C86.8147 29.6839 89.9415 27.6421 91.4551 24.6683C89.7634 26.6269 87.2408 27.8696 84.4231 27.8696Z" fill="black" fill-opacity="0.2"/>
<path fill-rule="evenodd" clip-rule="evenodd" d="M84.8767 19.1903L84.9021 19.2785L84.9261 19.3671L84.9487 19.4561L84.9697 19.5455L84.9892 19.6352L85.0073 19.7252L85.0238 19.8153L85.0388 19.9057L85.0522 19.9961L85.0641 20.0866L85.0745 20.1771L85.0833 20.2676L85.0906 20.358L85.0964 20.4483L85.1007 20.5384L85.1034 20.6283L85.1047 20.7179L85.1045 20.8072L85.1028 20.8962L85.0997 20.9847L85.0952 21.0729L85.0893 21.1606L85.082 21.2478L85.0734 21.3345L85.0634 21.4206L85.0522 21.5061L85.0396 21.591L85.0258 21.6752L85.0108 21.7588L84.9945 21.8416L84.9771 21.9238L84.9585 22.0052L84.9388 22.0858L84.918 22.1657L84.8961 22.2447L84.8731 22.3229L84.8491 22.4003L84.8241 22.4768L84.7981 22.5524L84.7711 22.6272L84.7431 22.7011L84.7143 22.774L84.6845 22.8461L84.6538 22.9172L84.6223 22.9874L84.5899 23.0566L84.5566 23.1248L84.5226 23.1921L84.4878 23.2584L84.4521 23.3237L84.4158 23.388L84.3786 23.4513L84.3408 23.5137L84.3022 23.5749L84.2629 23.6352L84.223 23.6944L84.1823 23.7526L84.1411 23.8097L84.0991 23.8658L84.0566 23.9208L84.0134 23.9748L83.9696 24.0276L83.9252 24.0794L83.8802 24.1301L83.8347 24.1797L83.7886 24.2281L83.7419 24.2755L83.6948 24.3217L83.647 24.3668L83.5988 24.4107L83.5501 24.4535L83.5008 24.4951L83.4511 24.5355L83.4009 24.5747L83.3502 24.6127L83.2991 24.6495L83.2475 24.685L83.1954 24.7193L83.143 24.7524L83.0901 24.7841L83.0368 24.8146L82.9832 24.8437L82.9291 24.8715L82.8746 24.898L82.8198 24.9231L82.7647 24.9468L82.7092 24.9691L82.6534 24.99L82.5973 25.0095L82.5409 25.0275L82.4842 25.044L82.4272 25.059L82.37 25.0726L82.3126 25.0846L82.255 25.0951L82.1972 25.104L82.1392 25.1113L82.0811 25.117L82.0228 25.1212L81.9645 25.1237L81.9061 25.1246L81.8476 25.1239L81.7891 25.1216L81.7307 25.1176L81.6722 25.112L81.6139 25.1047L81.5556 25.0958L81.4975 25.0853L81.4395 25.0732L81.3817 25.0595L81.3242 25.0442L81.2669 25.0274L81.2099 25.0091L81.1533 24.9892L81.0969 24.968L81.041 24.9453L80.9855 24.9212L80.9304 24.8957L80.8759 24.869L80.8218 24.8409L80.7682 24.8116L80.7152 24.7812L80.6628 24.7496L80.6109 24.7169L80.5597 24.6831L80.5091 24.6483L80.4592 24.6126L80.41 24.5759L80.3614 24.5384L80.3135 24.5001L80.2664 24.461L80.2199 24.4212L80.1742 24.3807L80.1293 24.3397L80.0851 24.2981L80.0416 24.256L79.9988 24.2134L79.9569 24.1705L79.9156 24.1272L79.8751 24.0836L79.8353 24.0398L79.7963 23.9957L79.758 23.9515L79.7203 23.9073L79.6834 23.8629L79.6472 23.8185L79.6116 23.7741L79.5767 23.7298L79.5424 23.6854L79.5087 23.6412L79.4757 23.597L79.4433 23.5529L79.4115 23.509L79.3802 23.4652L79.3495 23.4215L79.3194 23.3779L79.2898 23.3345L79.2607 23.2912L79.2321 23.2481L79.2041 23.2051L79.1765 23.1623L79.1495 23.1196L79.1229 23.077L79.0968 23.0346L79.0711 22.9923L79.0459 22.9502L79.0211 22.9081L78.9968 22.8662L78.973 22.8244L78.9495 22.7827L78.9265 22.741L78.9039 22.6995L78.8817 22.6581L78.86 22.6167L78.8386 22.5755L78.8176 22.5343L78.7971 22.4933L78.7769 22.4523L78.7571 22.4114L78.7376 22.3705L78.7185 22.3298L78.6998 22.2892L78.6814 22.2487L78.6633 22.2083L78.6456 22.168L78.6281 22.1278L78.6109 22.0877L78.594 22.0478L78.5773 22.008L78.5609 21.9683L78.5447 21.9287L78.5287 21.8893L78.5129 21.85L78.4972 21.8107L78.4818 21.7716L78.4665 21.7326L78.4514 21.6937L78.4364 21.6549L78.4216 21.6162L78.4068 21.5775L78.3922 21.5389L78.3777 21.5003L78.3633 21.4618L78.349 21.4233L78.3348 21.3848L78.3207 21.3463L78.3067 21.3078L78.2927 21.2693L78.2788 21.2308L78.265 21.1922L78.2512 21.1536L78.2375 21.1149L78.2239 21.0761L78.2103 21.0372L78.1968 20.9982L78.1834 20.9591L78.17 20.9198L78.1566 20.8804L78.1433 20.8409L78.1301 20.8011L78.1168 20.7612L78.1037 20.7211L78.0905 20.6808L78.0774 20.6403L78.0642 20.5996L78.0511 20.5586L78.038 20.5173L78.0249 20.4757L78.0118 20.4339L77.9987 20.3917L77.9856 20.3493L77.9725 20.3065L77.9593 20.2633L77.9461 20.2197L77.9328 20.1758L77.9195 20.1314L77.9062 20.0866L77.8928 20.0413L77.8794 19.9956L77.866 19.9493L77.8524 19.9025L77.8389 19.8552L77.8253 19.8074L77.8116 19.7589L77.7979 19.7098L77.7842 19.6601L77.7705 19.6098L77.7568 19.5588L77.7431 19.5071L77.7294 19.4547L77.7158 19.4016L77.7023 19.3478L77.6888 19.2932L77.6755 19.2379L77.6623 19.1818L77.6493 19.125L77.6366 19.0674L77.6241 19.009L77.6118 18.9499L77.5999 18.89L77.5884 18.8293L77.5773 18.768L77.5666 18.7058L77.5564 18.643L77.5467 18.5794L77.5375 18.5152L77.529 18.4503L77.5211 18.3847L77.5138 18.3186L77.5073 18.2518L77.5015 18.1845L77.4965 18.1166L77.4924 18.0483L77.4891 17.9795L77.4867 17.9102L77.4852 17.8406L77.4848 17.7706L77.4853 17.7004L77.4868 17.6299L77.4895 17.5592L77.4932 17.4883L77.4981 17.4174L77.5042 17.3464L77.5114 17.2754L77.5199 17.2044L77.5296 17.1336L77.5405 17.063L77.5528 16.9926L77.5663 16.9225L77.5811 16.8528L77.5973 16.7834L77.6148 16.7145L77.6336 16.6461L77.6538 16.5782L77.6752 16.5109L77.6981 16.4443L77.7222 16.3783L77.7477 16.313L77.7744 16.2486L77.8025 16.1849L77.8319 16.122L77.8625 16.0601L77.8944 15.999L77.9275 15.9389L77.9619 15.8797L77.9975 15.8216L78.0344 15.7644L78.0723 15.7084L78.1115 15.6534L78.1518 15.5995L78.1933 15.5467L78.2358 15.4951L78.2794 15.4447L78.3241 15.3955L78.3699 15.3475L78.4167 15.3007L78.4645 15.2552L78.5132 15.211L78.563 15.1681L78.6137 15.1266L78.6653 15.0864L78.7178 15.0476L78.7712 15.0102L78.8255 14.9742L78.8806 14.9397L78.9366 14.9067L78.9933 14.8752L79.0509 14.8452L79.1091 14.8169L79.1682 14.7901L79.2279 14.765L79.2883 14.7416L79.3493 14.7198L79.411 14.6998L79.4733 14.6815L79.5361 14.6649L79.5995 14.6501L79.6634 14.6371L79.7277 14.6259L79.7925 14.6165L79.8577 14.609L79.9233 14.6032L79.9892 14.5993L80.0554 14.5972L80.1219 14.597L80.1886 14.5985L80.2556 14.6019L80.3227 14.6071L80.3899 14.6141L80.4573 14.6229L80.5247 14.6335L80.5922 14.6458L80.6596 14.6599L80.7271 14.6758L80.7945 14.6933L80.8618 14.7126L80.929 14.7335L80.9961 14.756L81.063 14.7802L81.1297 14.8059L81.1962 14.8332L81.2625 14.8621L81.3285 14.8924L81.3942 14.9242L81.4596 14.9574L81.5247 14.9919L81.5895 15.0278L81.654 15.0649L81.7181 15.1033L81.7819 15.1429L81.8452 15.1836L81.9083 15.2254L81.9709 15.2683L82.0332 15.3122L82.0951 15.3572L82.1566 15.403L82.2178 15.4499L82.2785 15.4976L82.3389 15.5461L82.399 15.5955L82.4586 15.6458L82.5179 15.6968L82.5769 15.7486L82.6354 15.8012L82.6937 15.8545L82.7515 15.9085L82.809 15.9633L82.8662 16.0188L82.923 16.0749L82.9795 16.1318L83.0356 16.1894L83.0913 16.2477L83.1468 16.3067L83.2018 16.3664L83.2565 16.4268L83.3108 16.4879L83.3647 16.5497L83.4183 16.6123L83.4715 16.6755L83.5243 16.7395L83.5767 16.8041L83.6287 16.8695L83.6803 16.9357L83.7314 17.0026L83.7821 17.0702L83.8323 17.1386L83.8821 17.2077L83.9313 17.2776L83.98 17.3483L84.0281 17.4198L84.0757 17.4921L84.1227 17.5652L84.169 17.639L84.2146 17.7138L84.2595 17.7893L84.3037 17.8656L84.3471 17.9427L84.3897 18.0207L84.4314 18.0995L84.4722 18.179L84.512 18.2594L84.5509 18.3405L84.5888 18.4224L84.6256 18.5051L84.6613 18.5884L84.6958 18.6725L84.7292 18.7573L84.7613 18.8427L84.7921 18.9287L84.8217 19.0154L84.8499 19.1026L84.8767 19.1903Z" fill="black"/>
<path fill-rule="evenodd" clip-rule="evenodd" d="M79.6624 24.4798L79.6134 24.4957L79.5642 24.5109L79.5147 24.5253L79.465 24.539L79.4152 24.552L79.3652 24.5641L79.315 24.5755L79.2648 24.5861L79.2145 24.5959L79.1641 24.6049L79.1138 24.6131L79.0634 24.6206L79.0131 24.6272L78.9628 24.633L78.9126 24.6381L78.8626 24.6423L78.8126 24.6458L78.7628 24.6485L78.7133 24.6505L78.6639 24.6517L78.6147 24.6521L78.5658 24.6518L78.5172 24.6508L78.4688 24.6491L78.4208 24.6467L78.373 24.6435L78.3257 24.6397L78.2786 24.6353L78.2319 24.6301L78.1857 24.6243L78.1398 24.6179L78.0943 24.6109L78.0492 24.6033L78.0046 24.595L77.9604 24.5862L77.9167 24.5768L77.8734 24.5668L77.8306 24.5563L77.7883 24.5452L77.7464 24.5336L77.7051 24.5215L77.6642 24.5089L77.6239 24.4958L77.584 24.4822L77.5447 24.4681L77.5059 24.4535L77.4677 24.4385L77.43 24.4231L77.3928 24.4071L77.3562 24.3908L77.3201 24.374L77.2845 24.3568L77.2496 24.3392L77.2152 24.3212L77.1813 24.3028L77.1481 24.284L77.1154 24.2649L77.0833 24.2453L77.0517 24.2254L77.0208 24.2052L76.9904 24.1846L76.9607 24.1636L76.9315 24.1423L76.903 24.1207L76.8751 24.0987L76.8477 24.0764L76.821 24.0538L76.795 24.0308L76.7695 24.0076L76.7447 23.9841L76.7206 23.9602L76.6971 23.9361L76.6742 23.9117L76.652 23.8869L76.6305 23.8619L76.6097 23.8367L76.5895 23.8111L76.5701 23.7853L76.5513 23.7593L76.5333 23.7329L76.516 23.7064L76.4994 23.6795L76.4835 23.6525L76.4684 23.6252L76.454 23.5976L76.4405 23.5699L76.4277 23.5419L76.4156 23.5137L76.4044 23.4853L76.394 23.4567L76.3844 23.428L76.3757 23.399L76.3677 23.3699L76.3607 23.3406L76.3544 23.3111L76.3491 23.2815L76.3446 23.2518L76.341 23.2219L76.3383 23.1919L76.3365 23.1619L76.3356 23.1317L76.3356 23.1015L76.3366 23.0712L76.3384 23.0408L76.3411 23.0105L76.3448 22.9801L76.3494 22.9497L76.3548 22.9193L76.3612 22.889L76.3684 22.8587L76.3766 22.8284L76.3856 22.7983L76.3954 22.7683L76.4061 22.7383L76.4175 22.7086L76.4298 22.679L76.4429 22.6495L76.4567 22.6202L76.4712 22.5912L76.4865 22.5623L76.5025 22.5337L76.5191 22.5054L76.5363 22.4773L76.5542 22.4495L76.5727 22.4219L76.5918 22.3947L76.6113 22.3677L76.6314 22.3411L76.652 22.3148L76.6731 22.2889L76.6945 22.2633L76.7164 22.238L76.7386 22.2131L76.7612 22.1886L76.7841 22.1644L76.8073 22.1406L76.8307 22.1172L76.8544 22.0942L76.8782 22.0715L76.9022 22.0492L76.9264 22.0272L76.9507 22.0056L76.975 21.9844L76.9995 21.9636L77.0239 21.9431L77.0484 21.923L77.0729 21.9032L77.0974 21.8837L77.1219 21.8646L77.1463 21.8458L77.1707 21.8274L77.1951 21.8092L77.2193 21.7914L77.2436 21.7739L77.2677 21.7566L77.2918 21.7397L77.3158 21.723L77.3397 21.7066L77.3635 21.6905L77.3873 21.6746L77.411 21.659L77.4346 21.6437L77.4581 21.6286L77.4816 21.6138L77.505 21.5992L77.5283 21.5848L77.5516 21.5707L77.5748 21.5568L77.5979 21.5431L77.621 21.5297L77.6441 21.5165L77.667 21.5035L77.69 21.4907L77.7129 21.4782L77.7357 21.4658L77.7585 21.4537L77.7813 21.4418L77.804 21.43L77.8266 21.4185L77.8493 21.4072L77.8718 21.396L77.8943 21.3851L77.9168 21.3743L77.9392 21.3637L77.9615 21.3532L77.9838 21.3429L78.006 21.3328L78.0282 21.3228L78.0502 21.3129L78.0722 21.3031L78.0942 21.2935L78.116 21.284L78.1379 21.2746L78.1596 21.2653L78.1813 21.2561L78.2029 21.2469L78.2245 21.2379L78.246 21.2289L78.2675 21.22L78.289 21.2112L78.3104 21.2024L78.3318 21.1937L78.3532 21.1851L78.3745 21.1765L78.3959 21.1679L78.4172 21.1594L78.4386 21.1509L78.4599 21.1425L78.4813 21.1341L78.5027 21.1257L78.5242 21.1174L78.5457 21.1091L78.5672 21.1008L78.5888 21.0926L78.6104 21.0844L78.6321 21.0762L78.6539 21.068L78.6758 21.0599L78.6977 21.0517L78.7198 21.0436L78.7419 21.0355L78.7642 21.0275L78.7865 21.0194L78.809 21.0113L78.8317 21.0033L78.8544 20.9952L78.8773 20.9871L78.9004 20.979L78.9236 20.9709L78.947 20.9628L78.9706 20.9547L78.9944 20.9466L79.0184 20.9384L79.0425 20.9302L79.067 20.922L79.0916 20.9137L79.1165 20.9054L79.1416 20.897L79.167 20.8887L79.1927 20.8802L79.2187 20.8718L79.2449 20.8633L79.2715 20.8547L79.2984 20.8462L79.3257 20.8375L79.3533 20.8289L79.3813 20.8202L79.4096 20.8115L79.4383 20.8028L79.4674 20.7941L79.4969 20.7854L79.5268 20.7767L79.5571 20.768L79.5879 20.7594L79.619 20.7508L79.6506 20.7423L79.6826 20.7339L79.7151 20.7255L79.7479 20.7174L79.7812 20.7093L79.815 20.7014L79.8491 20.6938L79.8836 20.6863L79.9186 20.679L79.9539 20.672L79.9897 20.6652L80.0258 20.6588L80.0623 20.6526L80.0991 20.6468L80.1363 20.6413L80.1737 20.6362L80.2115 20.6315L80.2496 20.6272L80.2879 20.6233L80.3265 20.6199L80.3653 20.6169L80.4042 20.6145L80.4434 20.6125L80.4827 20.6111L80.5221 20.6102L80.5616 20.6099L80.6012 20.6102L80.6408 20.6111L80.6804 20.6126L80.72 20.6147L80.7595 20.6175L80.7989 20.6209L80.8382 20.625L80.8774 20.6298L80.9164 20.6353L80.9551 20.6415L80.9937 20.6483L81.0319 20.6559L81.0699 20.6642L81.1075 20.6732L81.1448 20.6828L81.1817 20.6932L81.2182 20.7043L81.2543 20.7161L81.29 20.7286L81.3252 20.7418L81.36 20.7557L81.3942 20.7703L81.4279 20.7855L81.4611 20.8014L81.4938 20.818L81.5259 20.8352L81.5574 20.8531L81.5883 20.8716L81.6186 20.8907L81.6482 20.9104L81.6773 20.9308L81.7057 20.9518L81.7334 20.9733L81.7605 20.9954L81.7868 21.0181L81.8125 21.0414L81.8375 21.0652L81.8617 21.0896L81.8852 21.1145L81.9079 21.1399L81.9299 21.1658L81.9511 21.1922L81.9715 21.2192L81.9911 21.2466L82.0099 21.2744L82.0278 21.3028L82.0449 21.3316L82.0611 21.3608L82.0764 21.3904L82.0907 21.4205L82.1042 21.451L82.1167 21.4819L82.1283 21.5131L82.1389 21.5447L82.1486 21.5767L82.1572 21.6089L82.1649 21.6416L82.1716 21.6745L82.1772 21.7076L82.1819 21.7411L82.1855 21.7748L82.1882 21.8088L82.1898 21.8429L82.1904 21.8773L82.1899 21.9118L82.1885 21.9465L82.186 21.9814L82.1826 22.0163L82.1781 22.0514L82.1727 22.0866L82.1662 22.1219L82.1588 22.1572L82.1505 22.1926L82.1411 22.2279L82.1309 22.2633L82.1197 22.2987L82.1075 22.3341L82.0945 22.3695L82.0806 22.4048L82.0658 22.44L82.0502 22.4751L82.0337 22.5102L82.0165 22.5452L81.9984 22.5801L81.9796 22.6148L81.9601 22.6494L81.9398 22.6839L81.9188 22.7182L81.8972 22.7524L81.8749 22.7865L81.852 22.8204L81.8286 22.8541L81.8045 22.8877L81.7799 22.9211L81.7547 22.9544L81.729 22.9874L81.7029 23.0203L81.6762 23.0531L81.6491 23.0857L81.6215 23.1181L81.5934 23.1504L81.5649 23.1825L81.536 23.2144L81.5067 23.2462L81.477 23.2778L81.4469 23.3092L81.4163 23.3405L81.3854 23.3717L81.3541 23.4026L81.3223 23.4335L81.2902 23.4641L81.2577 23.4946L81.2248 23.525L81.1915 23.5551L81.1578 23.5851L81.1238 23.615L81.0893 23.6446L81.0544 23.6741L81.0191 23.7034L80.9834 23.7325L80.9473 23.7615L80.9108 23.7902L80.8739 23.8188L80.8365 23.8471L80.7987 23.8752L80.7605 23.9031L80.7219 23.9308L80.6828 23.9582L80.6433 23.9853L80.6034 24.0122L80.563 24.0387L80.5221 24.065L80.4808 24.0909L80.439 24.1165L80.3967 24.1418L80.354 24.1666L80.3109 24.1911L80.2673 24.2152L80.2232 24.2388L80.1787 24.2619L80.1337 24.2846L80.0883 24.3067L80.0425 24.3283L79.9963 24.3494L79.9497 24.3699L79.9027 24.3898L79.8553 24.4091L79.8076 24.4278L79.7595 24.4458L79.7111 24.4631L79.6624 24.4798Z" fill="white"/>
<rect width="18.2897" height="4.02795" rx="2.01398" transform="matrix(-0.914405 0.404801 0.404801 0.914405 88.3916 2.9834)" fill="#575C3B"/>
<rect x="100.655" y="2.9834" width="18.2897" height="4.02795" rx="2.01398" transform="rotate(13.0473 100.655 2.9834)" fill="#575C3B"/>
<path d="M99.29 71.0469H81.9465C79.7374 71.0469 77.9465 72.8377 77.9465 75.0469V100.454C77.9465 102.663 79.7374 104.454 81.9465 104.454H95.29C97.4992 104.454 99.29 102.663 99.29 100.454V71.0469Z" fill="#C3EFF4"/>
<path d="M98.3618 84.0391H78.8743V99.5266C78.8743 101.736 80.6651 103.527 82.8743 103.527H94.3618C96.571 103.527 98.3618 101.736 98.3618 99.5266V84.0391Z" fill="#FFD25D"/>
<path d="M87.2261 71.0471C87.2261 68.6611 87.9336 66.3287 89.2592 64.3449C90.5848 62.361 92.4689 60.8148 94.6732 59.9017C96.8776 58.9886 99.3032 58.7497 101.643 59.2152C103.983 59.6807 106.133 60.8296 107.82 62.5168C109.507 64.2039 110.656 66.3535 111.122 68.6936C111.587 71.0337 111.348 73.4593 110.435 75.6637C109.522 77.868 107.976 79.7521 105.992 81.0777C104.008 82.4033 101.676 83.1108 99.2898 83.1108V71.0471H87.2261Z" fill="#FFD25D"/>
<path d="M89.082 71.0466C89.082 69.0277 89.6807 67.0542 90.8024 65.3755C91.924 63.6968 93.5182 62.3885 95.3835 61.6159C97.2487 60.8433 99.3011 60.6411 101.281 61.035C103.261 61.4289 105.08 62.4011 106.508 63.8286C107.935 65.2562 108.908 67.0751 109.301 69.0552C109.695 71.0353 109.493 73.0877 108.721 74.953C107.948 76.8182 106.64 78.4124 104.961 79.5341C103.282 80.6557 101.309 81.2544 99.2898 81.2544V71.0466H89.082Z" fill="#FFB800"/>
<path d="M99.2898 83.1108C97.7056 83.1108 96.1368 82.7988 94.6732 82.1925C93.2096 81.5863 91.8797 80.6977 90.7595 79.5774C89.6392 78.4572 88.7506 77.1273 88.1444 75.6637C87.5381 74.2001 87.2261 72.6313 87.2261 71.0471L99.2898 71.0471L99.2898 83.1108Z" fill="#FFD25D" fill-opacity="0.5"/>
<path opacity="0.5" d="M98.3618 81.2549C97.1432 81.2549 95.9365 81.0148 94.8106 80.5485C93.6847 80.0821 92.6617 79.3986 91.8 78.5369C90.9383 77.6752 90.2548 76.6522 89.7884 75.5263C89.3221 74.4004 89.082 73.1937 89.082 71.9751L98.3618 71.9751L98.3618 81.2549Z" fill="#FFA800"/>
<path d="M82.5963 88.6061C81.8004 86.2186 82.4848 82.7223 81.4933 81.6207C79.8389 79.7825 75.3144 82.7229 72.1182 81.6207C68.9451 80.5265 65.6597 79.138 63.1107 77.7603C54.1566 72.9211 43.8716 78.4372 43.4412 88.6061C43.0338 98.2317 52.667 101.489 62.1905 102.945C66.9642 103.674 69.9284 103.424 75.4271 102.393C78.3683 101.842 81.4933 103.864 82.7801 102.945C84.6504 101.609 81.8814 99.4303 82.5963 97.246C83.1963 95.4127 85.3537 95.7754 85.3537 93.5695C85.3537 91.0202 83.6993 91.915 82.5963 88.6061Z" fill="#92986A"/>
<path d="M54.0031 1.44727L94.3701 18.1509L83.6984 32.9985L54.0031 1.44727Z" fill="black" stroke="black"/>
<path d="M120.354 0.983398L98.546 16.295L111.538 18.151L120.354 0.983398Z" fill="black" stroke="black"/>
<path d="M93.9064 19.0794C94.3704 17.5328 96.0407 14.9035 99.0103 16.7594" stroke="black"/>
<path d="M77.2026 23.2552L54.0032 21.8633C51.9926 21.8633 47.7857 23.0697 47.0434 27.8951" stroke="black" stroke-width="4" stroke-linecap="round"/>
<path d="M80.9144 15.8309L88.8022 26.5027L86.9463 28.8226L81.8424 20.4708L80.9144 24.6467L64.2108 5.15918L69.7787 7.47912L79.9865 20.0068L80.9144 15.8309Z" fill="white" fill-opacity="0.5"/>
<path d="M109.682 15.8307L105.042 11.1908L106.434 9.79883L109.218 13.0468L110.61 9.79883L114.322 13.5107L112.93 15.8307L110.61 13.5107L109.682 15.8307Z" fill="white" fill-opacity="0.5"/>
</svg>
